<svg width="127" height="32" viewBox="0 0 127 32" fill="none" xmlns="http://www.w3.org/2000/svg">
<path d="M17.0085 7.955L17.0119 7.95083C17.1082 7.83583 17.2934 7.92333 17.2668 8.07083C16.7785 10.8258 14.442 13.0175 11.4843 13.1475C8.333 13.2858 5.56796 10.965 5.14436 7.83C4.67424 4.35333 7.18761 1.20249 10.6354 0.869161C13.3979 0.601661 15.9155 2.225 16.9105 4.6825C17.2868 5.61166 17.1913 6.67833 16.6098 7.49416C16.5883 7.525 16.5658 7.555 16.5426 7.58499C15.158 9.45916 12.2418 10.4225 9.97508 10.3225C8.86707 10.2683 7.76404 9.90333 6.89441 9.1975C7.74494 9.93833 8.84796 10.3492 9.96511 10.4558C12.2991 10.6692 15.4512 9.78833 17.0085 7.955Z" fill="#E48747"/>
<path d="M6.52563 7.4508C6.15436 4.91497 7.93847 2.51497 10.4078 2.01997C10.5856 1.98413 10.755 2.10997 10.7724 2.2908C10.7882 2.45497 10.6719 2.60413 10.5092 2.6233C10.0316 2.67997 9.55978 2.81413 9.11957 3.02497C7.46752 3.7933 6.40686 5.6208 6.52563 7.4508Z" fill="#F3F4F6"/>
<path d="M11.614 1.87926L11.2511 1.91439C11.1753 1.92173 11.1198 1.98932 11.1271 2.06537L11.1621 2.42951C11.1694 2.50556 11.2368 2.56126 11.3126 2.55392L11.6755 2.51879C11.7513 2.51146 11.8068 2.44386 11.7995 2.36782L11.7645 2.00368C11.7572 1.92763 11.6898 1.87193 11.614 1.87926Z" fill="#F3F4F6"/>
<path d="M18.8425 23.7375L18.8483 23.7317C19.0169 23.565 19.296 23.7317 19.232 23.96C18.0451 28.2283 14.03 31.3267 9.34798 31.0808C4.36028 30.8183 0.352673 26.7392 0.159145 21.7317C-0.0559783 16.18 4.38271 11.5958 9.86794 11.5958C14.2626 11.5958 17.9861 14.5375 19.1822 18.5625C19.6349 20.085 19.3217 21.7517 18.2827 22.9492C18.2436 22.9942 18.2038 23.0383 18.1631 23.0825C15.6962 25.8258 10.9543 26.8992 7.39609 26.3967C5.65849 26.1425 3.97489 25.3992 2.71072 24.1542C3.93917 25.4517 5.61614 26.2675 7.36121 26.605C11.0075 27.2975 16.1098 26.3892 18.8433 23.7367L18.8425 23.7375Z" fill="#1DA4DF"/>
<path d="M2.39427 21.3458C2.19326 17.2925 5.36862 13.7808 9.33553 13.3775C9.62042 13.3483 9.86877 13.5725 9.86877 13.86C9.86877 14.1208 9.66278 14.3383 9.4028 14.3442C8.64115 14.36 7.87784 14.5 7.1519 14.765C4.43088 15.7242 2.48314 18.4433 2.39344 21.3458H2.39427Z" fill="#F3F4F6"/>
<path d="M11.2534 13.3417H10.6786C10.5575 13.3417 10.4593 13.4402 10.4593 13.5617V14.1383C10.4593 14.2598 10.5575 14.3583 10.6786 14.3583H11.2534C11.3745 14.3583 11.4726 14.2598 11.4726 14.1383V13.5617C11.4726 13.4402 11.3745 13.3417 11.2534 13.3417Z" fill="#F3F4F6"/>
<path d="M32.8953 12.1791C31.0331 12.1791 29.5513 12.7133 28.4516 13.7808C27.3511 14.8491 26.8012 16.2441 26.8012 17.9666V25.5375C26.8012 27.285 27.3511 28.68 28.4516 29.7233C29.5521 30.7666 31.0331 31.2883 32.8953 31.2883C34.6603 31.2883 36.0573 30.8458 37.0856 29.96C38.1131 29.0741 38.7119 27.8433 38.8813 26.2658C38.9054 26.1691 38.8872 26.0841 38.8265 26.0108C38.7659 25.9383 38.6754 25.9016 38.5549 25.9016L35.8705 25.7558C35.6761 25.7558 35.544 25.8533 35.4709 26.0466C35.3497 26.7016 35.0598 27.2358 34.6005 27.6483C34.1412 28.0608 33.5722 28.2675 32.8953 28.2675C32.1212 28.2675 31.4924 27.9891 31.009 27.43C30.5248 26.8716 30.2831 26.1558 30.2831 25.2825V23.3175C30.2831 23.2208 30.3312 23.1716 30.4284 23.1716H38.6272C38.8689 23.1716 38.9902 23.0508 38.9902 22.8075V17.9666C38.9902 16.2441 38.4461 14.8491 37.358 13.7808C36.27 12.7133 34.7824 12.1791 32.8961 12.1791H32.8953ZM35.5432 20.1141C35.5432 20.2116 35.4942 20.26 35.3979 20.26H30.4276C30.3304 20.26 30.2822 20.2116 30.2822 20.1141V18.185C30.2822 17.3116 30.5239 16.5958 31.0082 16.0375C31.4916 15.4791 32.1203 15.2 32.8944 15.2C33.6686 15.2 34.333 15.4791 34.8173 16.0375C35.3007 16.5958 35.5432 17.3116 35.5432 18.185V20.1141Z" fill="#000"/>
<path d="M42.472 5.51831H45.2296C45.4297 5.51831 45.5925 5.68164 45.5925 5.88248V30.6325C45.5925 30.8333 45.4297 30.9966 45.2296 30.9966H42.4728C42.2727 30.9966 42.1099 30.8333 42.1099 30.6325V5.88248C42.1099 5.68164 42.2727 5.51831 42.4728 5.51831H42.472Z" fill="#000"/>
<path d="M54.9516 12.1791C53.0895 12.1791 51.6077 12.7133 50.508 13.7808C49.4074 14.8491 48.8576 16.2441 48.8576 17.9666V25.5375C48.8576 27.285 49.4074 28.68 50.508 29.7233C51.6085 30.7666 53.0895 31.2883 54.9516 31.2883C56.7167 31.2883 58.1137 30.8458 59.142 29.96C60.1694 29.0741 60.7683 27.8433 60.9377 26.2658C60.9618 26.1691 60.9435 26.0841 60.8829 26.0108C60.8223 25.9383 60.7317 25.9016 60.6113 25.9016L57.9268 25.7558C57.7325 25.7558 57.6004 25.8533 57.5273 26.0466C57.406 26.7016 57.1162 27.2358 56.6568 27.6483C56.1975 28.0608 55.6286 28.2675 54.9516 28.2675C54.1775 28.2675 53.5488 27.9891 53.0654 27.43C52.5811 26.8716 52.3394 26.1558 52.3394 25.2825V23.3175C52.3394 23.2208 52.3876 23.1716 52.4848 23.1716H60.6836C60.9253 23.1716 61.0465 23.0508 61.0465 22.8075V17.9666C61.0465 16.2441 60.5025 14.8491 59.4144 13.7808C58.3263 12.7133 56.8388 12.1791 54.9525 12.1791H54.9516ZM57.5996 20.1141C57.5996 20.2116 57.5506 20.26 57.4542 20.26H52.484C52.3868 20.26 52.3386 20.2116 52.3386 20.1141V18.185C52.3386 17.3116 52.5803 16.5958 53.0645 16.0375C53.5479 15.4791 54.1767 15.2 54.9508 15.2C55.7249 15.2 56.3894 15.4791 56.8736 16.0375C57.357 16.5958 57.5996 17.3116 57.5996 18.185V20.1141Z" fill="#000"/>
<path d="M79.8378 12.2158C79.0396 12.2158 78.2655 12.3975 77.5163 12.7616C76.7663 13.1258 76.15 13.7208 75.6658 14.545C75.6417 14.6425 75.6052 14.6966 75.557 14.7091C75.508 14.7216 75.4723 14.7033 75.4482 14.6541C74.65 13.0283 73.3318 12.2158 71.4937 12.2158C70.8641 12.2158 70.2362 12.3491 69.6074 12.6158C68.9779 12.8833 68.4222 13.2833 67.9388 13.8166C67.8898 13.8658 67.8483 13.8775 67.8117 13.8533C67.7752 13.83 67.7569 13.7933 67.7569 13.7441V12.8341C67.7569 12.5916 67.6356 12.47 67.3939 12.47H64.6729C64.4312 12.47 64.3099 12.5916 64.3099 12.8341V30.6325C64.3099 30.875 64.4304 30.9966 64.6729 30.9966H67.3939C67.6356 30.9966 67.7569 30.8758 67.7569 30.6325V18.585C67.7569 17.5416 67.987 16.7233 68.4463 16.1283C68.9056 15.5341 69.5219 15.2366 70.2968 15.2366C71.0228 15.2366 71.6025 15.5341 72.0378 16.1283C72.473 16.7233 72.6906 17.5541 72.6906 18.6216V30.6325C72.6906 30.875 72.811 30.9966 73.0536 30.9966H75.7746C76.0163 30.9966 76.1376 30.8758 76.1376 30.6325V18.585C76.1376 17.5416 76.3676 16.7233 76.8269 16.1283C77.2863 15.5341 77.9026 15.2366 78.6775 15.2366C79.4034 15.2366 79.9832 15.5341 80.4184 16.1283C80.8537 16.7233 81.0713 17.5541 81.0713 18.6216V30.6325C81.0713 30.875 81.1917 30.9966 81.4342 30.9966H84.1553C84.397 30.9966 84.5182 30.8758 84.5182 30.6325V18.3666C84.5182 16.4258 84.1129 14.915 83.3031 13.835C82.4924 12.7558 81.3379 12.215 79.8387 12.215L79.8378 12.2158Z" fill="#000"/>
<path d="M93.9131 12.1791C92.0509 12.1791 90.5691 12.7133 89.4694 13.7808C88.3689 14.8491 87.819 16.2441 87.819 17.9666V25.5375C87.819 27.285 88.3689 28.68 89.4694 29.7233C90.5699 30.7666 92.0509 31.2883 93.9131 31.2883C95.6781 31.2883 97.0751 30.8458 98.1034 29.96C99.1308 29.0741 99.7297 27.8433 99.8991 26.2658C99.9232 26.1691 99.9049 26.0841 99.8443 26.0108C99.7837 25.9383 99.6932 25.9016 99.5727 25.9016L96.8882 25.7558C96.6939 25.7558 96.5618 25.8533 96.4887 26.0466C96.3675 26.7016 96.0776 27.2358 95.6183 27.6483C95.159 28.0608 94.59 28.2675 93.9131 28.2675C93.1389 28.2675 92.5102 27.9891 92.0268 27.43C91.5425 26.8716 91.3008 26.1558 91.3008 25.2825V23.3175C91.3008 23.2208 91.349 23.1716 91.4462 23.1716H99.645C99.8867 23.1716 100.008 23.0508 100.008 22.8075V17.9666C100.008 16.2441 99.4639 14.8491 98.3758 13.7808C97.2878 12.7133 95.8002 12.1791 93.9139 12.1791H93.9131ZM96.561 20.1141C96.561 20.2116 96.512 20.26 96.4156 20.26H91.4454C91.3482 20.26 91.3 20.2116 91.3 20.1141V18.185C91.3 17.3116 91.5417 16.5958 92.026 16.0375C92.5094 15.4791 93.1381 15.2 93.9122 15.2C94.6863 15.2 95.3508 15.4791 95.8351 16.0375C96.3185 16.5958 96.561 17.3116 96.561 18.185V20.1141Z" fill="#000"/>
<path d="M110.637 12.2158C109.065 12.2158 107.844 12.75 106.973 13.8175C106.924 13.8908 106.876 13.9208 106.828 13.9083C106.779 13.8967 106.755 13.8667 106.755 13.8175V12.835C106.755 12.5925 106.634 12.4708 106.392 12.4708H103.634C103.393 12.4708 103.271 12.5925 103.271 12.835V30.6333C103.271 30.8758 103.392 30.9975 103.634 30.9975H106.392C106.634 30.9975 106.755 30.8767 106.755 30.6333V18.5858C106.779 18.5858 106.791 18.5133 106.791 18.3675C106.84 17.3733 107.087 16.6025 107.535 16.0567C107.982 15.5108 108.605 15.2375 109.403 15.2375C110.201 15.2375 110.782 15.5167 111.217 16.075C111.652 16.6333 111.87 17.4217 111.87 18.4408V30.6333C111.87 30.8758 111.99 30.9975 112.233 30.9975H114.99C115.232 30.9975 115.353 30.8767 115.353 30.6333V18.1492C115.353 16.2567 114.948 14.795 114.138 13.7633C113.327 12.7325 112.161 12.2167 110.637 12.2167V12.2158Z" fill="#000"/>
<path d="M125.8 12.47H123.261C123.164 12.47 123.116 12.4216 123.116 12.3241V8.21164C123.116 7.96914 122.995 7.84747 122.753 7.84747H120.105C119.863 7.84747 119.742 7.96914 119.742 8.21164V12.3241C119.742 12.4216 119.693 12.47 119.597 12.47H118.182C117.94 12.47 117.819 12.5916 117.819 12.8341V14.6541C117.819 14.8966 117.94 15.0183 118.182 15.0183H119.597C119.693 15.0183 119.742 15.0675 119.742 15.1641V26.6291C119.742 28.3283 120.135 29.4808 120.921 30.0866C121.707 30.6933 122.874 30.9966 124.422 30.9966H125.547C125.789 30.9966 125.91 30.8758 125.91 30.6325V28.3033C125.91 28.0608 125.789 27.9391 125.547 27.9391H125.221C124.495 27.9633 123.963 27.7875 123.624 27.4116C123.285 27.0358 123.117 26.3625 123.117 25.3916V15.1641C123.117 15.0675 123.165 15.0183 123.262 15.0183H125.801C126.043 15.0183 126.164 14.8975 126.164 14.6541V12.8341C126.164 12.5916 126.043 12.47 125.801 12.47H125.8Z" fill="#000"/>
<path d="M21.4373 2.97748H20.8317C20.8085 2.97748 20.7969 2.98914 20.7969 3.01248V5.45081C20.7969 5.68248 20.8367 5.84248 20.9181 5.93248C20.9987 6.02248 21.1258 6.06415 21.2985 6.05831H21.3766C21.4339 6.05831 21.463 6.08748 21.463 6.14498V6.70081C21.463 6.75831 21.4339 6.78748 21.3766 6.78748H21.1083C20.7396 6.78748 20.4613 6.71498 20.2736 6.57081C20.0859 6.42664 19.9929 6.15164 19.9929 5.74664V3.01331C19.9929 2.98998 19.9812 2.97831 19.958 2.97831H19.6207C19.5626 2.97831 19.5344 2.94914 19.5344 2.89164V2.45748C19.5344 2.39998 19.5634 2.37081 19.6207 2.37081H19.958C19.9812 2.37081 19.9929 2.35914 19.9929 2.33581V1.35498C19.9929 1.29748 20.0219 1.26831 20.0792 1.26831H20.7105C20.7678 1.26831 20.7969 1.29748 20.7969 1.35498V2.33581C20.7969 2.35914 20.8085 2.37081 20.8317 2.37081H21.4373C21.4946 2.37081 21.5236 2.39998 21.5236 2.45748V2.89164C21.5236 2.94914 21.4946 2.97831 21.4373 2.97831V2.97748Z" fill="#1DA4DF"/>
<path d="M24.7712 2.6775C24.9639 2.92334 25.0611 3.27167 25.0611 3.72334V6.7C25.0611 6.7575 25.0321 6.78667 24.9747 6.78667H24.3169C24.2596 6.78667 24.2305 6.7575 24.2305 6.7V3.79333C24.2305 3.55 24.179 3.3625 24.0752 3.22917C23.9714 3.09584 23.8269 3.02917 23.6425 3.02917C23.4581 3.02917 23.3036 3.09417 23.1973 3.22417C23.091 3.35417 23.0312 3.53833 23.0195 3.775C23.0195 3.81 23.017 3.82667 23.0112 3.82667V6.69917C23.0112 6.75667 22.9822 6.78584 22.9248 6.78584H22.2678C22.2097 6.78584 22.1815 6.75667 22.1815 6.69917V0.798335C22.1815 0.740835 22.2105 0.71167 22.2678 0.71167H22.9248C22.9822 0.71167 23.0112 0.740835 23.0112 0.798335V2.69C23.0112 2.70167 23.017 2.70917 23.0287 2.71167C23.0403 2.715 23.0519 2.7075 23.0635 2.69C23.2712 2.43584 23.5619 2.30834 23.9373 2.30834C24.3128 2.30834 24.5786 2.43167 24.7721 2.6775H24.7712Z" fill="#1DA4DF"/>
</svg>
