<svg width="127" height="32" viewBox="0 0 127 32" fill="none" xmlns="http://www.w3.org/2000/svg">
<g clipPath="url(#clip0_213_4)">
<path d="M17.0086 7.95445L17.012 7.95028C17.1083 7.83528 17.2935 7.92278 17.2669 8.07028C16.7786 10.8253 14.4421 13.017 11.4844 13.147C8.33313 13.2853 5.56809 10.9645 5.14449 7.82945C4.67437 4.35278 7.18774 1.20194 10.6355 0.868612C13.398 0.601112 15.9156 2.22445 16.9106 4.68195C17.2869 5.61111 17.1914 6.67778 16.6099 7.49361C16.5884 7.52445 16.5659 7.55445 16.5427 7.58444C15.1581 9.45861 12.2419 10.422 9.97521 10.322C8.8672 10.2678 7.76417 9.90278 6.89454 9.19695C7.74507 9.93778 8.84809 10.3487 9.96524 10.4553C12.2992 10.6687 15.4513 9.78778 17.0086 7.95445Z" fill="#E48747"/>
<path d="M6.52551 7.45061C6.15424 4.91478 7.93835 2.51478 10.4077 2.01978C10.5855 1.98394 10.7549 2.10978 10.7723 2.29061C10.7881 2.45478 10.6718 2.60394 10.5091 2.62311C10.0315 2.67978 9.55966 2.81394 9.11945 3.02478C7.4674 3.79311 6.40674 5.62061 6.52551 7.45061Z" fill="#F3F4F6"/>
<path d="M11.6145 1.87955L11.2516 1.91468C11.1758 1.92202 11.1203 1.98961 11.1276 2.06566L11.1626 2.4298C11.1699 2.50585 11.2373 2.56155 11.3131 2.55421L11.676 2.51908C11.7518 2.51175 11.8073 2.44415 11.8 2.36811L11.765 2.00397C11.7577 1.92792 11.6903 1.87222 11.6145 1.87955Z" fill="#F3F4F6"/>
<path d="M18.8432 23.7374L18.849 23.7316C19.0176 23.5649 19.2967 23.7316 19.2327 23.9599C18.0458 28.2282 14.0307 31.3266 9.34868 31.0807C4.36098 30.8182 0.353375 26.7391 0.159847 21.7316C-0.0552763 16.1799 4.38341 11.5957 9.86864 11.5957C14.2633 11.5957 17.9868 14.5374 19.1829 18.5624C19.6356 20.0849 19.3224 21.7516 18.2834 22.9491C18.2443 22.9941 18.2045 23.0382 18.1638 23.0824C15.6969 25.8257 10.955 26.8991 7.39679 26.3966C5.65919 26.1424 3.97559 25.3991 2.71142 24.1541C3.93987 25.4516 5.61684 26.2674 7.36191 26.6049C11.0082 27.2974 16.1105 26.3891 18.844 23.7366L18.8432 23.7374Z" fill="#1DA4DF"/>
<path d="M2.39381 21.3459C2.1928 17.2926 5.36816 13.7809 9.33507 13.3776C9.61996 13.3484 9.86831 13.5726 9.86831 13.8601C9.86831 14.1209 9.66232 14.3384 9.40234 14.3443C8.64069 14.3601 7.87738 14.5001 7.15144 14.7651C4.43042 15.7243 2.48351 18.4434 2.39381 21.3459Z" fill="#F3F4F6"/>
<path d="M11.2531 13.3418H10.6783C10.5572 13.3418 10.459 13.4403 10.459 13.5618V14.1384C10.459 14.2599 10.5572 14.3584 10.6783 14.3584H11.2531C11.3742 14.3584 11.4723 14.2599 11.4723 14.1384V13.5618C11.4723 13.4403 11.3742 13.3418 11.2531 13.3418Z" fill="white"/>
<path d="M32.8949 12.1797C31.0327 12.1797 29.5509 12.7139 28.4512 13.7814C27.3507 14.8497 26.8008 16.2447 26.8008 17.9672V25.5381C26.8008 27.2856 27.3507 28.6806 28.4512 29.7239C29.5517 30.7672 31.0327 31.2889 32.8949 31.2889C34.6599 31.2889 36.0569 30.8464 37.0852 29.9606C38.1127 29.0747 38.7115 27.8439 38.8809 26.2664C38.905 26.1697 38.8868 26.0847 38.8261 26.0114C38.7655 25.9389 38.675 25.9022 38.5545 25.9022L35.8701 25.7564C35.6757 25.7564 35.5436 25.8539 35.4705 26.0472C35.3493 26.7022 35.0594 27.2364 34.6001 27.6489C34.1408 28.0614 33.5718 28.2681 32.8949 28.2681C32.1208 28.2681 31.492 27.9897 31.0086 27.4306C30.5244 26.8722 30.2827 26.1564 30.2827 25.2831V23.3181C30.2827 23.2214 30.3308 23.1722 30.428 23.1722H38.6268C38.8685 23.1722 38.9898 23.0514 38.9898 22.8081V17.9672C38.9898 16.2447 38.4457 14.8497 37.3576 13.7814C36.2696 12.7139 34.7812 12.1797 32.8949 12.1797ZM35.5428 20.1147C35.5428 20.2122 35.4938 20.2606 35.3975 20.2606H30.4272C30.33 20.2606 30.2818 20.2122 30.2818 20.1147V18.1856C30.2818 17.3122 30.5235 16.5964 31.0078 16.0381C31.4912 15.4797 32.1199 15.2006 32.894 15.2006C33.6682 15.2006 34.3326 15.4797 34.8169 16.0381C35.3003 16.5964 35.5428 17.3122 35.5428 18.1856V20.1147Z" fill="white"/>
<path d="M42.4715 5.51758H45.2291C45.4292 5.51758 45.592 5.68091 45.592 5.88175V30.6318C45.592 30.8326 45.4292 30.9959 45.2291 30.9959H42.4723C42.2722 30.9959 42.1094 30.8326 42.1094 30.6318V5.88175C42.1094 5.68091 42.2714 5.51758 42.4715 5.51758Z" fill="white"/>
<path d="M54.9514 12.1797C53.0893 12.1797 51.6075 12.7139 50.5078 13.7814C49.4072 14.8497 48.8574 16.2447 48.8574 17.9672V25.5381C48.8574 27.2856 49.4072 28.6806 50.5078 29.7239C51.6083 30.7672 53.0893 31.2889 54.9514 31.2889C56.7165 31.2889 58.1135 30.8464 59.1418 29.9606C60.1692 29.0747 60.7681 27.8439 60.9375 26.2664C60.9616 26.1697 60.9433 26.0847 60.8827 26.0114C60.8221 25.9389 60.7315 25.9022 60.6111 25.9022L57.9266 25.7564C57.7323 25.7564 57.6002 25.8539 57.5271 26.0472C57.4058 26.7022 57.116 27.2364 56.6566 27.6489C56.1973 28.0614 55.6284 28.2681 54.9514 28.2681C54.1773 28.2681 53.5486 27.9897 53.0652 27.4306C52.5809 26.8722 52.3392 26.1564 52.3392 25.2831V23.3181C52.3392 23.2214 52.3874 23.1722 52.4846 23.1722H60.6834C60.9251 23.1722 61.0463 23.0514 61.0463 22.8081V17.9672C61.0463 16.2447 60.5023 14.8497 59.4142 13.7814C58.3261 12.7139 56.8377 12.1797 54.9514 12.1797ZM57.5994 20.1147C57.5994 20.2122 57.5504 20.2606 57.454 20.2606H52.4838C52.3866 20.2606 52.3384 20.2122 52.3384 20.1147V18.1856C52.3384 17.3122 52.5801 16.5964 53.0643 16.0381C53.5477 15.4797 54.1765 15.2006 54.9506 15.2006C55.7247 15.2006 56.3892 15.4797 56.8734 16.0381C57.3568 16.5964 57.5994 17.3122 57.5994 18.1856V20.1147Z" fill="white"/>
<path d="M79.8384 12.2156C79.0402 12.2156 78.2661 12.3973 77.5169 12.7614C76.7669 13.1256 76.1507 13.7206 75.6665 14.5448C75.6424 14.6423 75.6058 14.6964 75.5576 14.7089C75.5086 14.7214 75.4729 14.7031 75.4488 14.6539C74.6506 13.0281 73.3324 12.2156 71.4943 12.2156C70.8647 12.2156 70.2368 12.3489 69.608 12.6156C68.9785 12.8831 68.4228 13.2831 67.9394 13.8164C67.8904 13.8656 67.8489 13.8773 67.8123 13.8531C67.7758 13.8298 67.7575 13.7931 67.7575 13.7439V12.8339C67.7575 12.5914 67.6362 12.4698 67.3945 12.4698H64.6735C64.4318 12.4698 64.3105 12.5914 64.3105 12.8339V30.6323C64.3105 30.8748 64.431 30.9964 64.6735 30.9964H67.3945C67.6362 30.9964 67.7575 30.8756 67.7575 30.6323V18.5848C67.7575 17.5414 67.9876 16.7231 68.4469 16.1281C68.9062 15.5339 69.5225 15.2364 70.2974 15.2364C71.0234 15.2364 71.6032 15.5339 72.0385 16.1281C72.4737 16.7231 72.6912 17.5539 72.6912 18.6214V30.6323C72.6912 30.8748 72.8116 30.9964 73.0542 30.9964H75.7752C76.0169 30.9964 76.1383 30.8756 76.1383 30.6323V18.5848C76.1383 17.5414 76.3682 16.7231 76.8275 16.1281C77.2869 15.5339 77.9032 15.2364 78.6781 15.2364C79.404 15.2364 79.9839 15.5339 80.4191 16.1281C80.8544 16.7231 81.0719 17.5539 81.0719 18.6214V30.6323C81.0719 30.8748 81.1923 30.9964 81.4348 30.9964H84.1559C84.3976 30.9964 84.5189 30.8756 84.5189 30.6323V18.3664C84.5189 16.4256 84.1135 14.9148 83.3037 13.8348C82.493 12.7556 81.3385 12.2148 79.8393 12.2148L79.8384 12.2156Z" fill="white"/>
<path d="M93.9125 12.1797C92.0503 12.1797 90.5685 12.7139 89.4688 13.7814C88.3683 14.8497 87.8184 16.2447 87.8184 17.9672V25.5381C87.8184 27.2856 88.3683 28.6806 89.4688 29.7239C90.5693 30.7672 92.0503 31.2889 93.9125 31.2889C95.6775 31.2889 97.0745 30.8464 98.1028 29.9606C99.1302 29.0747 99.7291 27.8439 99.8985 26.2664C99.9226 26.1697 99.9043 26.0847 99.8437 26.0114C99.7831 25.9389 99.6926 25.9022 99.5721 25.9022L96.8876 25.7564C96.6933 25.7564 96.5612 25.8539 96.4881 26.0472C96.3669 26.7022 96.077 27.2364 95.6177 27.6489C95.1584 28.0614 94.5894 28.2681 93.9125 28.2681C93.1383 28.2681 92.5096 27.9897 92.0262 27.4306C91.5419 26.8722 91.3002 26.1564 91.3002 25.2831V23.3181C91.3002 23.2214 91.3484 23.1722 91.4456 23.1722H99.6444C99.8861 23.1722 100.007 23.0514 100.007 22.8081V17.9672C100.007 16.2447 99.4633 14.8497 98.3752 13.7814C97.2872 12.7139 95.7988 12.1797 93.9125 12.1797ZM96.5604 20.1147C96.5604 20.2122 96.5114 20.2606 96.415 20.2606H91.4448C91.3476 20.2606 91.2994 20.2122 91.2994 20.1147V18.1856C91.2994 17.3122 91.5411 16.5964 92.0254 16.0381C92.5088 15.4797 93.1375 15.2006 93.9116 15.2006C94.6857 15.2006 95.3502 15.4797 95.8345 16.0381C96.3179 16.5964 96.5604 17.3122 96.5604 18.1856V20.1147Z" fill="white"/>
<path d="M110.637 12.2148C109.065 12.2148 107.844 12.749 106.973 13.8165C106.924 13.8898 106.876 13.9198 106.828 13.9073C106.779 13.8957 106.755 13.8657 106.755 13.8165V12.834C106.755 12.5915 106.634 12.4698 106.392 12.4698H103.634C103.393 12.4698 103.271 12.5915 103.271 12.834V30.6323C103.271 30.8748 103.392 30.9965 103.634 30.9965H106.392C106.634 30.9965 106.755 30.8757 106.755 30.6323V18.5848C106.779 18.5848 106.791 18.5123 106.791 18.3665C106.84 17.3723 107.087 16.6015 107.535 16.0557C107.982 15.5098 108.605 15.2365 109.403 15.2365C110.201 15.2365 110.782 15.5157 111.217 16.074C111.652 16.6323 111.87 17.4207 111.87 18.4398V30.6323C111.87 30.8748 111.99 30.9965 112.233 30.9965H114.99C115.232 30.9965 115.353 30.8757 115.353 30.6323V18.1482C115.353 16.2557 114.948 14.794 114.138 13.7623C113.327 12.7315 112.161 12.2148 110.637 12.2148Z" fill="white"/>
<path d="M125.799 12.4702H123.26C123.163 12.4702 123.115 12.4218 123.115 12.3243V8.21183C123.115 7.96933 122.994 7.84766 122.752 7.84766H120.104C119.862 7.84766 119.741 7.96933 119.741 8.21183V12.3243C119.741 12.4218 119.692 12.4702 119.596 12.4702H118.181C117.939 12.4702 117.818 12.5918 117.818 12.8343V14.6543C117.818 14.8968 117.939 15.0185 118.181 15.0185H119.596C119.692 15.0185 119.741 15.0677 119.741 15.1643V26.6293C119.741 28.3285 120.134 29.481 120.92 30.0868C121.706 30.6935 122.873 30.9968 124.421 30.9968H125.546C125.788 30.9968 125.909 30.876 125.909 30.6327V28.3035C125.909 28.061 125.788 27.9393 125.546 27.9393H125.22C124.494 27.9635 123.962 27.7877 123.623 27.4118C123.284 27.036 123.116 26.3627 123.116 25.3918V15.1643C123.116 15.0677 123.164 15.0185 123.261 15.0185H125.8C126.042 15.0185 126.163 14.8977 126.163 14.6543V12.8343C126.163 12.5918 126.041 12.4702 125.799 12.4702Z" fill="white"/>
<path d="M21.4381 2.97675H20.8325C20.8093 2.97675 20.7977 2.98841 20.7977 3.01175V5.45008C20.7977 5.68175 20.8375 5.84175 20.9189 5.93175C20.9995 6.02175 21.1266 6.06342 21.2993 6.05758H21.3774C21.4347 6.05758 21.4638 6.08675 21.4638 6.14425V6.70008C21.4638 6.75758 21.4347 6.78675 21.3774 6.78675H21.1091C20.7404 6.78675 20.4621 6.71425 20.2744 6.57008C20.0867 6.42591 19.9937 6.15091 19.9937 5.74591V3.01258C19.9937 2.98925 19.982 2.97758 19.9588 2.97758H19.6215C19.5634 2.97758 19.5352 2.94841 19.5352 2.89091V2.45675C19.5352 2.39925 19.5642 2.37008 19.6215 2.37008H19.9588C19.982 2.37008 19.9937 2.35841 19.9937 2.33508V1.35425C19.9937 1.29675 20.0227 1.26758 20.08 1.26758H20.7113C20.7686 1.26758 20.7977 1.29675 20.7977 1.35425V2.33508C20.7977 2.35841 20.8093 2.37008 20.8325 2.37008H21.4381C21.4954 2.37008 21.5244 2.39925 21.5244 2.45675V2.89091C21.5244 2.94841 21.4954 2.97675 21.4381 2.97675Z" fill="#1DA4DF"/>
<path d="M24.7713 2.67677C24.964 2.92261 25.0612 3.27094 25.0612 3.72261V6.69927C25.0612 6.75677 25.0322 6.78594 24.9748 6.78594H24.317C24.2597 6.78594 24.2306 6.75677 24.2306 6.69927V3.7926C24.2306 3.54927 24.1791 3.36177 24.0753 3.22844C23.9715 3.09511 23.827 3.02844 23.6426 3.02844C23.4582 3.02844 23.3037 3.09344 23.1974 3.22344C23.0911 3.35344 23.0313 3.5376 23.0196 3.77427C23.0196 3.80927 23.0171 3.82594 23.0113 3.82594V6.69844C23.0113 6.75594 22.9823 6.78511 22.9249 6.78511H22.2679C22.2098 6.78511 22.1816 6.75594 22.1816 6.69844V0.797603C22.1816 0.740103 22.2106 0.710938 22.2679 0.710938H22.9249C22.9823 0.710938 23.0113 0.740103 23.0113 0.797603V2.68927C23.0113 2.70094 23.0171 2.70844 23.0288 2.71094C23.0404 2.71427 23.052 2.70677 23.0636 2.68927C23.2713 2.43511 23.562 2.30761 23.9374 2.30761C24.3129 2.30761 24.5778 2.43094 24.7713 2.67677Z" fill="#1DA4DF"/>
</g>
<defs>
<clipPath id="clip0_213_4">
<rect width="127" height="32" fill="white"/>
</clipPath>
</defs>
</svg>
