<svg width="3852" height="1079" viewBox="0 0 3852 1079" fill="none" xmlns="http://www.w3.org/2000/svg">
<path d="M816.162 37.6928C817.296 38.0725 818.43 38.4523 819.598 38.8436C845.779 47.6336 870.788 57.4598 895.117 70.3414C900.278 73.0711 905.523 75.5386 910.852 77.9516C924.57 84.5092 937.147 93.038 949.861 101.23C952.925 103.199 955.999 105.147 959.088 107.079C979.34 119.854 998.331 133.797 1015.84 149.928C1019.44 153.222 1023.06 156.369 1026.84 159.456C1043.06 173.095 1057.85 188.201 1070.98 204.648C1072.65 206.701 1074.33 208.752 1076.01 210.803C1087.23 224.639 1097.35 238.8 1106.69 253.882C1108.33 256.505 1110.04 259.09 1111.76 261.669C1141.73 306.894 1158.57 357.364 1169.65 409.602C1170.46 413.3 1170.46 413.3 1172.09 417.784C1173.99 436.344 1173.99 436.344 1170.02 443.741C1165.94 448.342 1162.27 452.079 1155.86 452.948C1154 453.028 1154 453.028 1152.11 453.109C1150.89 453.186 1149.67 453.263 1148.42 453.343C1142.47 452.13 1138.55 448.923 1134.58 444.623C1132.79 440.371 1131.6 436.836 1130.59 432.43C1130.29 431.26 1129.99 430.09 1129.68 428.884C1128.73 425.158 1127.83 421.423 1126.94 417.685C1126.32 415.218 1125.7 412.752 1125.07 410.287C1123.58 404.379 1122.13 398.464 1120.68 392.546C1117.67 380.235 1114.54 368.124 1110.12 356.211C1109.71 355.104 1109.3 353.996 1108.87 352.855C1102.29 335.471 1094.66 318.86 1085.66 302.533C1085 301.343 1084.35 300.153 1083.67 298.926C1075.85 284.805 1067.79 271.222 1057.93 258.327C1056.66 256.581 1055.39 254.831 1054.12 253.079C1028.07 217.086 996.079 182.634 960.082 155.706C958.347 154.361 956.614 153.012 954.884 151.661C889.618 100.922 791.664 37.035 705.674 35.7193C749.972 42.975 803.367 75.254 839.738 98.6052C842.769 100.516 845.841 102.341 848.938 104.149C884.287 124.85 917.214 149.844 946.029 178.512C949.416 181.713 952.84 184.717 956.419 187.707C976.568 204.639 994.926 223.245 1010.64 244.118C1012.11 246.027 1012.11 246.027 1013.62 247.975C1021.54 258.33 1028.7 268.961 1035.51 280.035C1036.55 281.734 1037.6 283.433 1038.68 285.184C1066.64 331.053 1066.64 331.053 1074.33 355.958C1075.76 360.587 1077.44 364.97 1079.34 369.433C1088.48 391.141 1093.7 413.672 1096.43 436.92C1096.8 441.364 1096.8 441.364 1098.7 444.623C1108.08 500.271 1100.53 563.036 1084.02 616.71C1083.7 617.785 1083.37 618.861 1083.03 619.97C1079.16 632.451 1074.29 644.291 1068.45 656.037C1066.25 660.57 1064.37 665.125 1062.52 669.796C1050.29 698.589 1030.69 725.198 1010.64 749.327C1009.93 750.176 1009.23 751.026 1008.5 751.902C998.145 764.256 986.947 775.731 975.371 787.02C974.107 788.259 972.842 789.497 971.54 790.774C962.778 799.21 953.55 806.749 943.774 814.057C942.724 814.859 941.675 815.661 940.594 816.488C909.833 839.956 875.8 858.349 841.032 875.628C839.755 876.269 838.477 876.91 837.161 877.57C801.965 894.921 761.465 903.897 723.002 911.54C714.789 913.208 707.051 915.523 699.151 918.255C815.807 921.535 926.353 883.509 1015.53 810.899C1016.6 810.061 1017.67 809.222 1018.77 808.358C1024.85 803.51 1030 798.268 1035.09 792.453C1038.22 788.953 1041.46 785.57 1044.73 782.196C1066.11 760.059 1083.16 735.084 1099.36 709.241C1103.5 702.639 1106.83 698.738 1111.32 692.923C1093.98 804.873 1049.8 909.737 954.68 981.505C951.079 984.151 947.433 986.73 943.774 989.3C941.958 990.613 940.142 991.927 938.327 993.241C924.577 1003.09 910.188 1011.86 895.452 1020.25C892.896 1021.71 890.347 1023.18 887.806 1024.66C864.646 1038.09 840.48 1047.27 814.939 1055.61C813.441 1056.1 811.944 1056.6 810.4 1057.11C790.697 1063.53 770.915 1067.61 750.373 1070.59C746.743 1071.12 743.115 1071.66 739.49 1072.22C697.501 1078.57 655.832 1078.55 613.421 1078.35C466.123 1077.75 286.782 1021.92 178.529 925.154L181.791 921.206C181.791 921.206 209.592 930.285 220.192 914.949C226.429 905.925 227.454 895.946 222.561 884.105L225.823 880.158C319.68 970.079 512.925 1042.04 653.488 1012.98C532.768 1013.64 419.112 991.775 315.908 924.571C314.483 923.681 313.057 922.792 311.589 921.876C287.265 906.554 264.115 889.655 242.521 870.892C241.296 869.84 241.296 869.84 240.047 868.767C227.464 857.931 215.513 846.48 203.585 834.975C202.13 833.574 200.675 832.173 199.176 830.729C190.998 822.793 183.165 814.695 175.657 806.163C174.051 804.379 172.444 802.597 170.835 800.816C125.445 750.169 85.6474 693.308 59.609 631.001C58.3588 628.046 57.0497 625.114 55.7346 622.186C51.1901 611.768 46.3907 603.722 40.2992 589.87C41.9586 601.602 44.4913 612.666 48.2813 623.925C49.4754 627.512 50.5938 631.123 51.6321 634.754C58.0175 656.493 67.9938 676.773 77.808 697.227C78.2753 698.204 78.7426 699.182 79.2241 700.189C99.6017 742.779 123.578 781.335 154.054 817.923C155.923 820.173 157.768 822.442 159.61 824.713C169.766 837.062 180.958 848.421 192.165 859.868C196.839 864.645 201.496 869.436 206.133 874.247C206.917 875.049 207.701 875.85 208.508 876.676C222.279 890.995 222.279 890.995 222.136 899.31C221.176 916.092 209.592 922.843 190.837 920.474C178.606 918.106 171.568 908.57 163.732 900.198C162.685 899.097 161.639 897.996 160.561 896.862C151.22 886.926 142.44 876.615 133.985 865.966C131.613 862.984 129.212 860.025 126.809 857.066C107.348 832.82 91.3886 806.335 76.3444 779.355C74.6923 776.425 72.9938 773.527 71.272 770.634C35.4866 708.991 17.4861 638.578 6.55508 569.329C-4.37545 500.08 -4.93864 374.95 38.5981 316.387C38.5583 330.825 38.6022 345.265 38.5838 359.704C38.5754 366.112 38.564 372.519 38.5453 378.927C38.374 438.145 48.4301 494 71.1725 549.27C72.6186 552.828 73.9983 556.396 75.3427 559.991C80.7542 574.03 87.7946 587.315 95.2374 600.428C96.0873 601.93 96.9371 603.432 97.8127 604.979C105.333 618.15 113.359 630.94 121.84 643.549C123.521 646.07 123.521 646.07 125.236 648.643C132.009 658.654 139.233 668.208 146.812 677.653C149.731 681.29 149.494 680.501 151.94 683.658C152.756 684.448 151.94 683.658 152.826 684.597C155.601 687.764 158.204 690.949 160.776 694.267C175.67 713.388 192.093 731.042 209.638 747.902C212.469 750.625 215.282 753.365 218.094 756.107C228.977 766.657 240.192 776.403 252.306 785.639C254.491 787.37 256.673 789.107 258.848 790.85C282.449 809.605 306.799 827.649 332.216 844.053C332.754 832.07 333.292 820.088 333.847 807.742C441.583 825.125 475.042 890.499 504.981 896.862C569.908 909.536 648.121 873.292 710.567 853.526C711.723 853.16 712.879 852.794 714.07 852.418C749.614 840.883 781.731 823.471 811.309 801.323C847.312 774.406 872.666 740.06 885.064 697.227C885.352 696.275 885.64 695.323 885.937 694.342C889.023 682.899 888.974 671.393 888.938 659.633C888.937 658.551 888.936 657.47 888.935 656.356C888.865 637.826 887.143 620.352 881.803 602.5C881.471 601.368 881.138 600.236 880.796 599.069C864.538 545.571 825.791 502.988 775.74 476.255C709.82 442.578 647.648 454.095 568.685 454.095C568.147 579.135 594.882 768.034 594.327 896.862C575.969 895.085 578.571 962.033 548.827 914.949C547.784 914.569 535.402 911.931 534.327 911.54C524.32 952.801 501.434 986.519 517.827 884.105C517.827 972.905 504.981 952.91 488.827 940.41C488.827 949.91 495.273 890.713 478.5 883.5C478.5 936.483 372.429 835.348 333.847 807.742C343.5 832.642 302.609 708.513 301.638 707.82C281.482 693.338 262.697 677.267 244.152 660.915C242.556 659.535 240.961 658.156 239.317 656.734C228.82 647.616 219.195 638.04 209.905 627.761C207.156 624.863 204.404 621.969 201.648 619.078C194.238 611.177 187.274 603.061 180.55 594.607C179.831 593.71 179.112 592.813 178.372 591.888C160.285 569.25 144.077 545.582 129.994 520.404C129.481 519.489 128.967 518.574 128.438 517.632C109.039 482.719 94.8557 444.664 85.4525 406.14C85.0368 404.451 84.6211 402.762 84.1928 401.022C74.4787 359.553 73.6418 305.566 85.9621 264.642C86.4259 263.088 86.8897 261.534 87.3676 259.933C106.575 197.324 144.829 149.801 203.77 117.387C258.633 88.8499 324.061 76.3829 385.931 76.4715C387.64 76.4721 387.64 76.4721 389.383 76.4728C429.002 76.5402 469.361 77.3889 508.345 84.6614C510.498 85.0402 512.651 85.4184 514.805 85.7961C576.167 97.0645 636.507 116.716 692.628 143.076C693.871 143.656 695.114 144.237 696.395 144.835C703.26 148.051 752.968 173.713 764.384 190.439C733.242 180.827 704.281 170.224 673.262 159.456C658.721 154.59 644.131 150.336 629.23 146.628C627.529 146.204 625.829 145.779 624.077 145.342C618.669 144.019 613.251 142.75 607.825 141.497C606.763 141.248 605.701 140.999 604.606 140.742C585.632 136.317 566.619 133.255 547.28 130.745C542.657 130.145 538.036 129.528 533.416 128.907C509.156 125.674 485.45 123.753 460.949 123.736C459.582 123.735 458.215 123.734 456.806 123.733C432.938 123.762 409.615 125.077 386.033 128.867C384.418 129.121 382.803 129.375 381.139 129.637C326.24 138.622 273.346 159.169 232.736 196.755C230.699 198.522 230.699 198.522 228.621 200.325C171.089 252.165 170.936 340.864 202.464 405.844C215.764 433.748 233.334 459.167 253.937 482.513C255.07 483.806 256.203 485.098 257.37 486.43C267.397 497.55 278.423 507.467 289.815 517.247C290.699 518.007 291.583 518.767 292.494 519.55C301.961 527.634 311.581 535.073 321.988 542C322.973 542.657 323.957 543.315 324.971 543.992C327.385 545.604 329.8 547.213 332.216 548.822C332.223 547.188 332.23 545.554 332.237 543.871C332.405 504.173 332.582 464.476 332.77 424.778C332.86 405.581 332.947 386.384 333.027 367.187C333.097 350.461 333.172 333.735 333.255 317.01C333.298 308.148 333.339 299.286 333.372 290.424C333.404 282.093 333.444 273.762 333.489 265.431C333.504 262.364 333.517 259.297 333.526 256.23C333.54 252.061 333.563 247.893 333.589 243.725C333.591 242.495 333.592 241.265 333.594 239.997C333.661 231.668 333.661 231.668 335.478 229.909C337.939 229.754 340.408 229.71 342.875 229.708C344.477 229.704 346.079 229.7 347.73 229.695C349.505 229.698 351.279 229.701 353.108 229.705C354.968 229.702 356.828 229.699 358.745 229.696C364.97 229.689 371.195 229.694 377.42 229.699C381.797 229.698 386.174 229.697 390.55 229.695C399.802 229.692 409.054 229.696 418.306 229.703C427.636 229.711 436.966 229.711 446.296 229.703C503.962 229.656 561.591 230.038 619.241 231.488C607.009 218.708 556.914 205.514 543.314 202.404C538.95 201.404 534.599 200.361 530.246 199.32C502.37 192.79 434.142 182.397 403.54 185.346C474.762 146.369 603.088 175.127 681.254 194.386C685.593 195.45 689.938 196.487 694.284 197.525C710.246 201.399 725.802 206.202 741.352 211.401C744.711 212.508 748.08 213.573 751.458 214.621C762.167 217.952 772.541 221.557 782.701 226.255C786.933 228.2 791.187 230.082 795.459 231.944C856.158 258.602 856.158 258.602 878.598 273.609C882.09 275.949 882.09 275.949 887.205 278.555C895.4 282.987 902.697 288.717 910.126 294.239C912.789 296.218 915.46 298.186 918.133 300.152C926.717 306.487 935.173 312.915 943.468 319.603C951.623 326.115 959.753 332.423 969.867 335.687C969.006 334.164 969.006 334.164 968.128 332.61C967.323 331.183 966.518 329.756 965.688 328.286C964.782 326.685 963.876 325.083 962.943 323.433C961.127 320.187 959.335 316.928 957.579 313.652C945.98 292.161 932.354 271.65 917.681 252.012C916.07 249.797 914.461 247.581 912.852 245.364C903.865 233.052 894.867 221.19 884.109 210.261C880.979 207.055 878.003 203.805 875.037 200.461C867.729 192.338 859.903 184.736 852.04 177.119C850.609 175.713 849.177 174.308 847.702 172.86C839.053 164.469 830.12 156.733 820.56 149.326C817.382 146.863 814.275 144.364 811.213 141.769C753.017 92.6406 629.23 30.0447 534.125 24.5001C625.327 8.00595 727.858 7.97209 816.162 37.6928Z" fill="url(#paint0_linear_155_165)"/>
<path d="M1276.92 123.74H1433.68V764H1276.92V123.74ZM2054.11 123.74V178.511H1751.45V389.571H2018.22V444.342H1751.45V764H1594.22V123.74H2054.11ZM2153.26 123.74H2306.25L2527.69 560.968L2745.83 123.74H2895.51V764H2738.75V346.603L2529.58 764H2469.14L2252.89 341.882V764H2153.26V123.74ZM3404.51 778.165C3352.89 778.165 3304.72 769.823 3260.03 753.14C3215.33 736.457 3176.61 713.163 3143.87 683.259C3111.14 653.04 3085.32 617.313 3066.44 576.077C3047.86 534.526 3038.58 489.041 3038.58 439.62C3038.58 391.144 3047.86 346.761 3066.44 306.469C3085.32 265.863 3111.14 231.08 3143.87 202.12C3176.61 173.16 3215.33 150.654 3260.03 134.6C3304.72 118.546 3352.89 110.519 3404.51 110.519C3456.13 110.519 3504.14 118.704 3548.52 135.072C3593.22 151.126 3631.94 173.632 3664.67 202.592C3697.73 231.552 3723.69 266.177 3742.58 306.469C3761.47 346.446 3770.91 390.358 3770.91 438.204C3770.91 472.2 3766.66 504.307 3758.16 534.526C3749.66 564.43 3737.54 591.973 3721.81 617.156C3706.07 642.338 3687.18 664.844 3665.15 684.676C3643.11 704.507 3618.4 721.347 3591.02 735.198C3563.94 749.048 3534.67 759.593 3503.19 766.833C3471.71 774.387 3438.82 778.165 3404.51 778.165ZM3404.51 724.338C3435.67 724.338 3463.22 717.255 3487.14 703.09C3511.06 688.61 3531.05 668.779 3547.1 643.597C3563.16 618.415 3575.28 588.511 3583.46 553.885C3591.96 518.945 3596.21 480.856 3596.21 439.62C3596.21 399.014 3591.96 361.87 3583.46 328.189C3575.28 294.507 3563.16 265.548 3547.1 241.31C3531.05 217.072 3511.06 198.185 3487.14 184.65C3463.22 171.114 3435.67 164.346 3404.51 164.346C3373.03 164.346 3345.33 171.114 3321.41 184.65C3297.48 198.185 3277.5 217.072 3261.44 241.31C3245.39 265.548 3233.27 294.507 3225.08 328.189C3216.9 361.87 3212.81 399.014 3212.81 439.62C3212.81 480.856 3216.9 518.945 3225.08 553.885C3233.27 588.511 3245.39 618.415 3261.44 643.597C3277.5 668.779 3297.48 688.61 3321.41 703.09C3345.33 717.255 3373.03 724.338 3404.51 724.338Z" fill="#EA580C"/>
<path d="M1276.57 971V837.909H1366.25V861.109H1304.71V892.822H1361.63V916.022H1304.71V947.8H1366.51V971H1276.57ZM1388.1 971V871.182H1414.48V888.793H1415.65C1417.73 882.944 1421.2 878.33 1426.05 874.951C1430.9 871.571 1436.71 869.882 1443.47 869.882C1450.31 869.882 1456.14 871.593 1460.95 875.016C1465.76 878.395 1468.96 882.987 1470.57 888.793H1471.61C1473.64 883.074 1477.32 878.503 1482.65 875.081C1488.03 871.615 1494.37 869.882 1501.69 869.882C1511.01 869.882 1518.57 872.85 1524.37 878.785C1530.22 884.677 1533.15 893.038 1533.15 903.869V971H1505.53V909.328C1505.53 903.783 1504.06 899.624 1501.11 896.851C1498.16 894.078 1494.48 892.692 1490.06 892.692C1485.04 892.692 1481.12 894.295 1478.3 897.501C1475.48 900.663 1474.08 904.844 1474.08 910.043V971H1447.24V908.743C1447.24 903.848 1445.83 899.949 1443.01 897.046C1440.24 894.143 1436.58 892.692 1432.03 892.692C1428.95 892.692 1426.18 893.472 1423.71 895.031C1421.29 896.548 1419.36 898.692 1417.93 901.465C1416.5 904.194 1415.78 907.4 1415.78 911.083V971H1388.1ZM1555.02 1008.43V871.182H1582.31V887.948H1583.54C1584.76 885.262 1586.51 882.532 1588.81 879.76C1591.15 876.944 1594.18 874.604 1597.91 872.741C1601.68 870.835 1606.35 869.882 1611.94 869.882C1619.22 869.882 1625.94 871.788 1632.09 875.601C1638.24 879.37 1643.16 885.067 1646.84 892.692C1650.52 900.274 1652.36 909.783 1652.36 921.221C1652.36 932.355 1650.57 941.756 1646.97 949.424C1643.42 957.049 1638.57 962.833 1632.41 966.776C1626.3 970.675 1619.46 972.624 1611.88 972.624C1606.51 972.624 1601.94 971.736 1598.17 969.96C1594.44 968.184 1591.39 965.953 1589 963.266C1586.62 960.537 1584.8 957.786 1583.54 955.013H1582.7V1008.43H1555.02ZM1582.11 921.091C1582.11 927.026 1582.94 932.203 1584.58 936.622C1586.23 941.041 1588.61 944.486 1591.73 946.955C1594.85 949.381 1598.64 950.594 1603.1 950.594C1607.61 950.594 1611.42 949.359 1614.54 946.89C1617.66 944.377 1620.02 940.911 1621.63 936.492C1623.27 932.03 1624.1 926.896 1624.1 921.091C1624.1 915.329 1623.29 910.26 1621.69 905.884C1620.09 901.508 1617.73 898.086 1614.61 895.616C1611.49 893.147 1607.65 891.912 1603.1 891.912C1598.6 891.912 1594.79 893.103 1591.67 895.486C1588.59 897.869 1586.23 901.248 1584.58 905.624C1582.94 910 1582.11 915.155 1582.11 921.091ZM1715.92 972.949C1705.83 972.949 1697.1 970.805 1689.73 966.516C1682.41 962.183 1676.76 956.161 1672.77 948.45C1668.78 940.695 1666.79 931.705 1666.79 921.481C1666.79 911.169 1668.78 902.158 1672.77 894.446C1676.76 886.692 1682.41 880.669 1689.73 876.38C1697.1 872.048 1705.83 869.882 1715.92 869.882C1726.01 869.882 1734.72 872.048 1742.04 876.38C1749.41 880.669 1755.08 886.692 1759.07 894.446C1763.06 902.158 1765.05 911.169 1765.05 921.481C1765.05 931.705 1763.06 940.695 1759.07 948.45C1755.08 956.161 1749.41 962.183 1742.04 966.516C1734.72 970.805 1726.01 972.949 1715.92 972.949ZM1716.05 951.504C1720.64 951.504 1724.48 950.204 1727.55 947.605C1730.63 944.962 1732.95 941.366 1734.51 936.817C1736.11 932.268 1736.91 927.091 1736.91 921.286C1736.91 915.48 1736.11 910.303 1734.51 905.754C1732.95 901.205 1730.63 897.609 1727.55 894.966C1724.48 892.324 1720.64 891.002 1716.05 891.002C1711.41 891.002 1707.52 892.324 1704.35 894.966C1701.23 897.609 1698.87 901.205 1697.27 905.754C1695.71 910.303 1694.93 915.48 1694.93 921.286C1694.93 927.091 1695.71 932.268 1697.27 936.817C1698.87 941.366 1701.23 944.962 1704.35 947.605C1707.52 950.204 1711.41 951.504 1716.05 951.504ZM1800.24 971L1773.08 871.182H1801.08L1816.55 938.247H1817.46L1833.58 871.182H1861.07L1877.44 937.857H1878.29L1893.49 871.182H1921.44L1894.34 971H1865.03L1847.87 908.223H1846.64L1829.48 971H1800.24ZM1979.19 972.949C1968.93 972.949 1960.09 970.87 1952.68 966.711C1945.31 962.508 1939.64 956.573 1935.65 948.905C1931.67 941.193 1929.67 932.073 1929.67 921.546C1929.67 911.278 1931.67 902.266 1935.65 894.511C1939.64 886.757 1945.25 880.713 1952.48 876.38C1959.76 872.048 1968.3 869.882 1978.09 869.882C1984.67 869.882 1990.8 870.943 1996.48 873.066C2002.2 875.146 2007.18 878.287 2011.43 882.489C2015.72 886.692 2019.05 891.977 2021.43 898.346C2023.82 904.671 2025.01 912.079 2025.01 920.571V928.174H1940.72V911.018H1998.95C1998.95 907.032 1998.08 903.501 1996.35 900.425C1994.62 897.349 1992.21 894.945 1989.14 893.212C1986.1 891.435 1982.57 890.547 1978.54 890.547C1974.34 890.547 1970.62 891.522 1967.37 893.472C1964.16 895.378 1961.65 897.956 1959.83 901.205C1958.01 904.411 1957.08 907.985 1957.03 911.928V928.239C1957.03 933.178 1957.94 937.445 1959.76 941.041C1961.63 944.637 1964.25 947.41 1967.63 949.359C1971.01 951.309 1975.01 952.284 1979.65 952.284C1982.72 952.284 1985.54 951.851 1988.1 950.984C1990.65 950.118 1992.84 948.818 1994.66 947.085C1996.48 945.352 1997.87 943.229 1998.82 940.716L2024.42 942.406C2023.12 948.558 2020.46 953.93 2016.43 958.522C2012.44 963.071 2007.29 966.624 2000.96 969.18C1994.68 971.693 1987.43 972.949 1979.19 972.949ZM2043.07 971V871.182H2069.91V888.598H2070.95C2072.77 882.402 2075.83 877.723 2080.12 874.561C2084.41 871.355 2089.34 869.752 2094.93 869.752C2096.32 869.752 2097.81 869.839 2099.42 870.012C2101.02 870.185 2102.43 870.423 2103.64 870.727V895.291C2102.34 894.901 2100.54 894.555 2098.25 894.252C2095.95 893.948 2093.85 893.797 2091.94 893.797C2087.87 893.797 2084.23 894.685 2081.03 896.461C2077.86 898.194 2075.35 900.62 2073.49 903.739C2071.67 906.859 2070.76 910.455 2070.76 914.527V971H2043.07ZM2117.95 971V871.182H2145.64V971H2117.95ZM2131.86 858.314C2127.75 858.314 2124.22 856.95 2121.27 854.22C2118.37 851.448 2116.92 848.133 2116.92 844.277C2116.92 840.465 2118.37 837.194 2121.27 834.465C2124.22 831.692 2127.75 830.306 2131.86 830.306C2135.98 830.306 2139.49 831.692 2142.39 834.465C2145.34 837.194 2146.81 840.465 2146.81 844.277C2146.81 848.133 2145.34 851.448 2142.39 854.22C2139.49 856.95 2135.98 858.314 2131.86 858.314ZM2195.5 913.292V971H2167.82V871.182H2194.2V888.793H2195.37C2197.58 882.987 2201.28 878.395 2206.48 875.016C2211.68 871.593 2217.98 869.882 2225.39 869.882C2232.32 869.882 2238.37 871.398 2243.52 874.431C2248.68 877.464 2252.69 881.796 2255.55 887.428C2258.41 893.017 2259.84 899.689 2259.84 907.444V971H2232.15V912.383C2232.19 906.274 2230.63 901.508 2227.47 898.086C2224.31 894.62 2219.96 892.887 2214.41 892.887C2210.68 892.887 2207.39 893.688 2204.53 895.291C2201.72 896.894 2199.51 899.234 2197.9 902.31C2196.34 905.342 2195.54 909.003 2195.5 913.292ZM2326.62 1010.51C2317.66 1010.51 2309.97 1009.28 2303.55 1006.81C2297.19 1004.38 2292.12 1001.07 2288.35 996.864C2284.58 992.662 2282.13 987.939 2281 982.697L2306.61 979.253C2307.39 981.246 2308.62 983.109 2310.31 984.842C2312 986.575 2314.23 987.961 2317.01 989.001C2319.82 990.084 2323.24 990.625 2327.27 990.625C2333.3 990.625 2338.26 989.152 2342.16 986.206C2346.1 983.304 2348.07 978.43 2348.07 971.585V953.324H2346.9C2345.69 956.096 2343.87 958.717 2341.44 961.187C2339.01 963.656 2335.9 965.671 2332.08 967.231C2328.27 968.79 2323.72 969.57 2318.44 969.57C2310.94 969.57 2304.12 967.837 2297.97 964.371C2291.86 960.862 2286.98 955.511 2283.34 948.32C2279.75 941.085 2277.95 931.943 2277.95 920.896C2277.95 909.588 2279.79 900.144 2283.47 892.562C2287.16 884.98 2292.05 879.305 2298.16 875.536C2304.31 871.766 2311.05 869.882 2318.37 869.882C2323.96 869.882 2328.64 870.835 2332.41 872.741C2336.18 874.604 2339.21 876.944 2341.51 879.76C2343.85 882.532 2345.64 885.262 2346.9 887.948H2347.94V871.182H2375.43V971.975C2375.43 980.466 2373.35 987.571 2369.19 993.29C2365.03 999.009 2359.27 1003.3 2351.9 1006.16C2344.58 1009.06 2336.16 1010.51 2326.62 1010.51ZM2327.21 948.775C2331.67 948.775 2335.44 947.67 2338.52 945.46C2341.64 943.207 2344.02 940.002 2345.67 935.842C2347.35 931.64 2348.2 926.614 2348.2 920.766C2348.2 914.917 2347.38 909.848 2345.73 905.559C2344.08 901.227 2341.7 897.869 2338.58 895.486C2335.46 893.103 2331.67 891.912 2327.21 891.912C2322.66 891.912 2318.83 893.147 2315.71 895.616C2312.59 898.042 2310.23 901.422 2308.62 905.754C2307.02 910.086 2306.22 915.09 2306.22 920.766C2306.22 926.528 2307.02 931.51 2308.62 935.712C2310.27 939.872 2312.63 943.099 2315.71 945.395C2318.83 947.648 2322.66 948.775 2327.21 948.775ZM2487.51 971H2440.33V837.909H2487.9C2501.29 837.909 2512.81 840.573 2522.48 845.902C2532.14 851.188 2539.57 858.791 2544.77 868.712C2550.01 878.633 2552.63 890.504 2552.63 904.324C2552.63 918.188 2550.01 930.102 2544.77 940.067C2539.57 950.031 2532.09 957.678 2522.35 963.007C2512.64 968.335 2501.03 971 2487.51 971ZM2468.47 946.89H2486.34C2494.66 946.89 2501.66 945.417 2507.33 942.471C2513.05 939.482 2517.34 934.868 2520.2 928.629C2523.1 922.347 2524.55 914.245 2524.55 904.324C2524.55 894.49 2523.1 886.453 2520.2 880.215C2517.34 873.976 2513.07 869.384 2507.4 866.438C2501.72 863.492 2494.73 862.019 2486.41 862.019H2468.47V946.89ZM2572.95 971V871.182H2600.64V971H2572.95ZM2586.86 858.314C2582.74 858.314 2579.21 856.95 2576.27 854.22C2573.36 851.448 2571.91 848.133 2571.91 844.277C2571.91 840.465 2573.36 837.194 2576.27 834.465C2579.21 831.692 2582.74 830.306 2586.86 830.306C2590.98 830.306 2594.48 831.692 2597.39 834.465C2600.33 837.194 2601.81 840.465 2601.81 844.277C2601.81 848.133 2600.33 851.448 2597.39 854.22C2594.48 856.95 2590.98 858.314 2586.86 858.314ZM2667.78 1010.51C2658.82 1010.51 2651.13 1009.28 2644.71 1006.81C2638.34 1004.38 2633.28 1001.07 2629.51 996.864C2625.74 992.662 2623.29 987.939 2622.16 982.697L2647.77 979.253C2648.55 981.246 2649.78 983.109 2651.47 984.842C2653.16 986.575 2655.39 987.961 2658.17 989.001C2660.98 990.084 2664.4 990.625 2668.43 990.625C2674.46 990.625 2679.42 989.152 2683.31 986.206C2687.26 983.304 2689.23 978.43 2689.23 971.585V953.324H2688.06C2686.85 956.096 2685.03 958.717 2682.6 961.187C2680.17 963.656 2677.05 965.671 2673.24 967.231C2669.43 968.79 2664.88 969.57 2659.6 969.57C2652.1 969.57 2645.28 967.837 2639.12 964.371C2633.02 960.862 2628.14 955.511 2624.5 948.32C2620.91 941.085 2619.11 931.943 2619.11 920.896C2619.11 909.588 2620.95 900.144 2624.63 892.562C2628.32 884.98 2633.21 879.305 2639.32 875.536C2645.47 871.766 2652.21 869.882 2659.53 869.882C2665.12 869.882 2669.8 870.835 2673.57 872.741C2677.34 874.604 2680.37 876.944 2682.67 879.76C2685 882.532 2686.8 885.262 2688.06 887.948H2689.1V871.182H2716.59V971.975C2716.59 980.466 2714.51 987.571 2710.35 993.29C2706.19 999.009 2700.43 1003.3 2693.06 1006.16C2685.74 1009.06 2677.31 1010.51 2667.78 1010.51ZM2668.37 948.775C2672.83 948.775 2676.6 947.67 2679.68 945.46C2682.8 943.207 2685.18 940.002 2686.82 935.842C2688.51 931.64 2689.36 926.614 2689.36 920.766C2689.36 914.917 2688.54 909.848 2686.89 905.559C2685.24 901.227 2682.86 897.869 2679.74 895.486C2676.62 893.103 2672.83 891.912 2668.37 891.912C2663.82 891.912 2659.99 893.147 2656.87 895.616C2653.75 898.042 2651.39 901.422 2649.78 905.754C2648.18 910.086 2647.38 915.09 2647.38 920.766C2647.38 926.528 2648.18 931.51 2649.78 935.712C2651.43 939.872 2653.79 943.099 2656.87 945.395C2659.99 947.648 2663.82 948.775 2668.37 948.775ZM2738.62 971V871.182H2766.3V971H2738.62ZM2752.52 858.314C2748.41 858.314 2744.88 856.95 2741.93 854.22C2739.03 851.448 2737.58 848.133 2737.58 844.277C2737.58 840.465 2739.03 837.194 2741.93 834.465C2744.88 831.692 2748.41 830.306 2752.52 830.306C2756.64 830.306 2760.15 831.692 2763.05 834.465C2766 837.194 2767.47 840.465 2767.47 844.277C2767.47 848.133 2766 851.448 2763.05 854.22C2760.15 856.95 2756.64 858.314 2752.52 858.314ZM2841.57 871.182V891.977H2781.46V871.182H2841.57ZM2795.11 847.267H2822.79V940.326C2822.79 942.883 2823.18 944.875 2823.96 946.305C2824.74 947.692 2825.82 948.666 2827.21 949.23C2828.64 949.793 2830.29 950.074 2832.15 950.074C2833.45 950.074 2834.75 949.966 2836.05 949.749C2837.35 949.489 2838.34 949.294 2839.04 949.165L2843.39 969.765C2842 970.198 2840.06 970.696 2837.54 971.26C2835.03 971.866 2831.98 972.234 2828.38 972.364C2821.71 972.624 2815.86 971.736 2810.83 969.7C2805.85 967.664 2801.97 964.501 2799.2 960.212C2796.43 955.923 2795.06 950.508 2795.11 943.966V847.267ZM2888.07 972.884C2881.7 972.884 2876.02 971.78 2871.04 969.57C2866.06 967.317 2862.12 964.003 2859.22 959.627C2856.36 955.208 2854.93 949.706 2854.93 943.121C2854.93 937.575 2855.94 932.918 2857.98 929.149C2860.02 925.38 2862.79 922.347 2866.3 920.051C2869.81 917.755 2873.79 916.022 2878.26 914.852C2882.76 913.682 2887.48 912.859 2892.42 912.383C2898.23 911.776 2902.91 911.213 2906.46 910.693C2910.01 910.13 2912.59 909.307 2914.19 908.223C2915.8 907.14 2916.6 905.537 2916.6 903.415V903.025C2916.6 898.909 2915.3 895.725 2912.7 893.472C2910.14 891.219 2906.5 890.092 2901.78 890.092C2896.8 890.092 2892.83 891.197 2889.89 893.407C2886.94 895.573 2884.99 898.302 2884.04 901.595L2858.44 899.515C2859.74 893.45 2862.29 888.208 2866.1 883.789C2869.92 879.326 2874.83 875.904 2880.86 873.521C2886.92 871.095 2893.94 869.882 2901.91 869.882C2907.46 869.882 2912.76 870.532 2917.83 871.831C2922.94 873.131 2927.47 875.146 2931.41 877.875C2935.4 880.605 2938.54 884.114 2940.84 888.403C2943.13 892.649 2944.28 897.739 2944.28 903.674V971H2918.03V957.158H2917.25C2915.64 960.277 2913.5 963.028 2910.81 965.411C2908.13 967.75 2904.9 969.592 2901.13 970.935C2897.36 972.234 2893.01 972.884 2888.07 972.884ZM2896 953.779C2900.07 953.779 2903.67 952.977 2906.78 951.374C2909.9 949.728 2912.35 947.518 2914.13 944.745C2915.9 941.973 2916.79 938.832 2916.79 935.323V924.73C2915.93 925.293 2914.73 925.813 2913.22 926.29C2911.75 926.723 2910.08 927.134 2908.21 927.524C2906.35 927.871 2904.49 928.196 2902.63 928.499C2900.76 928.759 2899.07 928.997 2897.56 929.214C2894.31 929.69 2891.47 930.449 2889.04 931.488C2886.62 932.528 2884.73 933.936 2883.39 935.712C2882.05 937.445 2881.38 939.612 2881.38 942.211C2881.38 945.98 2882.74 948.861 2885.47 950.854C2888.24 952.804 2891.75 953.779 2896 953.779ZM2993.44 837.909V971H2965.76V837.909H2993.44ZM3058.49 971V837.909H3146.61V861.109H3086.63V892.822H3140.77V916.022H3086.63V971H3058.49ZM3222.78 928.499V871.182H3250.46V971H3223.88V952.869H3222.84C3220.59 958.717 3216.84 963.418 3211.6 966.971C3206.4 970.523 3200.05 972.299 3192.56 972.299C3185.89 972.299 3180.02 970.783 3174.95 967.75C3169.88 964.718 3165.92 960.407 3163.06 954.818C3160.24 949.23 3158.81 942.536 3158.77 934.738V871.182H3186.45V929.799C3186.49 935.691 3188.08 940.348 3191.2 943.771C3194.31 947.193 3198.5 948.905 3203.74 948.905C3207.07 948.905 3210.19 948.146 3213.1 946.63C3216 945.07 3218.34 942.774 3220.11 939.742C3221.93 936.709 3222.82 932.961 3222.78 928.499ZM3325.7 871.182V891.977H3265.59V871.182H3325.7ZM3279.23 847.267H3306.92V940.326C3306.92 942.883 3307.31 944.875 3308.09 946.305C3308.87 947.692 3309.95 948.666 3311.34 949.23C3312.77 949.793 3314.41 950.074 3316.28 950.074C3317.58 950.074 3318.88 949.966 3320.18 949.749C3321.48 949.489 3322.47 949.294 3323.17 949.165L3327.52 969.765C3326.13 970.198 3324.18 970.696 3321.67 971.26C3319.16 971.866 3316.1 972.234 3312.51 972.364C3305.84 972.624 3299.99 971.736 3294.96 969.7C3289.98 967.664 3286.1 964.501 3283.33 960.212C3280.56 955.923 3279.19 950.508 3279.23 943.966V847.267ZM3407.74 928.499V871.182H3435.43V971H3408.85V952.869H3407.81C3405.56 958.717 3401.81 963.418 3396.57 966.971C3391.37 970.523 3385.02 972.299 3377.53 972.299C3370.85 972.299 3364.98 970.783 3359.91 967.75C3354.85 964.718 3350.88 960.407 3348.02 954.818C3345.21 949.23 3343.78 942.536 3343.73 934.738V871.182H3371.42V929.799C3371.46 935.691 3373.04 940.348 3376.16 943.771C3379.28 947.193 3383.46 948.905 3388.7 948.905C3392.04 948.905 3395.16 948.146 3398.06 946.63C3400.96 945.07 3403.3 942.774 3405.08 939.742C3406.9 936.709 3407.79 932.961 3407.74 928.499ZM3457.57 971V871.182H3484.41V888.598H3485.45C3487.27 882.402 3490.32 877.723 3494.61 874.561C3498.9 871.355 3503.84 869.752 3509.43 869.752C3510.82 869.752 3512.31 869.839 3513.91 870.012C3515.52 870.185 3516.93 870.423 3518.14 870.727V895.291C3516.84 894.901 3515.04 894.555 3512.74 894.252C3510.45 893.948 3508.35 893.797 3506.44 893.797C3502.37 893.797 3498.73 894.685 3495.52 896.461C3492.36 898.194 3489.85 900.62 3487.99 903.739C3486.17 906.859 3485.26 910.455 3485.26 914.527V971H3457.57ZM3573.3 972.949C3563.03 972.949 3554.19 970.87 3546.78 966.711C3539.42 962.508 3533.74 956.573 3529.75 948.905C3525.77 941.193 3523.78 932.073 3523.78 921.546C3523.78 911.278 3525.77 902.266 3529.75 894.511C3533.74 886.757 3539.35 880.713 3546.59 876.38C3553.86 872.048 3562.4 869.882 3572.19 869.882C3578.78 869.882 3584.91 870.943 3590.58 873.066C3596.3 875.146 3601.28 878.287 3605.53 882.489C3609.82 886.692 3613.15 891.977 3615.54 898.346C3617.92 904.671 3619.11 912.079 3619.11 920.571V928.174H3534.82V911.018H3593.05C3593.05 907.032 3592.18 903.501 3590.45 900.425C3588.72 897.349 3586.31 894.945 3583.24 893.212C3580.21 891.435 3576.67 890.547 3572.65 890.547C3568.44 890.547 3564.72 891.522 3561.47 893.472C3558.26 895.378 3555.75 897.956 3553.93 901.205C3552.11 904.411 3551.18 907.985 3551.14 911.928V928.239C3551.14 933.178 3552.05 937.445 3553.86 941.041C3555.73 944.637 3558.35 947.41 3561.73 949.359C3565.11 951.309 3569.11 952.284 3573.75 952.284C3576.83 952.284 3579.64 951.851 3582.2 950.984C3584.75 950.118 3586.94 948.818 3588.76 947.085C3590.58 945.352 3591.97 943.229 3592.92 940.716L3618.53 942.406C3617.23 948.558 3614.56 953.93 3610.53 958.522C3606.55 963.071 3601.39 966.624 3595.07 969.18C3588.78 971.693 3581.53 972.949 3573.3 972.949ZM3720.23 899.645L3694.88 901.205C3694.45 899.039 3693.52 897.089 3692.09 895.356C3690.66 893.58 3688.78 892.172 3686.44 891.132C3684.14 890.049 3681.39 889.508 3678.18 889.508C3673.89 889.508 3670.28 890.417 3667.33 892.237C3664.38 894.013 3662.91 896.396 3662.91 899.385C3662.91 901.768 3663.86 903.783 3665.77 905.429C3667.68 907.075 3670.95 908.397 3675.58 909.393L3693.65 913.032C3703.35 915.025 3710.59 918.231 3715.35 922.65C3720.12 927.069 3722.5 932.875 3722.5 940.067C3722.5 946.608 3720.57 952.349 3716.72 957.288C3712.91 962.227 3707.66 966.082 3700.99 968.855C3694.36 971.585 3686.72 972.949 3678.05 972.949C3664.84 972.949 3654.31 970.198 3646.47 964.696C3638.67 959.151 3634.1 951.612 3632.76 942.081L3659.99 940.651C3660.81 944.681 3662.8 947.757 3665.97 949.879C3669.13 951.959 3673.18 952.999 3678.12 952.999C3682.97 952.999 3686.87 952.067 3689.81 950.204C3692.8 948.298 3694.32 945.85 3694.36 942.861C3694.32 940.348 3693.26 938.29 3691.18 936.687C3689.1 935.041 3685.89 933.785 3681.56 932.918L3664.28 929.474C3654.53 927.524 3647.27 924.145 3642.51 919.336C3637.78 914.527 3635.42 908.397 3635.42 900.945C3635.42 894.533 3637.15 889.009 3640.62 884.374C3644.13 879.738 3649.05 876.164 3655.37 873.651C3661.74 871.138 3669.19 869.882 3677.73 869.882C3690.33 869.882 3700.26 872.546 3707.49 877.875C3714.77 883.204 3719.02 890.461 3720.23 899.645Z" fill="black"/>
<defs>
<linearGradient id="paint0_linear_155_165" x1="1197" y1="426.53" x2="-4.66963" y2="494.742" gradientUnits="userSpaceOnUse">
<stop offset="0.45" stop-color="#EA580C"/>
<stop offset="0.51" stop-color="#00008B"/>
</linearGradient>
</defs>
</svg>
