<svg width="72" height="72" viewBox="0 0 72 72" fill="none" xmlns="http://www.w3.org/2000/svg">
<path fillRule="evenodd" clipRule="evenodd" d="M29.3625 41.3437H27.1859L27.1858 36.8157H29.3623L29.3625 41.3437ZM30.3496 34.8412L26.1985 34.8413C25.6538 34.8413 25.2112 35.2839 25.2112 35.8286L25.2114 42.3302C25.2114 42.8758 25.6539 43.3183 26.1987 43.3183L30.3497 43.3182C30.8962 43.3182 31.337 42.8757 31.337 42.3301L31.3369 35.8285C31.3369 35.2837 30.8961 34.8412 30.3496 34.8412ZM37.021 41.3435H34.8435L34.8434 32.6654H37.0208L37.021 41.3435ZM38.0072 30.6907L33.8561 30.6908C33.3114 30.6908 32.8689 31.1333 32.8689 31.6781L32.8692 42.3301C32.8692 42.8757 33.3117 43.3182 33.8564 43.3182L38.0075 43.3181C38.5523 43.3181 38.9948 42.8755 38.9948 42.3299L38.9945 31.678C38.9945 31.1332 38.552 30.6907 38.0072 30.6907ZM44.6787 41.3432H42.5013L42.501 30.328H44.6785L44.6787 41.3432ZM45.6649 28.3534L41.5138 28.3536C40.969 28.3536 40.5265 28.7952 40.5265 29.34L40.5268 42.3298C40.5268 42.8754 40.9693 43.3179 41.5141 43.3179L45.6651 43.3178C46.2099 43.3178 46.6524 42.8753 46.6524 42.3296L46.6521 29.3398C46.6521 28.7949 46.2096 28.3534 45.6649 28.3534ZM64.7778 62.9843L62.7626 64.9987C62.6586 65.1027 62.483 65.1027 62.3808 64.9987L55.3077 57.9276C55.2046 57.8236 55.2046 57.6481 55.3077 57.5441L57.3221 55.5304C57.4252 55.4257 57.6012 55.426 57.7056 55.5304L64.7778 62.6024C64.8801 62.7065 64.8802 62.8803 64.7778 62.9843ZM23.2654 50.2649C30.648 57.6463 42.6597 57.6461 50.041 50.2642C57.4406 42.8643 57.4403 30.8864 50.0403 23.4868C42.6586 16.1055 30.6468 16.1058 23.2647 23.4875C15.8816 30.8708 15.8819 42.8827 23.2654 50.2649ZM6.14867 59.9516L10.9516 51.897L15.7542 59.9514L6.14867 59.9516ZM58.1044 11.1747C58.1044 8.83163 60.0098 6.92623 62.3527 6.92608C64.6958 6.92608 66.602 8.83149 66.6022 11.1744C66.6022 13.5157 64.6959 15.4221 62.353 15.4221C60.01 15.4222 58.1046 13.516 58.1044 11.1747ZM16.7013 14.5392C16.7013 14.6965 16.5682 14.8295 16.4101 14.8295L9.68315 14.8297C9.52676 14.8297 9.39198 14.6966 9.39198 14.5394L9.39184 7.81312C9.39184 7.65515 9.52662 7.52123 9.68286 7.52123L16.4098 7.52109C16.5678 7.52109 16.701 7.65501 16.701 7.81298L16.7013 14.5392ZM59.1003 54.134C58.2253 53.2582 56.8014 53.2582 55.9257 54.1342L55.6163 54.4435L52.1197 50.9462C55.4148 47.3306 57.3127 42.7485 57.5381 37.8622L62.3537 37.862C62.8985 37.862 63.341 37.4204 63.341 36.8756L63.3406 17.3177C66.3048 16.8435 68.577 14.2692 68.577 11.1744C68.5768 7.74271 65.7847 4.9481 62.353 4.94824C59.2573 4.94839 56.684 7.22315 56.2108 10.1874L18.6759 10.1883V7.81283C18.6759 6.56277 17.6595 5.54815 16.4103 5.54815L9.68329 5.54829C8.43409 5.54829 7.4186 6.56306 7.4186 7.81312L7.41875 14.5394C7.41875 15.7886 8.43438 16.8041 9.68358 16.8041L16.4105 16.8039C17.6597 16.8039 18.6761 15.7883 18.6761 14.5391V12.1628L56.211 12.1619C56.6328 14.8035 58.7247 16.8952 61.3662 17.3177L61.3666 35.8885L57.5382 35.8887C57.2969 30.6746 55.1526 25.8065 51.4372 22.0922C43.2853 13.9397 30.021 13.9402 21.8677 22.0929C18.0428 25.9172 16.0134 30.8694 15.7781 35.8897L10.9516 35.8898C10.4069 35.8898 9.96438 36.3323 9.96438 36.8771L9.96467 49.6981L3.56401 60.4333C3.17161 61.0897 3.64681 61.9254 4.41246 61.9254L17.4939 61.9252C18.2614 61.9252 18.7323 61.0884 18.3413 60.433L11.9389 49.698L11.9386 37.8633L15.7778 37.8632C16.3018 49.0317 25.4824 57.7752 36.6538 57.7751C41.6998 57.7749 46.7467 55.9626 50.7223 52.3411L54.2215 55.8393L53.9122 56.1495C53.0364 57.0245 53.0364 58.4484 53.9123 59.3225L60.9846 66.3961C61.8572 67.2687 63.2854 67.2686 64.1594 66.3959L66.1729 64.3806C67.0487 63.5048 67.0487 62.081 66.1728 61.2052L59.1003 54.134ZM46.8671 47.0896C52.4978 41.457 52.4975 32.2938 46.8667 26.6616C41.2233 21.0176 32.0816 21.0194 26.4387 26.662C20.8071 32.2946 20.8074 41.4577 26.4391 47.09C32.0816 52.7328 41.2246 52.7341 46.8671 47.0896ZM48.2622 25.2668C41.8466 18.8499 31.4575 18.8504 25.042 25.2674C18.6421 31.6685 18.6424 42.085 25.0426 48.4866C31.4578 54.9023 41.8477 54.9013 48.2628 48.4861C54.6644 42.0841 54.6641 31.6676 48.2622 25.2668Z" fill="#0C455E"/>
</svg>
