<svg width="28" height="14" viewBox="0 0 28 14" fill="none" xmlns="http://www.w3.org/2000/svg">
<path d="M11.8346 11.5612C10.7371 12.4636 9.31055 13.0068 7.7517 13C4.3116 12.9852 1.54004 10.3072 1.54004 6.99995C1.54004 3.68595 4.33406 0.999955 7.78041 0.999955C9.33052 0.999955 10.7483 1.54315 11.8396 2.44235C13.0881 3.47155 14.9148 3.46715 16.1646 2.43875C17.2612 1.53675 18.6865 0.993955 20.2441 0.999555C23.685 1.01235 26.4599 3.69116 26.4595 6.99955C26.4595 10.3132 23.6655 12.9996 20.2191 12.9996C18.6694 12.9996 17.252 12.4564 16.1608 11.5576C14.9115 10.5284 13.0843 10.5324 11.8342 11.5608L11.8346 11.5612Z" stroke="#FCF3ED" strokeMiterlimit="10"/>
<circle cx="20.5" cy="7" r="4" fill="#FCF3ED"/>
</svg>
