<svg width="24" height="25" viewBox="0 0 24 25" fill="none" xmlns="http://www.w3.org/2000/svg">
<g clipPath="url(#clip0_2503_49)">
<path d="M12 2.50049C8.13 2.50049 5 5.63049 5 9.50049C5 14.7505 12 22.5005 12 22.5005C12 22.5005 19 14.7505 19 9.50049C19 5.63049 15.87 2.50049 12 2.50049ZM7 9.50049C7 6.74049 9.24 4.50049 12 4.50049C14.76 4.50049 17 6.74049 17 9.50049C17 12.3805 14.12 16.6905 12 19.3805C9.92 16.7105 7 12.3505 7 9.50049Z" fill="#F3F4F6"/>
<path d="M12 12.0005C13.3807 12.0005 14.5 10.8812 14.5 9.50049C14.5 8.11978 13.3807 7.00049 12 7.00049C10.6193 7.00049 9.5 8.11978 9.5 9.50049C9.5 10.8812 10.6193 12.0005 12 12.0005Z" fill="#F3F4F6"/>
</g>
<defs>
<clipPath id="clip0_2503_49">
<rect width="24" height="24" fill="white" transform="translate(0 0.500488)"/>
</clipPath>
</defs>
</svg>
