<svg width="64" height="64" viewBox="0 0 64 64" fill="none" xmlns="http://www.w3.org/2000/svg">
<path fillRule="evenodd" clipRule="evenodd" d="M60.4011 37.3715C58.4737 39.9805 53.742 44.1695 48.3469 48.0424C42.8258 52.0044 37.9976 54.6701 35.7466 54.9942C30.7428 55.7072 28.4341 55.1401 26.5794 54.6783C23.774 53.9896 21.8528 53.7223 16.3815 56.2745L11.0054 44.8826L22.5967 38.6356C23.5249 38.1331 24.5233 38.1007 25.4829 38.5384L35.1394 42.9299C35.927 43.2865 36.3307 44.1209 36.1209 44.9636L36.0636 45.1906C36.0636 45.1906 36.0636 45.1906 36.0633 45.1906C35.8585 46.0154 34.9825 46.8387 34.1462 46.5355L27.4614 44.1048C27.3117 44.0481 27.1507 44.032 26.993 44.0561L23.8397 44.518C23.3145 44.599 22.9512 45.0852 23.0284 45.6118C23.1056 46.1384 23.5943 46.5031 24.1198 46.4221L27.0325 45.9927L33.4885 48.3423C35.1444 48.9484 36.9029 47.9663 37.6604 46.3977L38.425 46.4058C39.7242 46.4221 40.8896 46.0979 41.984 45.393C42.6516 44.9636 43.682 44.2586 44.8752 43.4404C47.1753 41.8685 50.325 39.7133 53.1314 37.9874C57.4362 35.346 58.7895 35.0543 59.1715 35.0543C60.324 35.0462 60.831 35.1353 61.2854 35.6863C61.2817 35.7996 61.2096 36.2777 60.4011 37.3715ZM15.3653 59.4506C15.4752 59.1508 15.4615 58.8267 15.3264 58.5431L8.36458 43.7886C8.0773 43.1779 7.34506 42.9125 6.75293 43.197L3.41703 44.7446C2.81683 45.0245 2.54381 45.7516 2.82706 46.3489L9.78888 61.1034C10.0753 61.7111 10.7985 61.9785 11.4004 61.6948L14.7363 60.1473C15.0305 60.0098 15.2535 59.7667 15.3653 59.4506ZM22.4907 36.5938V30.2739C22.4907 30.2415 22.4636 30.2172 22.4332 30.2172H19.4401C19.41 30.2172 19.3822 30.2415 19.3822 30.2739V38.1818L21.6853 36.9421C21.9485 36.8043 22.2178 36.6828 22.4907 36.5938ZM32.7419 39.7294V24.5211C32.7419 24.4968 32.7144 24.4644 32.6843 24.4644H29.6911C29.6607 24.4644 29.6332 24.4968 29.6332 24.5211V38.3114L32.7419 39.7294ZM42.993 42.395V19.214C42.993 19.1816 42.9655 19.1573 42.9351 19.1573H39.9419C39.9118 19.1573 39.8843 19.1816 39.8843 19.214V44.2829C40.2446 44.1695 40.5926 43.9994 40.944 43.7725C41.4381 43.4564 42.1536 42.9702 42.993 42.395ZM15.0139 3.38192V40.5397L17.4592 39.219V30.2741C17.4592 29.1802 18.3477 28.2889 19.4399 28.2889H22.4331C23.5253 28.2889 24.4137 29.1801 24.4137 30.2741V36.3265C25.0425 36.3589 25.6708 36.5129 26.2785 36.7883L27.71 37.4365V24.5213C27.71 23.4274 28.5987 22.5443 29.691 22.5443H32.6842C33.7761 22.5443 34.6647 23.4274 34.6647 24.5213V40.6046L35.9348 41.1799C36.9584 41.6417 37.6775 42.5331 37.961 43.5539V19.214C37.961 18.1202 38.8498 17.237 39.9418 17.237H42.935C44.0272 17.237 44.916 18.1202 44.916 19.214V41.0824C45.7435 40.5234 46.5604 39.9642 47.3612 39.4296V10.6741H41.9933C40.2794 10.6741 38.8852 9.28044 38.8852 7.56267V2.19896H16.1986C15.5454 2.19896 15.0139 2.72556 15.0139 3.38192ZM40.8085 3.56004L46.0016 8.74563H41.9935C41.3399 8.74563 40.8085 8.21902 40.8085 7.56267V3.56004ZM62.8265 34.5357C61.7827 33.2151 60.4947 33.1178 59.1564 33.126C57.4042 33.1422 53.7082 35.2651 49.2841 38.1576V9.70985C49.2841 9.45857 49.1828 9.2155 49.0024 9.02916L40.5268 0.554044C40.3464 0.375772 40.1022 0.270508 39.847 0.270508H16.1986C14.4852 0.270508 13.0909 1.66414 13.0909 3.38192V41.5687L10.1836 43.1406L10.1038 42.9704C9.36725 41.4067 7.50058 40.726 5.94235 41.4552L2.60645 43.0028C1.04535 43.7303 0.349395 45.6092 1.08783 47.1674L8.04994 61.9219C8.79399 63.5031 10.6784 64.1593 12.2113 63.4371L15.5469 61.8895C17.0036 61.2107 17.7195 59.5232 17.1869 58.0165C22.3317 55.6182 23.8636 55.9909 26.1201 56.55C28.1362 57.0442 30.6451 57.6601 36.0178 56.8985C39.3944 56.4124 45.9682 52.2397 50.9939 48.4882C56.024 44.7367 61.8125 39.6889 62.9715 36.7721C63.4238 35.6376 63.1425 34.9327 62.8265 34.5357ZM24.9145 7.94355C26.4268 7.94355 27.7987 8.55929 28.7982 9.53979L24.4033 13.9394L22.5362 12.0677C22.1608 11.695 21.552 11.695 21.1765 12.0677C20.8009 12.4486 20.8009 13.0563 21.1765 13.4289L23.7233 15.9731C24.0966 16.3523 24.7105 16.352 25.0833 15.9731L29.9244 11.136C31.6297 14.7736 28.9767 19.0115 24.9142 19.0115C21.8637 19.0115 19.3817 16.5321 19.3817 13.4776C19.382 10.431 21.864 7.94355 24.9145 7.94355ZM24.9145 20.9318C20.8034 20.9318 17.4593 17.5855 17.4593 13.4775C17.4593 9.36958 20.8034 6.02331 24.9145 6.02331C26.9569 6.02331 28.8097 6.84972 30.1575 8.18662L32.0016 6.33924C32.3773 5.96657 32.986 5.96657 33.3615 6.33924C33.7369 6.71192 33.7369 7.3278 33.3615 7.70047L31.346 9.71791C31.9956 10.8198 32.3695 12.1082 32.3695 13.4775C32.3697 17.5854 29.0251 20.9318 24.9145 20.9318Z" fill="#0C455E"/>
</svg>
