<svg width="64" height="44" viewBox="0 0 64 44" fill="none" xmlns="http://www.w3.org/2000/svg">
<path fillRule="evenodd" clipRule="evenodd" d="M5.60824 35.0721H27.1934C27.7206 35.0721 28.1477 35.4997 28.1477 36.0269C28.1477 36.5549 27.7206 36.9809 27.1934 36.9809H5.60824C5.08134 36.9809 4.65395 36.5548 4.65395 36.0269C4.65395 35.4997 5.08134 35.0721 5.60824 35.0721ZM4.65395 29.2843C4.65395 28.7563 5.08134 28.3303 5.60824 28.3303H12.2557C12.7829 28.3303 13.21 28.7564 13.21 29.2843C13.21 29.8108 12.7828 30.2383 12.2557 30.2383H5.60824C5.08134 30.2383 4.65395 29.8108 4.65395 29.2843ZM4.65395 22.5411C4.65395 22.0139 5.08134 21.5871 5.60824 21.5871H12.2557C12.7829 21.5871 13.21 22.0139 13.21 22.5411C13.21 23.0676 12.7828 23.4951 12.2557 23.4951H5.60824C5.08134 23.4951 4.65395 23.0676 4.65395 22.5411ZM4.65395 15.797C4.65395 15.2706 5.08134 14.843 5.60824 14.843H12.2557C12.7829 14.843 13.21 15.2706 13.21 15.797C13.21 16.3242 12.7828 16.7517 12.2557 16.7517H5.60824C5.08134 16.7519 4.65395 16.3243 4.65395 15.797ZM54.6888 18.2262C54.3527 18.4691 54.2123 18.9019 54.341 19.2951L54.6084 20.112L53.9139 19.6055C53.579 19.3612 53.1242 19.3612 52.789 19.6055L52.0946 20.112L52.3619 19.2951C52.4909 18.9019 52.3505 18.4691 52.0144 18.2262L51.3182 17.7227L52.1793 17.7235C52.5933 17.7235 52.9603 17.4568 53.0875 17.0622L53.3514 16.2439L53.6157 17.0622C53.7433 17.4578 54.11 17.7237 54.5253 17.7235L55.385 17.7227L54.6888 18.2262ZM58.3395 15.8078L55.2181 15.8139L54.2596 12.8446C53.9765 11.9679 52.7263 11.9678 52.4434 12.8446L51.4852 15.8139L48.3634 15.8078C47.443 15.8078 47.0585 16.9954 47.804 17.5351L50.3315 19.3642L49.3616 22.3297C49.0738 23.2096 50.0887 23.9376 50.8311 23.3972L53.3514 21.5589L55.8719 23.3972C56.6129 23.9365 57.6266 23.2021 57.3412 22.3297L56.3717 19.3642L58.8989 17.5351C59.6445 16.9952 59.2599 15.8078 58.3395 15.8078ZM40.8059 18.2262C40.4701 18.4691 40.3294 18.9019 40.4584 19.2951L40.7258 20.112L40.0313 19.6055C39.6961 19.3615 39.2416 19.3615 38.9064 19.6055L38.212 20.112L38.4793 19.2951C38.608 18.9019 38.4676 18.4691 38.1315 18.2262L37.4353 17.7227L38.2967 17.7235C38.7107 17.7235 39.0777 17.4568 39.2049 17.0622L39.4688 16.2439L39.7329 17.0622C39.8605 17.4578 40.2276 17.7237 40.6429 17.7235L41.5025 17.7227L40.8059 18.2262ZM44.4568 15.8078L41.3352 15.8139L40.377 12.8446C40.0941 11.9678 38.8437 11.9678 38.5608 12.8446L37.6023 15.8139L34.481 15.8078C33.5604 15.8078 33.1759 16.9954 33.9215 17.5351L36.4487 19.3642L35.4793 22.3297C35.1939 23.2021 36.2077 23.9363 36.9487 23.3972L39.469 21.5589L41.9894 23.3972C42.7307 23.9376 43.7469 23.2101 43.4588 22.3297L42.4889 19.3642L45.0166 17.5351C45.7618 16.9952 45.3774 15.8078 44.4568 15.8078ZM26.9234 18.2262C26.5872 18.4691 26.4469 18.9019 26.5758 19.2951L26.8428 20.1127L26.1483 19.6054C25.8133 19.3613 25.3586 19.3613 25.0235 19.6054L24.329 20.1118L24.5962 19.2949C24.7252 18.9018 24.5848 18.4689 24.2488 18.226L23.5525 17.7226L24.4138 17.7233C24.8278 17.7233 25.1947 17.4566 25.322 17.0621L25.5859 16.2437L25.8503 17.0621C25.978 17.4579 26.3447 17.7236 26.7603 17.7233L27.6196 17.7226L26.9234 18.2262ZM30.5742 15.8078L27.4526 15.8139L26.4941 12.8446C26.211 11.9679 24.9608 11.9678 24.6779 12.8446L23.7197 15.8139L20.5981 15.8078C19.6776 15.8078 19.2931 16.9954 20.0386 17.5351L22.5661 19.3642L21.5963 22.3297C21.3109 23.2019 22.3246 23.9363 23.0656 23.3972L25.5859 21.5589L28.1064 23.3972C28.8488 23.9376 29.8639 23.2093 29.576 22.3297L28.6062 19.3642L31.1334 17.5351C31.8793 16.9951 31.4945 15.8078 30.5742 15.8078ZM61.5823 23.4813V12.2821C61.5823 11.135 60.6496 10.2025 59.503 10.2025H19.4345C18.2882 10.2025 17.3555 11.135 17.3555 12.2821V29.7564C19.4392 27.5311 22.1023 25.5618 25.4922 25.5618H59.5031C60.6496 25.5618 61.5823 24.6284 61.5823 23.4813ZM30.3843 40.6743V27.4698H25.492C21.9184 27.4698 19.1571 30.3917 17.1503 32.9372C16.5907 33.6468 15.4466 33.2508 15.4466 32.3472V12.2821C15.4466 10.083 17.2357 8.29448 19.4345 8.29448H30.3843V3.3259C30.3843 2.69604 29.8724 2.18412 29.243 2.18412H10.2422V6.95801C10.2422 8.63993 8.87401 10.0078 7.19195 10.0078H2.41763V40.6743C2.41763 41.3042 2.92941 41.8161 3.55897 41.8161H29.2428C29.8724 41.8161 30.3843 41.3043 30.3843 40.6743ZM8.33358 3.53268V6.95801C8.33358 7.58787 7.82137 8.09979 7.19181 8.09979H3.76705L8.33358 3.53268ZM59.503 8.29448H32.293V3.3259C32.293 1.64398 30.9247 0.276123 29.2428 0.276123H9.28787C9.03457 0.276123 8.79179 0.376491 8.6128 0.554331L0.788415 8.37958C0.609423 8.55886 0.508911 8.80107 0.508911 9.05393V40.6745C0.508911 42.3564 1.87706 43.7242 3.55912 43.7242H29.243C30.9249 43.7242 32.2932 42.3564 32.2932 40.6745V27.4699H59.503C61.7021 27.4699 63.4912 25.6807 63.4912 23.4814V12.2823C63.4911 10.083 61.702 8.29448 59.503 8.29448Z" fill="#0C455E"/>
</svg>
