<svg width="64" height="56" viewBox="0 0 64 56" fill="none" xmlns="http://www.w3.org/2000/svg">
<path fillRule="evenodd" clipRule="evenodd" d="M53.6183 53.1224L48.6215 48.0166C52.4247 43.9733 54.5248 38.9035 54.7795 33.3769H61.924C61.6912 40.8085 58.7689 47.7552 53.6183 53.1224ZM58.174 21.3316C58.008 20.9044 57.5654 20.653 57.112 20.7294L52.0794 21.583C51.224 20.0009 50.18 18.519 48.9585 17.1657L54.0651 12.168C58.9033 17.418 61.6947 24.1954 61.9225 31.4456H54.7772C54.6885 29.2824 54.2996 27.1756 53.6339 25.1744L57.7973 22.4937C58.1821 22.2447 58.3399 21.7596 58.174 21.3316ZM43.4269 29.4493L51.2793 24.3932C51.1873 24.1702 51.0914 23.9472 50.9912 23.7266L41.45 25.3453C42.3568 26.5562 43.0371 27.9454 43.4269 29.4493ZM31.9993 42.2848C37.4429 42.2848 41.8725 37.8543 41.8725 32.4116C41.8725 26.9681 37.4429 22.5392 31.9993 22.5392C26.5565 22.5392 22.127 26.9679 22.127 32.4116C22.127 37.8543 26.5565 42.2848 31.9993 42.2848ZM16.7608 15.4599L11.7551 10.3443C17.0017 5.50531 23.7726 2.71473 31.0342 2.48851V9.63379C25.7121 9.85094 20.7168 11.9006 16.7608 15.4599ZM15.2088 47.8374L10.1567 52.8888C5.14763 47.5542 2.30665 40.6914 2.07639 33.3768H9.22081C9.44372 38.7846 11.5442 43.8554 15.2088 47.8374ZM8.15463 14.2994C4.39163 19.2278 2.27238 25.1629 2.07539 31.4456H9.21908C9.44617 25.9491 11.606 20.8148 15.3772 16.8067L10.3813 11.7018C9.61249 12.4974 8.82423 13.4252 8.15881 14.3018L8.15463 14.2994ZM32.9654 2.48692V9.63134C38.1927 9.87009 43.0025 11.7624 46.9426 15.1913L47.6043 15.7895L52.7101 10.7927C51.9545 10.0669 51.1486 9.37315 50.3151 8.72731C45.3467 4.86566 39.3358 2.68636 32.9654 2.48692ZM60.5064 18.1448C59.013 15.168 57.0978 12.5265 54.7771 10.1205C45.0757 0.1367 29.9398 -2.28351 17.6087 3.96811C14.7998 5.39184 11.9565 7.41201 9.70897 9.63552C3.53051 15.6821 0.12793 23.7706 0.12793 32.4117C0.12793 40.925 3.44267 48.9281 9.46316 54.9479C9.84174 55.3273 10.4529 55.3254 10.8296 54.9479L17.2432 48.5342C17.6208 48.1567 17.6208 47.5447 17.2432 47.1678C9.81049 39.7469 9.10964 27.9974 15.3787 19.7879C22.3908 10.5361 35.6501 8.81616 44.7662 15.9027C46.8899 17.5377 48.716 19.6254 50.0552 21.9265L39.9012 23.6493C37.8073 21.7596 35.0345 20.608 31.999 20.608C25.4909 20.608 20.1946 25.9026 20.1946 32.4116C20.1946 38.9212 25.4909 44.216 31.999 44.216C38.8533 44.216 44.2854 38.368 43.7709 31.527L51.9505 26.2584C52.6522 28.5496 52.9864 31.1154 52.8367 33.5656C52.5157 38.8155 50.4133 43.5874 46.5947 47.3246C46.213 47.6982 46.2065 48.3102 46.58 48.6911L52.9237 55.1731C53.2982 55.556 53.9086 55.5616 54.2901 55.1885C60.4685 49.1419 63.8711 41.0517 63.8711 32.4116C63.8714 27.3969 62.7394 22.5962 60.5064 18.1448Z" fill="#0C455E"/>
</svg>
