<svg width="502" height="258" viewBox="0 0 502 258" fill="none" xmlns="http://www.w3.org/2000/svg">
<path opacity="0.8" d="M382.849 191.131C387.458 250.275 412.479 308.124 457.962 353.196C558.329 452.668 719.751 452.249 819.685 352.315C919.824 252.176 919.833 89.8596 819.732 -10.2414C774.708 -55.265 717.113 -80.0323 658.247 -84.5566C590.884 -89.7203 537.958 -142.913 532.734 -210.287C528.137 -269.395 503.14 -327.196 457.73 -372.268C357.399 -471.825 195.856 -471.477 95.8984 -371.495C-4.22845 -271.369 -4.24947 -109.04 95.8515 -8.93902C140.863 36.0726 198.446 60.8277 257.3 65.3641C324.687 70.552 377.637 123.744 382.874 191.131L382.849 191.131Z" stroke="#E8F6FC" stroke-width="40" stroke-miterlimit="10"/>
</svg>
