<svg width="502" height="258" viewBox="0 0 502 258" fill="none" xmlns="http://www.w3.org/2000/svg">
<path opacity="0.8" d="M382.849 473.131C387.458 532.275 412.479 590.124 457.962 635.196C558.329 734.668 719.751 734.249 819.685 634.315C919.824 534.176 919.833 371.86 819.732 271.759C774.708 226.735 717.113 201.968 658.247 197.443C590.884 192.28 537.958 139.087 532.734 71.713C528.137 12.6048 503.14 -45.1955 457.73 -90.2675C357.399 -189.825 195.856 -189.477 95.8984 -89.4955C-4.22845 10.6314 -4.24947 172.96 95.8515 273.061C140.863 318.073 198.446 342.828 257.3 347.364C324.687 352.552 377.637 405.744 382.874 473.131L382.849 473.131Z" stroke="#E8F6FC" stroke-width="40" stroke-miterlimit="10"/>
</svg>
