<svg width="914" height="915" viewBox="0 0 914 915" fill="none" xmlns="http://www.w3.org/2000/svg">
<path opacity="0.8" d="M382.058 657.929C386.667 717.074 411.688 774.922 457.171 819.994C557.538 919.467 718.96 919.047 818.893 819.114C919.032 718.975 919.041 556.658 818.94 456.557C773.917 411.533 716.322 386.766 657.455 382.242C590.093 377.078 537.167 323.886 531.942 256.512C527.346 197.403 502.349 139.603 456.938 94.531C356.608 -5.02607 195.065 -4.67881 95.1069 95.303C-5.01996 195.43 -5.04098 357.759 95.06 457.86C140.072 502.871 197.654 527.626 256.509 532.163C323.895 537.351 376.846 590.543 382.082 657.929L382.058 657.929Z" stroke="#E8F6FC" stroke-width="40" stroke-miterlimit="10"/>
</svg>
