<svg width="404" height="258" viewBox="0 0 404 258" fill="none" xmlns="http://www.w3.org/2000/svg">
<path opacity="0.8" d="M-128.733 476.929C-124.124 536.074 -99.1032 593.922 -53.6203 638.994C46.7466 738.467 208.169 738.047 308.102 638.114C408.241 537.975 408.25 375.658 308.149 275.557C263.126 230.533 205.531 205.766 146.664 201.242C79.3019 196.078 26.3756 142.886 21.1514 75.5115C16.5546 16.4033 -8.44222 -41.397 -53.8526 -86.469C-154.183 -186.026 -315.726 -185.679 -415.684 -85.697C-515.811 14.4299 -515.832 176.759 -415.731 276.86C-370.719 321.871 -313.137 346.626 -254.282 351.163C-186.896 356.351 -133.945 409.543 -128.709 476.929L-128.733 476.929Z" stroke="#E8F6FC" stroke-width="40" stroke-miterlimit="10"/>
</svg>
