<svg width="389" height="258" viewBox="0 0 389 258" fill="none" xmlns="http://www.w3.org/2000/svg">
<path opacity="0.8" d="M-143.151 191.131C-138.542 250.275 -113.521 308.124 -68.0378 353.196C32.3291 452.668 193.751 452.249 293.685 352.315C393.824 252.176 393.833 89.8596 293.732 -10.2414C248.708 -55.265 191.113 -80.0323 132.247 -84.5566C64.8844 -89.7203 11.9581 -142.913 6.73393 -210.287C2.13712 -269.395 -22.8597 -327.196 -68.2701 -372.268C-168.601 -471.825 -330.144 -471.477 -430.102 -371.495C-530.228 -271.369 -530.249 -109.04 -430.149 -8.93902C-385.137 36.0726 -327.554 60.8277 -268.7 65.3641C-201.313 70.552 -148.363 123.744 -143.126 191.131L-143.151 191.131Z" stroke="#E8F6FC" stroke-width="40" stroke-miterlimit="10"/>
</svg>
