<svg width="446" height="258" viewBox="0 0 446 258" fill="none" xmlns="http://www.w3.org/2000/svg">
<g clip-path="url(#clip0_32_2)">
<path opacity="0.8" d="M382.266 175.929C386.875 235.074 411.896 292.922 457.379 337.994C557.746 437.467 719.168 437.047 819.102 337.114C919.241 236.975 919.25 74.6581 819.149 -25.4428C774.125 -70.4665 716.53 -95.2337 657.664 -99.7581C590.301 -104.922 537.375 -158.114 532.151 -225.488C527.554 -284.597 502.557 -342.397 457.147 -387.469C356.816 -487.026 195.273 -486.679 95.3154 -386.697C-4.81142 -286.57 -4.83244 -124.241 95.2685 -24.1405C140.28 20.8711 197.863 45.6262 256.717 50.1627C324.104 55.3506 377.054 108.543 382.291 175.929H382.266Z" stroke="#E8F6FC" stroke-width="40" stroke-miterlimit="10"/>
</g>
<defs>
<clipPath id="clip0_32_2">
<rect width="446" height="258" fill="white"/>
</clipPath>
</defs>
</svg>
