<svg width="389" height="258" viewBox="0 0 389 258" fill="none" xmlns="http://www.w3.org/2000/svg">
<path opacity="0.8" d="M-143.151 473.131C-138.542 532.275 -113.521 590.124 -68.0378 635.196C32.3291 734.668 193.751 734.249 293.685 634.315C393.824 534.176 393.833 371.86 293.732 271.759C248.708 226.735 191.113 201.968 132.247 197.443C64.8844 192.28 11.9581 139.087 6.73393 71.713C2.13712 12.6048 -22.8597 -45.1955 -68.2701 -90.2675C-168.601 -189.825 -330.144 -189.477 -430.102 -89.4955C-530.228 10.6314 -530.249 172.96 -430.149 273.061C-385.137 318.073 -327.554 342.828 -268.7 347.364C-201.313 352.552 -148.363 405.744 -143.126 473.131L-143.151 473.131Z" stroke="#E8F6FC" stroke-width="40" stroke-miterlimit="10"/>
</svg>
