<svg width="504" height="258" viewBox="0 0 504 258" fill="none" xmlns="http://www.w3.org/2000/svg">
<path opacity="0.8" d="M382.266 446.929C386.875 506.074 411.896 563.922 457.379 608.994C557.746 708.467 719.168 708.047 819.102 608.114C919.241 507.975 919.25 345.658 819.149 245.557C774.125 200.533 716.53 175.766 657.664 171.242C590.301 166.078 537.375 112.886 532.151 45.5115C527.554 -13.5967 502.557 -71.397 457.147 -116.469C356.816 -216.026 195.273 -215.679 95.3154 -115.697C-4.81146 -15.5701 -4.83248 146.759 95.2685 246.86C140.28 291.871 197.863 316.626 256.717 321.163C324.104 326.351 377.054 379.543 382.291 446.929L382.266 446.929Z" stroke="#E8F6FC" stroke-width="40" stroke-miterlimit="10"/>
</svg>
