<svg width="76" height="72" viewBox="0 0 76 72" fill="none" xmlns="http://www.w3.org/2000/svg">
<path fill-rule="evenodd" clip-rule="evenodd" d="M70.9593 32.9756L68.2004 47.9496C66.2596 54.9134 64.8992 56.2071 62.654 58.3572C61.5029 59.4512 60.0855 60.8117 58.2874 63.1519H44.4359C44.7118 60.0982 45.3588 57.4439 47.9749 55.6554C48.206 55.4993 55.215 48.574 56.0706 47.7403C57.2202 46.62 59.1653 47.0259 59.7523 48.5109C60.1043 49.367 59.895 50.3374 59.2482 50.9748L53.5212 56.5876C52.7887 57.2973 53.3359 58.5188 54.3108 58.5188C54.5962 58.5188 54.8817 58.4141 55.1004 58.1954L60.8274 52.5921C61.8928 51.5456 62.359 50.0615 62.1211 48.6155C62.4255 48.4062 62.711 48.1779 62.9679 47.9306C64.2652 46.6681 64.4525 45.4555 64.8229 44.1252L68.6093 30.5688C68.7234 30.1787 69.0374 29.294 69.6558 29.4367C70.4266 29.6173 71.3302 30.9777 70.9593 32.9756ZM59.1722 68.9168C59.1722 69.2023 58.9439 69.44 58.6585 69.44H41.9341C41.6487 69.44 41.4109 69.2021 41.4109 68.9168V65.9296C41.4109 65.6442 41.6488 65.4065 41.9341 65.4065H58.6585C58.9439 65.4065 59.1722 65.6444 59.1722 65.9296V68.9168ZM70.1697 27.2391C68.7807 26.9157 67.0874 27.6386 66.4308 29.9598L62.5114 44.0491C62.1924 45.2117 62.0501 45.7431 61.1701 46.513C61.0844 46.399 60.9893 46.2943 60.8942 46.199C59.1438 44.4105 56.2803 44.3819 54.4918 46.1325L46.6147 53.8477C43.0377 56.3498 42.4003 60.2121 42.172 63.1517H41.9341C40.4024 63.1517 39.1562 64.398 39.1562 65.9296V68.9168C39.1562 70.4485 40.4024 71.6947 41.9341 71.6947H58.6585C60.1901 71.6947 61.4364 70.4485 61.4364 68.9168V65.9296C61.4364 65.1304 61.0938 64.417 60.5611 63.9128C62.0166 62.0863 63.1772 60.9827 64.2142 59.9933C66.6591 57.6531 68.2765 56.1119 70.3884 48.5013C70.398 48.4727 70.4074 48.4442 70.417 48.4062L73.1854 33.3847C73.7847 30.112 72.1198 27.6861 70.1697 27.2391ZM34.5802 68.9168C34.5802 69.2023 34.3423 69.44 34.0665 69.44H17.3325C17.0566 69.44 16.8188 69.2021 16.8188 68.9168V65.9296C16.8188 65.6442 17.0566 65.4065 17.3325 65.4065H34.0665C34.3423 65.4065 34.5802 65.6444 34.5802 65.9296V68.9168ZM13.3465 58.357C11.1014 56.207 9.74092 54.9132 7.79078 47.9494L5.03188 32.9754C4.67034 30.9776 5.57418 29.6173 6.33522 29.4365C6.95363 29.2939 7.27703 30.1786 7.3817 30.5686L11.1681 44.1251C11.5452 45.479 11.7334 46.6713 13.0327 47.9304C13.2896 48.1777 13.575 48.406 13.8794 48.6154C13.6415 50.0614 14.0982 51.5455 15.1732 52.5919L20.8907 58.1952C21.3341 58.6342 22.0479 58.6267 22.4889 58.1763C22.9266 57.7386 22.917 57.0157 22.4699 56.5875L16.7524 50.9746C15.8581 50.1015 15.8444 48.672 16.7238 47.7781C17.5895 46.8838 19.0355 46.8742 19.9202 47.7399C20.8024 48.6041 27.7307 55.4441 28.016 55.6551C30.6416 57.4436 31.279 60.0978 31.5549 63.1516H17.713C15.9151 60.8115 14.4977 59.451 13.3465 58.357ZM34.0666 63.1517H33.8289C33.591 60.2121 32.9536 56.3498 29.3768 53.8477L21.4997 46.1325C19.7208 44.3821 16.8572 44.4107 15.1068 46.199C15.0118 46.2941 14.9165 46.3988 14.831 46.513C13.7956 45.6075 13.7039 44.8656 13.3469 43.5164L9.56049 29.9598C8.91352 27.6386 7.22025 26.9157 5.83122 27.2391C3.8715 27.6861 2.2162 30.112 2.81546 33.3847L5.60291 48.5013C7.72442 56.112 9.34158 57.6531 11.7865 59.9933C12.8234 60.9827 13.9841 62.0863 15.4396 63.9128C14.8973 64.417 14.5644 65.1304 14.5644 65.9296V68.9168C14.5644 70.4485 15.8106 71.6947 17.3328 71.6947H34.0668C35.5985 71.6947 36.8447 70.4485 36.8447 68.9168V65.9296C36.8445 64.398 35.5983 63.1517 34.0666 63.1517ZM42.7998 26.5731L48.8597 22.1875L41.3728 22.197C40.878 22.197 40.45 21.883 40.2978 21.417L37.9955 14.2915L35.7028 21.417C35.5506 21.8832 35.1129 22.197 34.6278 22.197L27.1408 22.1875L33.2008 26.5731C33.6003 26.8585 33.7621 27.3723 33.6099 27.8383L31.2886 34.9543L37.3295 30.5401C37.7343 30.2476 38.2611 30.2511 38.6614 30.5401L44.712 34.9543L42.3811 27.8383C42.2291 27.3721 42.4003 26.8584 42.7998 26.5731ZM52.3513 19.9138L42.191 19.9327L39.0707 10.2672C38.7318 9.22391 37.2546 9.23886 36.9206 10.2672L33.8002 19.9327L23.6401 19.9138C22.5744 19.9138 22.0775 21.3076 22.9837 21.9592L31.2127 27.9146L28.0543 37.5705C27.7147 38.6096 28.9136 39.4723 29.7952 38.8358L37.9957 32.8519L46.2057 38.8358C47.1035 39.4836 48.2818 38.5962 47.9466 37.5705L44.7882 27.9146L53.0172 21.9592C53.9031 21.3221 53.4293 19.9138 52.3513 19.9138ZM62.0644 22.3111C61.5886 21.6072 60.8847 21.0553 60.0094 20.7699H59.9808C59.41 20.5795 59.039 20.18 58.8868 19.5998C58.8582 19.4951 58.8297 19.4 58.8011 19.2953C58.6489 18.7245 58.7726 18.1823 59.1721 17.7447L59.1911 17.7161C60.2757 16.5175 60.5134 14.8716 59.838 13.4447H71.6726L68.5046 17.1454C68.1431 17.5641 68.1431 18.1919 68.5046 18.6106L71.6726 22.3113L62.0644 22.3111ZM60.4662 25.5646V24.5086C60.4662 23.7569 60.0285 23.1481 59.315 22.9198C57.9579 22.4761 57.0811 21.5386 56.6989 20.1705C56.6704 20.0754 56.6514 19.9897 56.6228 19.8946C56.2613 18.5818 56.5847 17.2404 57.4981 16.232L57.5171 16.2035C58.0119 15.6518 58.0974 14.9097 57.7168 14.2532L57.1937 13.3399C56.8226 12.6929 56.1376 12.3885 55.4052 12.5503C54.1213 12.8525 52.633 12.431 51.752 11.4753C51.6949 11.4088 51.6284 11.3421 51.5617 11.2755C50.5913 10.3241 50.1918 9.00182 50.4772 7.66991C50.6501 6.92315 50.348 6.22545 49.6876 5.84342L48.7744 5.31069C48.1274 4.93974 47.3854 5.01568 46.8242 5.52002C45.8154 6.47526 44.4764 6.73718 43.1331 6.4047C43.0476 6.38572 42.9619 6.35716 42.8668 6.33818C41.5445 5.98622 40.5456 5.04441 40.1269 3.75047L40.1079 3.72191C39.8796 3.00842 39.2708 2.56137 38.5287 2.56137H37.4727C36.6964 2.56137 36.1164 3.01396 35.8745 3.75047C35.4558 5.04424 34.4571 5.98605 33.1346 6.33818C33.0395 6.35716 32.9538 6.38572 32.8681 6.4047C31.5458 6.76624 30.2045 6.45225 29.196 5.539C28.6502 5.01988 27.8718 4.93202 27.2171 5.31069L26.3039 5.84342C25.6569 6.21436 25.3525 6.89946 25.5143 7.63194V7.67008C25.7997 9.00198 25.4096 10.3243 24.4392 11.2757C24.3727 11.3422 24.306 11.4089 24.2395 11.4754C23.2787 12.4458 21.9658 12.8359 20.6339 12.5601C19.8757 12.3868 19.1936 12.6723 18.8074 13.3401L18.2746 14.2533C17.9037 14.9097 17.9798 15.6518 18.484 16.2036L18.503 16.2322C19.4162 17.2501 19.7302 18.582 19.3687 19.8948C19.3497 19.9899 19.3211 20.0755 19.3021 20.1706C18.9502 21.493 18.0084 22.4919 16.7144 22.9105C15.9779 23.1525 15.5253 23.7324 15.5253 24.5087V25.5648C15.5253 26.3068 15.9724 26.9157 16.6859 27.144L16.7144 27.163C18.0082 27.5816 18.95 28.5804 19.3021 29.9029C19.3211 29.998 19.3497 30.0836 19.3687 30.1691C19.7302 31.4915 19.4162 32.8234 18.503 33.8413C17.9817 34.3922 17.9005 35.1636 18.2746 35.8106L18.8074 36.7238C19.1783 37.3708 19.8634 37.6752 20.5959 37.523C21.9389 37.2164 23.2679 37.6216 24.2395 38.598C24.306 38.6646 24.3727 38.7313 24.4298 38.7884C25.4098 39.7492 25.7997 41.0715 25.5144 42.4034V42.4415C25.3527 43.174 25.6571 43.859 26.304 44.2301L27.2173 44.7532C27.8643 45.1337 28.6157 45.0481 29.1676 44.5535L29.1962 44.5345C29.9286 43.8685 30.8419 43.5166 31.7933 43.5166C32.4414 43.5166 32.6098 43.615 33.1346 43.7353C34.4569 44.0779 35.4558 45.0195 35.8745 46.323C36.1156 47.0592 36.6965 47.5027 37.4727 47.5027H38.5287C39.2708 47.5027 39.8796 47.0651 40.1079 46.3516L40.1269 46.323C40.5456 45.0197 41.5443 44.0779 42.8668 43.7353C42.9619 43.7163 43.0476 43.6878 43.1331 43.6688C44.4554 43.2978 45.7873 43.6212 46.8052 44.5345C47.3536 45.0539 48.1272 45.129 48.7745 44.7532L49.6878 44.2301C50.3477 43.8517 50.6498 43.1478 50.4774 42.4034C50.192 41.0715 50.5915 39.7492 51.5618 38.7884C51.6285 38.7313 51.6951 38.6647 51.7522 38.598C52.7131 37.6277 54.0259 37.2282 55.3672 37.5136C56.1121 37.6855 56.8154 37.3842 57.1939 36.724L57.717 35.8108C58.0928 35.1634 58.0176 34.3898 57.4983 33.8415C56.585 32.8235 56.2615 31.4916 56.623 30.1693C56.6516 30.0836 56.6801 29.9981 56.6991 29.903C57.0415 28.5807 57.9833 27.5818 59.2866 27.1631L59.3152 27.1441C60.0285 26.9155 60.4662 26.3067 60.4662 25.5646ZM7.49594 18.6104C7.85747 18.1917 7.85747 17.5639 7.49594 17.1453L4.32796 13.4446H16.1626C15.4884 14.8687 15.731 16.5961 16.8285 17.7445C17.228 18.1822 17.3517 18.7243 17.19 19.2952C17.1615 19.3998 17.1425 19.4949 17.1139 19.5996C16.9617 20.1799 16.5812 20.5794 16.0103 20.7697H15.9818C15.1161 21.0551 14.4026 21.6069 13.927 22.3109H4.32796L7.49594 18.6104ZM70.845 17.8779L74.9834 13.0451C75.6161 12.3065 75.0728 11.1804 74.1273 11.1804H58.2971C57.3934 10.4002 56.1756 10.0768 54.9294 10.3337C54.1 10.5227 53.6553 10.2012 53.1504 9.66777C52.7173 9.21014 52.5461 8.73503 52.6938 8.09815C53.0554 6.40471 52.3227 4.7494 50.8198 3.8837L49.9065 3.36054C48.4034 2.49484 46.6053 2.68502 45.3116 3.83615C44.953 4.24859 44.2849 4.38602 43.7324 4.22625C43.6373 4.19769 43.5326 4.1787 43.4374 4.15014C42.8329 3.9803 42.4552 3.6191 42.2577 3.01799C41.7249 1.37226 40.2598 0.306641 38.5284 0.306641H37.4723C35.7409 0.306641 34.2758 1.3721 33.7335 3.01799V3.04655C33.5432 3.61742 33.1437 3.99794 32.5634 4.15014C31.8566 4.33914 31.2977 4.42113 30.6798 3.83615C29.3954 2.68502 27.5879 2.49484 26.0944 3.36054L25.1811 3.8837C23.6735 4.74974 22.9209 6.45645 23.3069 8.13611C23.4306 8.72596 23.2784 9.24911 22.8503 9.66777C22.7742 9.74387 22.7077 9.8104 22.6316 9.8865C22.1991 10.3238 21.6656 10.4718 21.0619 10.3337C19.8251 10.0768 18.6075 10.4002 17.6942 11.1804H1.87348C0.905632 11.1804 0.390208 12.325 1.01735 13.0451L5.1557 17.8779L1.01735 22.7012C0.391552 23.4293 0.90076 24.5658 1.87348 24.5658H13.2704V25.5648C13.2704 27.3249 14.333 28.7443 16.0103 29.3034C16.5812 29.4938 16.9617 29.8933 17.1139 30.4736C17.1425 30.5686 17.1615 30.6733 17.19 30.7686C17.3498 31.321 17.2119 31.9913 16.7999 32.3478C15.6394 33.6415 15.4586 35.4396 16.3243 36.9427L16.8477 37.856C17.7155 39.3668 19.4081 40.1095 21.1001 39.7206C21.6899 39.597 22.2131 39.7588 22.6317 40.1868C23.165 40.6915 23.487 41.1365 23.2977 41.9658C22.9457 43.6686 23.6782 45.3145 25.1813 46.1896L26.0945 46.7128C27.5881 47.5785 29.3956 47.3883 30.6799 46.2276L30.7085 46.2086C31.1461 45.8091 31.6883 45.6855 32.2591 45.8377C32.3638 45.8662 32.4589 45.8948 32.5636 45.9233C33.1438 46.0756 33.5435 46.4561 33.7337 47.0174V47.0459C34.276 48.7012 35.7409 49.7573 37.4725 49.7573H38.5286C40.2632 49.7573 41.7832 48.6631 42.2672 47.0175C42.4576 46.4562 42.8571 46.0757 43.4374 45.9235C43.5324 45.895 43.6371 45.8664 43.7324 45.8378C44.3015 45.6779 44.8821 45.8207 45.3116 46.2279C46.6053 47.3885 48.4034 47.5788 49.9065 46.7131L50.8198 46.19C52.3288 45.3184 53.0728 43.628 52.6844 41.9375C52.5608 41.3477 52.7225 40.815 53.1506 40.3965C53.2173 40.33 53.2932 40.2538 53.3599 40.1872C53.7949 39.7473 54.332 39.5924 54.9296 39.7305C56.6324 40.0921 58.2783 39.3596 59.144 37.8565L59.6767 36.9432C60.5424 35.4401 60.3523 33.642 59.1916 32.3578C58.6219 31.6265 58.6714 31.265 58.8871 30.4742C59.0524 29.8684 59.4024 29.4936 60.0097 29.2945C61.665 28.7618 62.7211 27.2968 62.7211 25.5653V24.5663H74.1276C75.0778 24.5663 75.6156 23.4488 74.9837 22.7017L70.845 17.8779Z" fill="#CF7B41"/>
</svg>
