<svg width="76" height="72" viewBox="0 0 76 72" fill="none" xmlns="http://www.w3.org/2000/svg">
<path fill-rule="evenodd" clip-rule="evenodd" d="M64.286 26.6059C63.8473 27.0407 63.8473 27.7593 64.286 28.1941L66.1019 30.009L56.7719 31.0867L57.8504 21.7566L59.6673 23.5717C60.1105 24.0117 60.8112 24.0119 61.2544 23.5717L69.6968 15.1304L72.7283 18.1648L64.286 26.6059ZM74.393 16.6521L71.2064 13.4665C70.3718 12.628 69.0206 12.6403 68.1881 13.4665L60.4605 21.1895L57.7967 18.5332C57.125 17.8657 55.9972 18.2671 55.89 19.195L54.3824 32.2398C54.2918 32.999 54.9946 33.5828 55.6254 33.4782L68.6656 31.9752C69.5936 31.8602 69.9936 30.7275 69.3292 30.0657L66.6654 27.4001L74.393 19.6677C75.225 18.8356 75.225 17.4839 74.393 16.6521ZM9.90019 30.009L11.7151 28.1941C12.1514 27.7606 12.1556 27.0434 11.7151 26.6059L3.27276 18.1646L6.30432 15.1302L14.7467 23.5715C15.1853 24.0063 15.8961 24.0063 16.3337 23.5715L18.1507 21.7565L19.2292 31.0865L9.90019 30.009ZM20.5054 33.4876C21.1703 33.4876 21.6973 32.8979 21.6189 32.2398L20.1121 19.195C20.0071 18.2864 18.8934 17.8483 18.2044 18.5332L15.5416 21.1895L7.81296 13.4665C6.98438 12.6332 5.62476 12.6329 4.79568 13.4665L1.60805 16.6521C0.777957 17.4857 0.772413 18.8375 1.60805 19.6675L9.33571 27.3999L6.6719 30.0656C6.00847 30.7272 6.40713 31.86 7.33651 31.9751L20.5054 33.4876ZM34.7356 15.9526C35.3549 15.9526 35.8577 15.4516 35.8577 14.8276V2.88872H40.1446V14.8276C40.1446 15.4516 40.6465 15.9526 41.2656 15.9526H43.8348L38.0005 23.3068L32.1662 15.9526H34.7356ZM37.1216 25.8118C37.5587 26.3753 38.4325 26.3833 38.8807 25.8118L47.0347 15.5272C47.6143 14.793 47.0897 13.7123 46.1566 13.7123H42.3879V2.77532C42.3879 1.60318 41.4321 0.648438 40.2543 0.648438H35.7472C34.5703 0.648438 33.6137 1.60318 33.6137 2.77532V13.7123H29.8458C28.9116 13.7123 28.3881 14.793 28.9677 15.5272L37.1216 25.8118ZM50.1417 64.7954C54.4807 61.26 57.2569 55.8813 57.2569 49.8598C57.2569 39.2443 48.6198 30.6043 38.0005 30.6043C27.3821 30.6043 18.7451 39.2443 18.7451 49.8598C18.7451 55.8813 21.5204 61.26 25.8592 64.7954V60.9292C25.8592 55.7679 29.0902 51.3629 33.6322 49.5952C31.785 48.2529 30.5818 46.0694 30.5818 43.6116C30.5818 39.5184 33.9102 36.191 38.0004 36.191C42.0905 36.191 45.4189 39.5184 45.4189 43.6116C45.4189 46.0693 44.2165 48.2529 42.3675 49.5952C46.9114 51.3629 50.1416 55.7679 50.1416 60.9292V64.7954H50.1417ZM32.8261 43.6116C32.8261 40.7568 35.1467 38.4315 38.0007 38.4315C40.8545 38.4315 43.1761 40.7569 43.1761 43.6116C43.1761 46.4662 40.8545 48.7823 38.0007 48.7823C35.1467 48.7823 32.8261 46.4662 32.8261 43.6116ZM28.1025 66.3739V60.929C28.1025 55.4653 32.5434 51.032 38.0005 51.032C43.4585 51.032 47.8986 55.4653 47.8986 60.929V66.3739C41.8136 70.0304 34.1874 70.0304 28.1025 66.3739ZM38.0005 28.3547C26.1448 28.3547 16.5011 38.0059 16.5011 49.8598C16.5011 61.7137 26.1448 71.3556 38.0005 71.3556C49.8563 71.3556 59.5 61.7137 59.5 49.8598C59.5 38.0059 49.8563 28.3547 38.0005 28.3547Z" fill="#CF7B41"/>
</svg>
