<svg width="70" height="74" viewBox="0 0 70 74" fill="none" xmlns="http://www.w3.org/2000/svg">
<path fill-rule="evenodd" clip-rule="evenodd" d="M21.2869 25.9629V20.7243C21.2869 20.6215 21.3769 20.5302 21.4801 20.5302H27.8091C28.4259 20.5302 28.9255 20.0299 28.9255 19.4144V13.085C28.9255 12.9822 29.0159 12.893 29.1187 12.893H34.3566C34.4594 12.893 34.5498 12.9823 34.5498 13.085V19.4144C34.5498 20.0299 35.0494 20.5302 35.6662 20.5302H41.9952C42.098 20.5302 42.1884 20.6215 42.1884 20.7243V25.9629C42.1884 26.0657 42.0979 26.1549 41.9952 26.1549H35.6662C35.0494 26.1549 34.5498 26.6542 34.5498 27.2707V33.6003C34.5498 33.7031 34.4594 33.7933 34.3566 33.7933H29.1187C29.0159 33.7933 28.9255 33.7031 28.9255 33.6003V27.2707C28.9255 26.6542 28.4259 26.1549 27.8091 26.1549H21.4801C21.3769 26.1549 21.2869 26.0655 21.2869 25.9629ZM26.6929 28.3876V33.6003C26.6929 34.9391 27.7812 36.0271 29.1189 36.0271H34.3568C35.6945 36.0271 36.7827 34.9391 36.7827 33.6003V28.3876H41.9954C43.3332 28.3876 44.4213 27.2986 44.4213 25.9629V20.7243C44.4213 19.3855 43.333 18.2975 41.9954 18.2975H36.7827V13.0848C36.7827 11.748 35.6944 10.6591 34.3568 10.6591H29.1189C27.7811 10.6591 26.6929 11.748 26.6929 13.0848V18.2975H21.4802C20.1426 18.2975 19.0543 19.3855 19.0543 20.7243V25.9629C19.0543 27.2986 20.1426 28.3876 21.4802 28.3876H26.6929ZM14.1862 10.7128C13.9102 24.867 15.3071 37.8458 31.738 42.8472C48.1685 37.8458 49.5655 24.867 49.2894 10.7128C42.9784 9.83032 36.8116 7.03093 31.738 2.74408C26.6644 7.02908 20.4973 9.83032 14.1862 10.7128ZM31.4221 45.0848C31.6252 45.1434 31.8505 45.1441 32.0535 45.0848C40.6149 42.5601 46.169 37.843 49.0339 30.6637C51.6223 24.1748 51.6643 16.4384 51.5003 9.69692C51.4869 9.13698 51.061 8.67414 50.5044 8.61467C44.0166 7.9136 37.6272 5.01527 32.5135 0.458603C32.0763 0.0629631 31.3998 0.0622911 30.963 0.458603C25.8492 5.01527 19.4594 7.91159 12.9712 8.61467C12.4144 8.67414 11.9887 9.13698 11.9751 9.69692C11.8112 16.4384 11.8533 24.1747 14.4417 30.6637C17.3064 37.843 22.861 42.5601 31.4221 45.0848ZM66.9155 47.5576C66.6931 48.3863 66.1652 49.0768 65.4285 49.5032L49.4309 61.9595C45.8901 64.7551 43.5511 66.6017 38.8346 67.854C31.7407 69.7373 28.082 67.251 20.9035 67.1885C18.517 67.1674 16.0459 67.348 13.5387 67.7196V55.7252L24.3428 51.6736C24.3556 51.6687 24.3678 51.664 24.3799 51.6583L30.9455 48.9232C32.142 48.4266 33.289 48.325 34.5542 48.6082L39.1498 49.6319C40.8574 50.0126 41.9616 51.7354 41.5784 53.4549C41.1942 55.1787 39.4796 56.2687 37.7562 55.8826L33.9206 55.028C32.9588 54.8138 32.0506 54.8965 31.1428 55.2805L26.3986 57.2848C25.2824 57.7584 25.6255 59.4301 26.8337 59.4301C26.9785 59.4301 27.126 59.4022 27.2678 59.3428L32.0125 57.3357C32.4899 57.1349 32.9286 57.0946 33.4349 57.208L37.2702 58.0636C40.4899 58.7817 43.6078 56.4601 43.8709 53.192C46.9353 52.9631 48.0987 52.1087 50.5802 50.6807L62.2266 43.9565C64.6793 42.5402 67.6537 44.7965 66.9155 47.5576ZM11.306 71.1518C11.306 71.3986 11.097 71.6079 10.8495 71.6079H3.42796C3.18033 71.6079 2.97151 71.3986 2.97151 71.1518V54.1233C2.97151 53.8747 3.18033 53.6662 3.42796 53.6662H10.8495C11.0972 53.6662 11.306 53.8745 11.306 54.1233V71.1518ZM68.534 44.0111C69.2578 45.2652 69.4486 46.7298 69.0719 48.1348C68.7025 49.5129 67.8314 50.6681 66.6149 51.395L52.2269 62.601C47.9958 65.8986 45.2786 68.4548 39.407 70.0128C31.6946 72.0592 28.0591 69.4849 20.8843 69.4213C18.5105 69.3992 16.0438 69.5884 13.5387 69.9782V71.1517C13.5387 72.6334 12.3323 73.8405 10.8494 73.8405H3.42796C1.94503 73.8405 0.738281 72.6334 0.738281 71.1517V54.1232C0.738281 52.6394 1.94503 51.4333 3.42796 51.4333H10.8495C12.0748 51.4333 13.109 52.2582 13.4322 53.3799L23.5399 49.5885L30.087 46.8631C31.7067 46.188 33.3269 46.0459 35.0399 46.4289L39.6355 47.4527C41.4781 47.8638 42.9678 49.2255 43.5825 50.9762C45.8824 50.8292 46.6901 50.3588 48.8368 49.1094L61.1094 42.0221C63.705 40.5243 67.0358 41.4173 68.534 44.0111Z" fill="#CF7B41"/>
</svg>
