<svg width="913" height="540" viewBox="0 0 913 540" fill="none" xmlns="http://www.w3.org/2000/svg">
<path opacity="0.2" d="M371.531 294.499C376.225 354.727 401.704 413.635 448.019 459.532C550.224 560.826 714.602 560.398 816.365 458.635C918.338 356.662 918.347 191.374 816.413 89.4402C770.565 43.5922 711.915 18.3714 651.971 13.7643C583.375 8.50599 529.48 -45.6602 524.16 -114.268C519.479 -174.459 494.025 -233.317 447.783 -279.214C345.615 -380.594 181.114 -380.241 79.3265 -278.428C-22.6337 -176.468 -22.6551 -11.1674 79.2787 90.7664C125.114 136.602 183.752 161.81 243.684 166.43C312.304 171.713 366.224 225.879 371.556 294.499L371.531 294.499Z" stroke="#4AB6E5" stroke-width="40" stroke-miterlimit="10"/>
</svg>
