<svg width="368" height="367" viewBox="0 0 368 367" fill="none" xmlns="http://www.w3.org/2000/svg">
<path opacity="0.2" d="M56.9997 194.403C29.9725 197.756 3.96726 210.443 -15.7497 232.245C-59.265 280.357 -55.6904 354.377 -7.76751 398.112C40.2543 441.938 114.692 438.542 158.501 390.538C178.206 368.947 188.358 342.015 189.199 314.924C190.156 283.924 213.441 258.537 244.229 254.73C271.24 251.384 297.223 238.709 316.942 216.94C360.497 168.842 356.953 94.7662 309.007 51.0206C260.992 7.20025 186.548 10.5915 142.739 58.5948C123.039 80.1799 112.893 107.106 112.046 134.192C111.078 165.204 87.7938 190.601 57.0003 194.414L56.9997 194.403Z" stroke="#4AB6E5" stroke-width="40" stroke-miterlimit="10"/>
</svg>
