<svg width="474" height="330" viewBox="0 0 474 330" fill="none" xmlns="http://www.w3.org/2000/svg">
<path d="M524 0V140.515C524 193.015 514.727 241.397 496.18 285.662C477.634 329.926 446.208 374.706 401.902 420L321.534 356.691C354.505 322.721 377.688 291.324 391.083 262.5C404.478 233.676 411.175 202.794 411.175 169.853L459.087 214.632H307.624V0H524ZM216.437 0V140.515C216.437 193.015 207.163 241.397 188.617 285.662C170.07 329.926 138.644 374.706 94.3387 420L13.9705 356.691C46.942 322.721 70.1252 291.324 83.52 262.5C96.9147 233.676 103.612 202.794 103.612 169.853L151.524 214.632H0.0606079V0H216.437Z" fill="#494F59"/>
</svg>
