<svg width="539" height="331" viewBox="0 0 539 331" fill="none" xmlns="http://www.w3.org/2000/svg">
<path d="M0 331V190.485C0 137.985 9.52889 89.603 28.5867 45.3382C47.6445 1.07355 79.9368 -43.7059 125.464 -89L208.047 -25.6912C174.167 8.2794 150.345 39.6765 136.581 68.5001C122.817 97.3236 115.935 128.206 115.935 161.147L66.7022 116.368H222.341V331H0ZM316.042 331V190.485C316.042 137.985 325.57 89.603 344.628 45.3382C363.686 1.07355 395.978 -43.7059 441.505 -89L524.089 -25.6912C490.209 8.2794 466.386 39.6765 452.622 68.5001C438.858 97.3236 431.976 128.206 431.976 161.147L382.744 116.368H538.382V331H316.042Z" fill="#494F59"/>
</svg>
