<svg width="566" height="552" viewBox="0 0 566 552" fill="none" xmlns="http://www.w3.org/2000/svg">
<path opacity="0.8" d="M126.329 345.021C130.633 394.452 151.998 442.645 190.381 479.997C275.08 562.431 410.085 560.856 492.909 476.516C575.902 392.003 574.678 256.246 490.197 173.284C452.199 135.969 403.84 115.692 354.572 112.354C298.193 108.547 253.523 64.4596 248.642 8.14962C244.349 -41.2517 223.004 -89.405 184.682 -126.757C100.013 -209.263 -35.094 -207.746 -117.937 -123.365C-200.92 -38.8632 -199.706 96.9041 -115.226 179.866C-77.2373 217.171 -28.8888 237.438 20.3693 240.786C76.7692 244.614 121.459 288.7 126.35 345.021L126.329 345.021Z" stroke="#F2FBFF" stroke-width="22" stroke-miterlimit="10"/>
</svg>
