<svg width="577" height="567" viewBox="0 0 577 567" fill="none" xmlns="http://www.w3.org/2000/svg">
<path opacity="0.8" d="M314.197 544.788C318.086 594.254 339.047 642.624 377.115 680.297C461.12 763.437 596.134 762.994 679.661 679.351C763.36 595.536 763.274 459.774 679.491 376.107C641.807 338.475 593.62 317.793 544.381 314.043C488.036 309.763 443.737 265.303 439.329 208.954C435.45 159.518 414.509 111.188 376.502 73.5156C292.527 -9.6963 157.412 -9.31184 73.8643 74.3713C-9.82358 158.175 -9.74729 293.948 74.0346 377.615C111.709 415.237 159.886 435.909 209.114 439.669C265.48 443.969 309.798 488.428 314.217 544.788L314.197 544.788Z" stroke="#F2FBFF" stroke-width="22" stroke-miterlimit="10"/>
</svg>
