<svg width="867" height="957" viewBox="0 0 867 957" fill="none" xmlns="http://www.w3.org/2000/svg">
<path opacity="0.8" d="M532.8 288.859C535.568 229.6 517.922 169.093 478.384 118.724C391.141 7.5631 230.915 -12.0584 119.352 74.701C7.55346 161.63 -12.6017 322.692 74.3003 434.445C113.387 484.709 167.462 516.434 225.312 528.23C291.513 541.715 337.427 601.066 334.248 668.568C331.472 727.789 349.1 788.246 388.565 838.606C475.762 949.847 636.099 969.554 747.695 882.752C859.475 795.829 879.645 634.758 792.744 523.006C753.667 472.756 699.603 441.044 641.767 429.237C575.545 415.725 529.607 356.372 532.775 288.856L532.8 288.859Z" stroke="#E8F6FC" style="stroke:#E8F6FC;stroke:color(display-p3 0.9098 0.9647 0.9882);stroke-opacity:1;" stroke-width="40" stroke-miterlimit="10"/>
</svg>
