<svg width="486" height="486" viewBox="0 0 486 486" fill="none" xmlns="http://www.w3.org/2000/svg">
<g clip-path="url(#clip0_265_218)">
<path opacity="0.8" d="M57.6523 253.022C64.7619 291.979 85.3398 328.995 118.634 356.458C192.104 417.069 299.289 408.237 358.821 336.703C418.481 265.027 407.375 157.441 334.038 96.398C301.053 68.9424 261.104 55.5792 221.697 55.6999C176.602 55.8476 137.809 23.3965 129.727 -20.9828C122.629 -59.916 102.07 -96.9019 68.8242 -124.369C-4.62775 -185.039 -111.898 -176.247 -171.445 -104.681C-231.093 -33.011 -219.996 74.5825 -146.66 135.625C-113.683 163.073 -73.7433 176.429 -34.3429 176.317C10.7692 176.184 49.5783 208.634 57.6693 253.021L57.6523 253.022Z" stroke="#F6FCFF" style="stroke:#F6FCFF;stroke:color(display-p3 0.9655 0.9898 1.0000);stroke-opacity:1;" stroke-width="40" stroke-miterlimit="10"/>
</g>
<defs>
<clipPath id="clip0_265_218">
<rect width="717.831" height="364.814" fill="white" style="fill:white;fill-opacity:1;" transform="translate(-65.291 -254) rotate(39.8384)"/>
</clipPath>
</defs>
</svg>
