<svg width="528" height="488" viewBox="0 0 528 488" fill="none" xmlns="http://www.w3.org/2000/svg">
<g opacity="0.2">
<path fill-rule="evenodd" clip-rule="evenodd" d="M297.206 505.141C296.287 489.575 290.554 476.097 280.007 464.707C269.12 452.949 255.64 446.165 239.566 444.354C218.039 441.927 197.626 435.924 178.327 426.345C158.336 416.423 140.692 403.222 125.394 386.741C108.388 368.419 95.6675 347.584 87.2342 324.234C79.095 301.698 75.4975 278.395 76.4418 254.327C77.3858 230.267 82.7959 207.293 92.6721 185.407C102.9 162.741 117.198 142.883 135.568 125.832C153.907 108.806 174.717 96.0293 198.001 87.5025C220.497 79.2642 243.744 75.5435 267.741 76.3405C291.746 77.1378 314.67 82.3951 336.513 92.1124C359.132 102.175 378.966 116.319 396.017 134.546C411.453 151.05 423.417 169.676 431.911 190.423C440.111 210.453 444.63 231.342 445.469 253.088C446.09 269.3 451.843 283.285 462.728 295.043C473.607 306.795 487.078 313.574 503.14 315.378C524.67 317.8 545.089 323.803 564.397 333.386C584.39 343.309 602.038 356.514 617.34 372.999C634.347 391.321 647.067 412.157 655.501 435.505C663.641 458.041 667.24 481.343 666.296 505.411C665.353 529.471 659.943 552.444 650.067 574.331C639.839 596.997 625.538 616.857 607.165 633.911C588.832 650.928 568.03 663.701 544.76 672.228C522.272 680.468 499.036 684.194 475.05 683.406C451.055 682.617 428.138 677.371 406.298 667.666C383.685 657.618 363.85 643.489 346.795 625.279C331.335 608.775 319.352 590.141 310.844 569.375C302.634 549.336 298.108 528.437 297.265 506.677L297.206 505.141ZM340.24 507.108C341.086 523.059 344.523 538.392 350.551 553.107C357.063 569.002 366.25 583.281 378.112 595.944C391.205 609.923 406.409 620.759 423.723 628.453C440.463 635.891 458.042 639.913 476.46 640.518C494.886 641.124 512.731 638.264 529.996 631.937C547.864 625.39 563.856 615.564 577.973 602.461C592.11 589.339 603.103 574.079 610.954 556.682C618.539 539.873 622.693 522.223 623.418 503.73C624.143 485.246 621.384 467.364 615.143 450.084C608.686 432.21 598.936 416.246 585.89 402.192C574.148 389.542 560.624 379.419 545.319 371.822C530.525 364.479 514.866 359.878 498.343 358.019C485.232 356.547 472.853 352.837 461.207 346.889C449.88 341.104 439.89 333.539 431.238 324.193C422.596 314.856 415.819 304.318 410.909 292.576C405.868 280.522 403.095 267.908 402.59 254.732C401.946 238.047 398.483 222.029 392.199 206.68C385.697 190.797 376.523 176.522 364.677 163.856C351.592 149.868 336.39 139.023 319.072 131.318C302.328 123.87 284.743 119.839 266.317 119.227C247.881 118.615 230.028 121.471 212.757 127.796C194.881 134.343 178.883 144.17 164.765 157.278C150.628 170.4 139.635 185.659 131.785 203.056C124.2 219.865 120.045 237.516 119.319 256.009C118.594 274.494 121.352 292.377 127.593 309.658C134.049 327.531 143.799 343.495 156.844 357.549C168.581 370.193 182.101 380.313 197.404 387.908C212.194 395.249 227.851 399.851 244.375 401.714C257.488 403.191 269.869 406.904 281.517 412.854C292.847 418.64 302.839 426.206 311.493 435.553C320.139 444.89 326.918 455.43 331.832 467.172C336.876 479.227 339.652 491.844 340.16 505.022L340.24 507.108Z" fill="#94DFFF"/>
</g>
</svg>
