<?xml version="1.0" encoding="UTF-8"?> <svg xmlns="http://www.w3.org/2000/svg" id="Layer_3" data-name="Layer 3" viewBox="0 0 90 90"><defs><style> .cls-1 { fill: #3c2cda; } .cls-1, .cls-2 { stroke-width: 0px; } .cls-2 { fill: #ea9d00; } </style></defs><path class="cls-1" d="m72.61,13.79h-2.4v-1.2c0-1.99-1.61-3.6-3.6-3.6s-3.6,1.61-3.6,3.6v1.2h-7.2v-1.2c0-1.99-1.61-3.6-3.6-3.6s-3.6,1.61-3.6,3.6v1.2h-7.2v-1.2c0-1.99-1.61-3.6-3.6-3.6s-3.6,1.61-3.6,3.6v1.2h-7.2v-1.2c0-1.99-1.61-3.6-3.6-3.6s-3.6,1.61-3.6,3.6v1.2h-2.4c-4.64,0-8.4,3.76-8.4,8.4v50.41c0,4.64,3.76,8.4,8.4,8.4h55.21c4.64,0,8.4-3.76,8.4-8.4V22.2c0-4.64-3.76-8.4-8.4-8.4Zm-7.2-1.2c0-.66.54-1.2,1.2-1.2s1.2.54,1.2,1.2v4.8c0,.66-.54,1.2-1.2,1.2s-1.2-.54-1.2-1.2v-4.8Zm-14.4,0c0-.66.54-1.2,1.2-1.2s1.2.54,1.2,1.2v4.8c0,.66-.54,1.2-1.2,1.2s-1.2-.54-1.2-1.2v-4.8Zm-14.4,0c0-.66.54-1.2,1.2-1.2s1.2.54,1.2,1.2v4.8c0,.66-.54,1.2-1.2,1.2s-1.2-.54-1.2-1.2v-4.8Zm-14.4,0c0-.66.54-1.2,1.2-1.2s1.2.54,1.2,1.2v4.8c0,.66-.54,1.2-1.2,1.2s-1.2-.54-1.2-1.2v-4.8Zm50.41,66.01H17.39c-3.31,0-6-2.69-6-6V25.8h67.21v46.81c0,3.31-2.69,6-6,6Zm6-55.21H11.39v-1.2c0-3.31,2.69-6,6-6h2.4v1.2c0,1.99,1.61,3.6,3.6,3.6s3.6-1.61,3.6-3.6v-1.2h7.2v1.2c0,1.99,1.61,3.6,3.6,3.6s3.6-1.61,3.6-3.6v-1.2h7.2v1.2c0,1.99,1.61,3.6,3.6,3.6s3.6-1.61,3.6-3.6v-1.2h7.2v1.2c0,1.99,1.61,3.6,3.6,3.6s3.6-1.61,3.6-3.6v-1.2h2.4c3.31,0,6,2.69,6,6v1.2Z"></path><path class="cls-2" d="m65.4,42.6c0-7.17-7.09-10.08-12.38-7.5-2.26-7.62-13.78-7.64-16.04,0-5.33-2.6-12.38.38-12.38,7.5,0,3.96,2.18,8.28,5.4,10.01-.56.96-.77,2.09-.6,3.19,0,1.33,1.07,2.4,2.4,2.4h.07c.41,3.49,2.33,3.83,2.33,7.2,0,3.72-2.4,3.86-2.4,8.4,0,.66.54,1.2,1.2,1.2s1.2-.54,1.2-1.2c0-3.72,2.4-3.86,2.4-8.4,0-4.03-1.91-4.66-2.31-7.21,1.29-.05,2.31-1.1,2.31-2.39.16-1.09-.05-2.21-.6-3.17,2.18-1.31,3.81-3.36,4.61-5.77.43.36.89.68,1.39.95-.55.97-.77,2.09-.6,3.19,0,1.33,1.07,2.4,2.4,2.4h.07c.41,3.49,2.33,3.83,2.33,7.2,0,3.72-2.4,3.86-2.4,8.4,0,.66.54,1.2,1.2,1.2s1.2-.54,1.2-1.2c0-3.72,2.4-3.86,2.4-8.4,0-4.03-1.91-4.66-2.31-7.21,1.29-.05,2.31-1.1,2.31-2.39.17-1.1-.04-2.23-.6-3.19.49-.27.96-.58,1.39-.95.8,2.41,2.44,4.46,4.61,5.77-.55.96-.76,2.08-.6,3.17,0,1.33,1.07,2.4,2.4,2.4h.07c.41,3.49,2.33,3.83,2.33,7.2,0,3.72-2.4,3.86-2.4,8.4,0,.66.54,1.2,1.2,1.2s1.2-.54,1.2-1.2c0-3.72,2.4-3.86,2.4-8.4,0-4.03-1.91-4.66-2.31-7.21,1.29-.05,2.31-1.1,2.31-2.39.17-1.1-.04-2.23-.6-3.19,3.22-1.73,5.4-6.05,5.4-10.01Zm-31.21,12v1.2h-2.4v-1.2c0-.66.54-1.2,1.2-1.2s1.2.54,1.2,1.2Zm-1.2-3.6c-3.03,0-6-4.16-6-8.4,0-5.98,6.27-7.23,9.61-4.96,0,2.53.74,5,2.15,7.1-.72,3.15-2.98,6.26-5.75,6.26Zm13.2-1.2v1.2h-2.4v-1.2c0-.66.54-1.2,1.2-1.2s1.2.54,1.2,1.2Zm-1.2-3.6c-3.03,0-6-4.16-6-8.4-.22-3.1,2.12-5.78,5.22-6,.26-.02.52-.02.78,0,3.1-.22,5.78,2.12,6,5.22.02.26.02.52,0,.78,0,4.24-2.97,8.4-6,8.4Zm13.2,8.4v1.2h-2.4v-1.2c0-.66.54-1.2,1.2-1.2s1.2.54,1.2,1.2Zm-1.2-3.6c-2.77,0-5.03-3.11-5.75-6.26,1.4-2.1,2.15-4.57,2.15-7.1,3.29-2.25,9.61-1.11,9.61,4.96,0,4.24-2.97,8.4-6,8.4Z"></path><path class="cls-1" d="m15.35,33.85c.47.47,1.23.47,1.7,0l.35-.35.35.35c.48.46,1.24.45,1.7-.03.45-.47.45-1.2,0-1.67l-.35-.35.35-.35c.46-.48.45-1.24-.03-1.7-.47-.45-1.2-.45-1.67,0l-.35.35-.35-.35c-.48-.46-1.24-.45-1.7.03-.45.47-.45,1.2,0,1.67l.35.35-.35.35c-.47.47-.47,1.23,0,1.7Z"></path><path class="cls-1" d="m24.24,54.95c-.47-.47-1.23-.47-1.7,0l-.35.35-.35-.35c-.48-.46-1.24-.45-1.7.03-.45.47-.45,1.2,0,1.67l.35.35-.35.35c-.46.48-.45,1.24.03,1.7.47.45,1.2.45,1.67,0l.35-.35.35.35c.48.46,1.24.45,1.7-.03.45-.47.45-1.2,0-1.67l-.35-.35.35-.35c.47-.47.47-1.23,0-1.7Z"></path><path class="cls-1" d="m74.65,29.75c-.47-.47-1.23-.47-1.7,0l-.35.35-.35-.35c-.48-.46-1.24-.45-1.7.03-.45.47-.45,1.2,0,1.67l.35.35-.35.35c-.46.48-.45,1.24.03,1.7.47.45,1.2.45,1.67,0l.35-.35.35.35c.48.46,1.24.45,1.7-.03.45-.47.45-1.2,0-1.67l-.35-.35.35-.35c.47-.47.47-1.23,0-1.7Z"></path><path class="cls-1" d="m68.65,64.56c-.47-.47-1.23-.47-1.7,0l-.35.35-.35-.35c-.48-.46-1.24-.45-1.7.03-.45.47-.45,1.2,0,1.67l.35.35-.35.35c-.46.48-.45,1.24.03,1.7.47.45,1.2.45,1.67,0l.35-.35.35.35c.48.46,1.24.45,1.7-.03.45-.47.45-1.2,0-1.67l-.35-.35.35-.35c.47-.47.47-1.23,0-1.7Z"></path><path class="cls-1" d="m72.23,51.06c-2.58.95-4.61,2.98-5.56,5.56-.21.63.13,1.31.76,1.52.63.21,1.31-.13,1.52-.76.71-1.86,2.18-3.34,4.04-4.04.63-.21.97-.89.76-1.52-.21-.63-.89-.97-1.52-.76h0Z"></path><path class="cls-1" d="m18.66,47.79c.21.63.89.97,1.52.76s.97-.89.76-1.52h0c-.74-2.02-2.34-3.62-4.36-4.36-.63-.21-1.31.13-1.52.76-.21.63.13,1.31.76,1.52,1.3.51,2.33,1.54,2.84,2.84Z"></path><path class="cls-1" d="m72.25,39.35c-.48-.46-1.24-.45-1.7.03-.45.47-.45,1.2,0,1.67,1.27,1.27,1.42,1.55,2.05,1.55.66,0,1.2-.54,1.2-1.2,0-.32-.13-.62-.35-.85l-1.2-1.2Z"></path><path class="cls-1" d="m21,65.4c-1.99,0-3.6,1.61-3.6,3.6s1.61,3.6,3.6,3.6,3.6-1.61,3.6-3.6-1.61-3.6-3.6-3.6Zm0,4.8c-.66,0-1.2-.54-1.2-1.2s.54-1.2,1.2-1.2,1.2.54,1.2,1.2-.54,1.2-1.2,1.2Z"></path></svg> 