<svg width="90" height="90" viewBox="0 0 90 90" fill="none" xmlns="http://www.w3.org/2000/svg">
<path d="M72.61 13.79H70.21V12.59C70.21 10.6 68.6 8.99001 66.61 8.99001C64.62 8.99001 63.01 10.6 63.01 12.59V13.79H55.81V12.59C55.81 10.6 54.2 8.99001 52.21 8.99001C50.22 8.99001 48.61 10.6 48.61 12.59V13.79H41.41V12.59C41.41 10.6 39.8 8.99001 37.81 8.99001C35.82 8.99001 34.21 10.6 34.21 12.59V13.79H27.01V12.59C27.01 10.6 25.4 8.99001 23.41 8.99001C21.42 8.99001 19.81 10.6 19.81 12.59V13.79H17.41C12.77 13.79 9.01001 17.55 9.01001 22.19V72.6C9.01001 77.24 12.77 81 17.41 81H72.62C77.26 81 81.02 77.24 81.02 72.6V22.2C81.02 17.56 77.26 13.8 72.62 13.8L72.61 13.79ZM65.41 12.59C65.41 11.93 65.95 11.39 66.61 11.39C67.27 11.39 67.81 11.93 67.81 12.59V17.39C67.81 18.05 67.27 18.59 66.61 18.59C65.95 18.59 65.41 18.05 65.41 17.39V12.59ZM51.01 12.59C51.01 11.93 51.55 11.39 52.21 11.39C52.87 11.39 53.41 11.93 53.41 12.59V17.39C53.41 18.05 52.87 18.59 52.21 18.59C51.55 18.59 51.01 18.05 51.01 17.39V12.59ZM36.61 12.59C36.61 11.93 37.15 11.39 37.81 11.39C38.47 11.39 39.01 11.93 39.01 12.59V17.39C39.01 18.05 38.47 18.59 37.81 18.59C37.15 18.59 36.61 18.05 36.61 17.39V12.59ZM22.21 12.59C22.21 11.93 22.75 11.39 23.41 11.39C24.07 11.39 24.61 11.93 24.61 12.59V17.39C24.61 18.05 24.07 18.59 23.41 18.59C22.75 18.59 22.21 18.05 22.21 17.39V12.59ZM72.62 78.6H17.39C14.08 78.6 11.39 75.91 11.39 72.6V25.8H78.6V72.61C78.6 75.92 75.91 78.61 72.6 78.61L72.62 78.6ZM78.62 23.39H11.39V22.19C11.39 18.88 14.08 16.19 17.39 16.19H19.79V17.39C19.79 19.38 21.4 20.99 23.39 20.99C25.38 20.99 26.99 19.38 26.99 17.39V16.19H34.19V17.39C34.19 19.38 35.8 20.99 37.79 20.99C39.78 20.99 41.39 19.38 41.39 17.39V16.19H48.59V17.39C48.59 19.38 50.2 20.99 52.19 20.99C54.18 20.99 55.79 19.38 55.79 17.39V16.19H62.99V17.39C62.99 19.38 64.6 20.99 66.59 20.99C68.58 20.99 70.19 19.38 70.19 17.39V16.19H72.59C75.9 16.19 78.59 18.88 78.59 22.19V23.39H78.62Z" fill="#E48747"/>
<path d="M65.4 42.6C65.4 35.43 58.31 32.52 53.02 35.1C50.76 27.48 39.24 27.46 36.98 35.1C31.65 32.5 24.6 35.48 24.6 42.6C24.6 46.56 26.78 50.88 30 52.61C29.44 53.57 29.23 54.7 29.4 55.8C29.4 57.13 30.47 58.2 31.8 58.2H31.87C32.28 61.69 34.2 62.03 34.2 65.4C34.2 69.12 31.8 69.26 31.8 73.8C31.8 74.46 32.34 75 33 75C33.66 75 34.2 74.46 34.2 73.8C34.2 70.08 36.6 69.94 36.6 65.4C36.6 61.37 34.69 60.74 34.29 58.19C35.58 58.14 36.6 57.09 36.6 55.8C36.76 54.71 36.55 53.59 36 52.63C38.18 51.32 39.81 49.27 40.61 46.86C41.04 47.22 41.5 47.54 42 47.81C41.45 48.78 41.23 49.9 41.4 51C41.4 52.33 42.47 53.4 43.8 53.4H43.87C44.28 56.89 46.2 57.23 46.2 60.6C46.2 64.32 43.8 64.46 43.8 69C43.8 69.66 44.34 70.2 45 70.2C45.66 70.2 46.2 69.66 46.2 69C46.2 65.28 48.6 65.14 48.6 60.6C48.6 56.57 46.69 55.94 46.29 53.39C47.58 53.34 48.6 52.29 48.6 51C48.77 49.9 48.56 48.77 48 47.81C48.49 47.54 48.96 47.23 49.39 46.86C50.19 49.27 51.83 51.32 54 52.63C53.45 53.59 53.24 54.71 53.4 55.8C53.4 57.13 54.47 58.2 55.8 58.2H55.87C56.28 61.69 58.2 62.03 58.2 65.4C58.2 69.12 55.8 69.26 55.8 73.8C55.8 74.46 56.34 75 57 75C57.66 75 58.2 74.46 58.2 73.8C58.2 70.08 60.6 69.94 60.6 65.4C60.6 61.37 58.69 60.74 58.29 58.19C59.58 58.14 60.6 57.09 60.6 55.8C60.77 54.7 60.56 53.57 60 52.61C63.22 50.88 65.4 46.56 65.4 42.6ZM34.19 54.6V55.8H31.79V54.6C31.79 53.94 32.33 53.4 32.99 53.4C33.65 53.4 34.19 53.94 34.19 54.6ZM32.99 51C29.96 51 26.99 46.84 26.99 42.6C26.99 36.62 33.26 35.37 36.6 37.64C36.6 40.17 37.34 42.64 38.75 44.74C38.03 47.89 35.77 51 33 51H32.99ZM46.19 49.8V51H43.79V49.8C43.79 49.14 44.33 48.6 44.99 48.6C45.65 48.6 46.19 49.14 46.19 49.8ZM44.99 46.2C41.96 46.2 38.99 42.04 38.99 37.8C38.77 34.7 41.11 32.02 44.21 31.8C44.47 31.78 44.73 31.78 44.99 31.8C48.09 31.58 50.77 33.92 50.99 37.02C51.01 37.28 51.01 37.54 50.99 37.8C50.99 42.04 48.02 46.2 44.99 46.2ZM58.19 54.6V55.8H55.79V54.6C55.79 53.94 56.33 53.4 56.99 53.4C57.65 53.4 58.19 53.94 58.19 54.6ZM56.99 51C54.22 51 51.96 47.89 51.24 44.74C52.64 42.64 53.39 40.17 53.39 37.64C56.68 35.39 63 36.53 63 42.6C63 46.84 60.03 51 57 51H56.99Z" fill="#E48747"/>
<path d="M15.35 33.85C15.82 34.32 16.58 34.32 17.05 33.85L17.4 33.5L17.75 33.85C18.23 34.31 18.99 34.3 19.45 33.82C19.9 33.35 19.9 32.62 19.45 32.15L19.1 31.8L19.45 31.45C19.91 30.97 19.9 30.21 19.42 29.75C18.95 29.3 18.22 29.3 17.75 29.75L17.4 30.1L17.05 29.75C16.57 29.29 15.81 29.3 15.35 29.78C14.9 30.25 14.9 30.98 15.35 31.45L15.7 31.8L15.35 32.15C14.88 32.62 14.88 33.38 15.35 33.85Z" fill="#E48747"/>
<path d="M24.24 54.95C23.77 54.48 23.01 54.48 22.54 54.95L22.19 55.3L21.84 54.95C21.36 54.49 20.6 54.5 20.14 54.98C19.69 55.45 19.69 56.18 20.14 56.65L20.49 57L20.14 57.35C19.68 57.83 19.69 58.59 20.17 59.05C20.64 59.5 21.37 59.5 21.84 59.05L22.19 58.7L22.54 59.05C23.02 59.51 23.78 59.5 24.24 59.02C24.69 58.55 24.69 57.82 24.24 57.35L23.89 57L24.24 56.65C24.71 56.18 24.71 55.42 24.24 54.95Z" fill="#E48747"/>
<path d="M74.65 29.75C74.18 29.28 73.42 29.28 72.95 29.75L72.6 30.1L72.25 29.75C71.77 29.29 71.01 29.3 70.55 29.78C70.1 30.25 70.1 30.98 70.55 31.45L70.9 31.8L70.55 32.15C70.09 32.63 70.1 33.39 70.58 33.85C71.05 34.3 71.78 34.3 72.25 33.85L72.6 33.5L72.95 33.85C73.43 34.31 74.19 34.3 74.65 33.82C75.1 33.35 75.1 32.62 74.65 32.15L74.3 31.8L74.65 31.45C75.12 30.98 75.12 30.22 74.65 29.75Z" fill="#E48747"/>
<path d="M68.65 64.56C68.18 64.09 67.42 64.09 66.95 64.56L66.6 64.91L66.25 64.56C65.77 64.1 65.01 64.11 64.55 64.59C64.1 65.06 64.1 65.79 64.55 66.26L64.9 66.61L64.55 66.96C64.09 67.44 64.1 68.2 64.58 68.66C65.05 69.11 65.78 69.11 66.25 68.66L66.6 68.31L66.95 68.66C67.43 69.12 68.19 69.11 68.65 68.63C69.1 68.16 69.1 67.43 68.65 66.96L68.3 66.61L68.65 66.26C69.12 65.79 69.12 65.03 68.65 64.56Z" fill="#E48747"/>
<path d="M72.23 51.06C69.65 52.01 67.62 54.04 66.67 56.62C66.46 57.25 66.8 57.93 67.43 58.14C68.06 58.35 68.74 58.01 68.95 57.38C69.66 55.52 71.13 54.04 72.99 53.34C73.62 53.13 73.96 52.45 73.75 51.82C73.54 51.19 72.86 50.85 72.23 51.06Z" fill="#E48747"/>
<path d="M18.66 47.79C18.87 48.42 19.55 48.76 20.18 48.55C20.81 48.34 21.15 47.66 20.94 47.03C20.2 45.01 18.6 43.41 16.58 42.67C15.95 42.46 15.27 42.8 15.06 43.43C14.85 44.06 15.19 44.74 15.82 44.95C17.12 45.46 18.15 46.49 18.66 47.79Z" fill="#E48747"/>
<path d="M72.25 39.35C71.77 38.89 71.01 38.9 70.55 39.38C70.1 39.85 70.1 40.58 70.55 41.05C71.82 42.32 71.97 42.6 72.6 42.6C73.26 42.6 73.8 42.06 73.8 41.4C73.8 41.08 73.67 40.78 73.45 40.55L72.25 39.35Z" fill="#E48747"/>
<path d="M21 65.4C19.01 65.4 17.4 67.01 17.4 69C17.4 70.99 19.01 72.6 21 72.6C22.99 72.6 24.6 70.99 24.6 69C24.6 67.01 22.99 65.4 21 65.4ZM21 70.2C20.34 70.2 19.8 69.66 19.8 69C19.8 68.34 20.34 67.8 21 67.8C21.66 67.8 22.2 68.34 22.2 69C22.2 69.66 21.66 70.2 21 70.2Z" fill="#E48747"/>
</svg>
