<svg width="62" height="61" viewBox="0 0 62 61" fill="none" xmlns="http://www.w3.org/2000/svg">
<path d="M60.3911 27.9555H56.1778V21.8489C56.1778 21.2444 55.6622 20.7289 55.0578 20.7289C51.6178 20.7289 48.1778 21.6711 44.9067 22.7111C44.7378 23.6533 44.48 24.5155 44.1333 25.3778C47.4844 24.2578 50.7556 23.3155 54.0267 23.0578V52.8178C50.16 52.9867 46.3733 54.2844 42.5867 55.4844C38.8889 56.6844 35.36 57.8933 31.92 58.0622V44.9867C31.4933 45.0756 31.1467 45.0755 30.8 45.0755C30.4533 45.0755 30.0267 45.0756 29.68 44.9867V58.0622C26.1511 57.8044 22.7111 56.6844 19.0133 55.4844C15.3156 54.2844 11.44 52.9867 7.57333 52.8178V23.0578C10.8444 23.2267 14.0267 24.2578 17.3778 25.3778C17.0311 24.5155 16.7733 23.6533 16.6044 22.7111C13.2533 21.68 9.89333 20.7289 6.45333 20.7289C5.84889 20.7289 5.33333 21.2444 5.33333 21.8489V27.9555H1.12C0.515556 27.9555 0 28.4711 0 29.0755V59.1822C0 59.7867 0.515556 60.3022 1.12 60.3022H60.4711C61.0756 60.3022 61.5911 59.7867 61.5911 59.1822V29.0755C61.5022 28.4711 60.9867 27.9555 60.3911 27.9555ZM2.16 58.0622V30.2755H5.17333V53.9289C5.17333 54.5333 5.68889 55.0489 6.29333 55.0489C10.16 55.0489 14.0356 56.3378 18.16 57.6267C18.6756 57.7956 19.1022 57.9733 19.6267 58.0533H2.16V58.0622ZM59.28 58.0622H41.8222C42.3378 57.8933 42.7644 57.7155 43.2889 57.6355C47.4133 56.2578 51.2 55.0578 55.1556 55.0578C55.76 55.0578 56.2756 54.5422 56.2756 53.9378V30.2844H59.2889V58.0711L59.28 58.0622Z" fill="#E48747" fill-opacity="0.87451"/>
<path d="M11.7956 36.4711C13.8578 36.9867 16.0978 37.76 18.16 38.5333C20.2222 39.3067 22.3733 40.08 24.4356 40.5955C23.6622 39.9911 23.2356 39.0489 23.2356 38.0178V37.9289C21.7689 37.5022 20.4 36.9867 18.9333 36.4622C16.7822 35.6889 14.5422 34.8267 12.3111 34.3111C11.7067 34.1422 11.1111 34.5689 10.9333 35.1733C10.7556 35.7778 11.1911 36.3733 11.7956 36.4622V36.4711Z" fill="#E48747" fill-opacity="0.87451"/>
<path d="M11.7956 30.3644C13.8578 30.88 16.0978 31.6533 18.16 32.4267C19.7956 33.0311 21.4311 33.6267 23.1467 34.1511C22.9778 33.12 22.5422 32.1689 21.8578 31.3956C20.9156 31.0489 19.8756 30.7111 18.9334 30.3644C16.7822 29.5911 14.5422 28.7289 12.3111 28.2133C11.7067 28.0444 11.1111 28.4711 10.9334 29.0756C10.7645 29.5911 11.1911 30.2756 11.7956 30.3644Z" fill="#E48747" fill-opacity="0.87451"/>
<path d="M25.2978 44.64C23.2356 44.1244 20.9956 43.3511 18.9333 42.5778C16.7822 41.8044 14.5422 40.9422 12.3111 40.4266C11.7067 40.2578 11.1111 40.6844 10.9333 41.2889C10.7556 41.8933 11.1911 42.4889 11.7956 42.6666C13.8578 43.1822 16.0978 43.9555 18.16 44.7289C20.3111 45.5022 22.5511 46.3644 24.7822 46.88H25.04C25.5556 46.88 25.9822 46.5333 26.16 46.0178C26.3289 45.3333 25.9022 44.7289 25.2978 44.64Z" fill="#E48747" fill-opacity="0.87451"/>
<path d="M25.2978 50.7467C23.2356 50.2311 20.9956 49.4578 18.9333 48.6844C16.7822 47.9111 14.5422 47.0489 12.3111 46.5333C11.7067 46.3644 11.1111 46.7911 10.9333 47.3956C10.7556 48 11.1911 48.5956 11.7956 48.7733C13.8578 49.2889 16.0978 50.0622 18.16 50.8356C20.3111 51.6089 22.5511 52.4711 24.7822 52.9867H25.04C25.5556 52.9867 25.9822 52.64 26.16 52.1244C26.3289 51.44 25.9022 50.8356 25.2978 50.7467Z" fill="#E48747" fill-opacity="0.87451"/>
<path d="M50.4978 35.1822C50.3289 34.5778 49.7245 34.24 49.12 34.32C46.88 34.8356 44.6489 35.6978 42.4978 36.4711C41.12 36.9867 39.6622 37.5022 38.1956 37.9378V38.0267C38.1956 39.0578 37.68 40.0089 36.9956 40.6044C39.1467 40.0889 41.2089 39.3156 43.2711 38.5422C45.3334 37.7689 47.5734 36.9956 49.6356 36.48C50.32 36.3911 50.6667 35.7956 50.4978 35.1911V35.1822Z" fill="#E48747" fill-opacity="0.87451"/>
<path d="M50.4978 28.9867C50.3289 28.3822 49.7245 27.9555 49.12 28.1244C46.88 28.64 44.6489 29.5022 42.4978 30.2755C41.5556 30.6222 40.6045 30.96 39.6622 31.3066C38.9778 32.1689 38.4622 33.1111 38.2845 34.1422C39.92 33.6267 41.6356 33.0222 43.2711 32.4178C45.3333 31.6444 47.5733 30.8711 49.6356 30.3555C50.32 30.2666 50.6667 29.5822 50.4978 28.9778V28.9867Z" fill="#E48747" fill-opacity="0.87451"/>
<path d="M50.4978 41.2889C50.3289 40.6844 49.7245 40.3467 49.12 40.4267C46.88 40.9422 44.6489 41.8044 42.4978 42.5778C40.4356 43.3511 38.1956 44.1244 36.1333 44.64C35.5289 44.8089 35.1911 45.4133 35.2711 46.0178C35.36 46.5333 35.8756 46.88 36.3911 46.88H36.6489C38.8889 46.3644 41.12 45.5022 43.2711 44.7289C45.3333 43.9556 47.5733 43.1822 49.6356 42.6667C50.24 42.4978 50.6667 41.8933 50.4978 41.2889Z" fill="#E48747" fill-opacity="0.87451"/>
<path d="M49.1289 46.5333C46.8889 47.0489 44.6578 47.9111 42.5067 48.6844C40.4444 49.4578 38.2044 50.2311 36.1422 50.7467C35.5378 50.9156 35.2 51.52 35.28 52.1244C35.3689 52.64 35.8844 52.9867 36.4 52.9867H36.6578C38.8978 52.4711 41.1289 51.6089 43.28 50.8356C45.3422 50.0622 47.5822 49.2889 49.6444 48.7733C50.2489 48.6044 50.5867 48 50.5067 47.3956C50.3378 46.7911 49.7333 46.3644 49.1289 46.5333Z" fill="#E48747" fill-opacity="0.87451"/>
<path d="M30.72 14.7911C33.4756 14.7911 35.7067 17.0311 35.7067 19.7778C35.7067 20.3822 36.2222 20.8978 36.8267 20.8978C37.4311 20.8978 37.9467 20.3822 37.9467 19.7778C37.9467 15.8222 34.6756 12.5511 30.72 12.5511C30.1156 12.5511 29.6 13.0666 29.6 13.6711C29.6 14.2755 30.1156 14.7911 30.72 14.7911Z" fill="#E48747" fill-opacity="0.87451"/>
<path d="M30.72 42.8355C34.0711 42.8355 34.8445 40.6844 35.0223 39.0489C35.5378 38.96 35.9645 38.5333 35.9645 37.9289V35.0044C35.9645 32.7644 36.9956 30.5333 38.8 28.8978C41.3778 26.5778 42.9245 23.2178 42.9245 19.7778C42.9245 16.3378 41.5467 13.1555 39.0578 10.8355C36.5689 8.51555 33.2978 7.30666 29.9378 7.56444C23.8311 7.9911 18.9245 12.8978 18.4978 19.0044C18.24 22.8711 19.7867 26.5778 22.7111 29.0667C24.4356 30.5333 25.3778 32.7644 25.3778 35.0844V38.0089C25.3778 38.5244 25.8045 39.04 26.32 39.1289C26.5778 40.6755 27.3511 42.8267 30.7111 42.8267L30.72 42.8355ZM33.7334 35.0044V36.8089H27.7156V34.8267H33.7334V34.9956V35.0044ZM30.72 40.5067C29.4311 40.5067 28.9156 40.16 28.6578 39.04H32.7023C32.5334 40.24 32.0178 40.5067 30.72 40.5067ZM24.2667 27.3422C21.8578 25.28 20.5689 22.2667 20.8267 19.1733C21.1734 14.1867 25.1289 10.1422 30.1156 9.88444C32.8711 9.71555 35.5378 10.6578 37.6 12.5511C39.6623 14.4444 40.7823 17.0222 40.7823 19.7778C40.7823 22.5333 39.5823 25.3689 37.4311 27.2622C35.7956 28.7289 34.6756 30.6133 34.16 32.6844H27.5378C26.9334 30.6222 25.8134 28.7289 24.2667 27.3511V27.3422Z" fill="#E48747" fill-opacity="0.87451"/>
<path d="M12.48 16.6044L14.72 17.12H14.9778C15.4934 17.12 15.92 16.7733 16.0978 16.2578C16.2667 15.6533 15.84 15.0578 15.2356 14.88L12.9956 14.3644C12.3911 14.1955 11.7956 14.6222 11.6178 15.2266C11.4489 15.9111 11.8756 16.5155 12.48 16.6044Z" fill="#E48747" fill-opacity="0.87451"/>
<path d="M17.3867 10.4089C17.5556 10.5778 17.8133 10.6667 18.0711 10.6667C18.4178 10.6667 18.7556 10.4978 18.9333 10.24C19.36 9.72447 19.28 9.04002 18.7644 8.69336L16.96 7.22669C16.4444 6.80003 15.76 6.88003 15.4133 7.39558C14.9867 7.91114 15.0667 8.59558 15.5822 8.94225L17.3867 10.4089Z" fill="#E48747" fill-opacity="0.87451"/>
<path d="M22.6311 5.50218C22.8 5.92885 23.2356 6.10663 23.6622 6.10663C23.8311 6.10663 24.0089 6.10663 24.1778 6.01774C24.7822 5.75996 24.9511 5.07552 24.6934 4.47107L23.6622 2.40885C23.4045 1.80441 22.72 1.63552 22.1156 1.8933C21.5111 2.15107 21.3422 2.83552 21.6 3.43996L22.6311 5.50218Z" fill="#E48747" fill-opacity="0.87451"/>
<path d="M30.72 4.56C31.3244 4.56 31.84 4.04444 31.84 3.44V1.12C31.84 0.515555 31.3244 0 30.72 0C30.1156 0 29.6 0.515555 29.6 1.12V3.44C29.6 4.04444 30.1156 4.56 30.72 4.56Z" fill="#E48747" fill-opacity="0.87451"/>
<path d="M37.2533 6.10668C37.4222 6.19556 37.6 6.19556 37.7689 6.19556C38.1956 6.19556 38.6311 5.93779 38.8 5.59112L39.8311 3.5289C40.0889 2.92445 39.8311 2.3289 39.3156 1.98223C38.7111 1.72445 38.1156 1.98223 37.7689 2.49779L36.7378 4.56001C36.48 5.16445 36.6489 5.76001 37.2533 6.10668Z" fill="#E48747" fill-opacity="0.87451"/>
<path d="M43.36 10.6666C43.6178 10.6666 43.8756 10.5777 44.0445 10.4088L45.8489 8.94217C46.3645 8.51551 46.4534 7.82217 46.0178 7.39551C45.5911 6.87995 44.8978 6.79106 44.4711 7.22662L42.6667 8.69328C42.1511 9.11995 42.0622 9.81328 42.4978 10.24C42.6667 10.4977 43.0134 10.6666 43.36 10.6666Z" fill="#E48747" fill-opacity="0.87451"/>
<path d="M45.4222 16.2578C45.5111 16.7733 46.0267 17.12 46.5422 17.12H46.8L49.04 16.6044C49.6444 16.4355 50.0711 15.8311 49.9022 15.2266C49.7333 14.6222 49.1289 14.1955 48.5244 14.3644L46.2844 14.88C45.68 15.0489 45.2533 15.6533 45.4222 16.2578Z" fill="#E48747" fill-opacity="0.87451"/>
</svg>
