<svg width="93" height="93" viewBox="0 0 93 93" fill="none" xmlns="http://www.w3.org/2000/svg">
<g clip-path="url(#clip0_8_18)">
<path d="M31.2954 -0.0267227C31.4499 -0.0280224 31.6044 -0.0293221 31.7636 -0.0306612C31.9317 -0.0311496 32.0998 -0.031638 32.2729 -0.0321412C32.4511 -0.0333348 32.6293 -0.0345284 32.8129 -0.0357582C33.4026 -0.0393383 33.9923 -0.04146 34.582 -0.043272C34.8845 -0.0443824 34.8845 -0.0443824 35.1932 -0.0455153C36.2609 -0.0493028 37.3286 -0.0519012 38.3964 -0.0536046C39.4974 -0.0556131 40.5983 -0.0618608 41.6993 -0.0690752C42.5475 -0.0738317 43.3957 -0.0753458 44.2439 -0.0759975C44.6496 -0.0768805 45.0554 -0.0789878 45.4611 -0.0823619C46.0302 -0.0867996 46.5991 -0.0866156 47.1682 -0.0853562C47.3344 -0.0876831 47.5006 -0.0900099 47.6719 -0.0924072C49.3372 -0.0790366 50.5961 0.521123 51.8059 1.64897C53.0209 2.95416 53.4214 4.26528 53.4101 6.03814C53.409 6.26781 53.4079 6.49748 53.4067 6.73411C53.4053 6.90951 53.4038 7.08492 53.4023 7.26564C53.5903 7.26402 53.7782 7.26241 53.9718 7.26075C55.7462 7.24599 57.5207 7.23511 59.2952 7.22799C60.2074 7.22421 61.1195 7.21907 62.0317 7.21082C62.9126 7.20291 63.7935 7.19858 64.6745 7.1967C65.01 7.19536 65.3454 7.19275 65.6808 7.18882C66.1521 7.18351 66.6232 7.18282 67.0946 7.18315C67.232 7.18054 67.3695 7.17793 67.5111 7.17524C68.7226 7.18452 69.649 7.58686 70.5603 8.38244C70.7324 8.58264 70.7324 8.58264 70.908 8.78688C71.0843 8.98567 71.0843 8.98567 71.2641 9.18847C71.9577 10.1946 71.9783 11.1525 71.9524 12.3289C71.9507 12.4712 71.9491 12.6136 71.9474 12.7603C71.9432 13.1084 71.9367 13.4566 71.9297 13.8047C72.1507 13.8646 72.3718 13.9246 72.5995 13.9863C73.6439 14.3229 74.4985 14.9253 75.3958 15.5395C75.8867 15.8527 75.8867 15.8527 76.2997 15.719C76.7625 15.3521 77.1826 14.9545 77.606 14.5426C78.9282 13.3121 79.9334 12.9594 81.7454 13.0164C82.961 13.1559 83.7914 13.6043 84.6218 14.4972C85.538 15.6557 85.794 16.6433 85.8422 18.0995C85.5291 19.8692 84.4054 21.0789 83.1678 22.3041C83.0023 22.4715 82.8368 22.6389 82.6663 22.8114C82.2161 23.2664 81.7631 23.7186 81.3094 24.1701C80.9294 24.5488 80.5508 24.929 80.1722 25.3092C79.2785 26.2065 78.3825 27.1015 77.4849 27.995C76.5621 28.9138 75.6429 29.8362 74.7255 30.7605C73.9345 31.5571 73.1415 32.3516 72.3467 33.1444C71.8734 33.6165 71.4008 34.0894 70.9303 34.5642C70.4053 35.0938 69.876 35.6189 69.3461 36.1436C69.1927 36.2995 69.0393 36.4553 68.8813 36.616C67.6954 37.7791 66.5297 38.4918 64.8457 38.5986C62.7495 38.4881 61.4656 37.2878 60.062 35.8606C59.8711 35.6699 59.6799 35.4793 59.4886 35.289C59.0903 34.8914 58.6939 34.4921 58.2989 34.0912C57.7954 33.5805 57.2876 33.0744 56.7783 32.5695C56.3835 32.1774 55.9911 31.783 55.5993 31.388C55.4129 31.2006 55.226 31.0139 55.0383 30.8278C53.8459 29.6421 52.8492 28.5545 52.5857 26.8424C52.6162 25.3603 52.7879 24.0879 53.8352 22.957C55.0628 21.9043 56.303 21.6543 57.8965 21.7231C60.6316 22.0642 62.8355 25.2138 64.6641 27.0645C65.3185 26.7872 65.7373 26.3995 66.2372 25.8987C66.4039 25.7326 66.5705 25.5665 66.7422 25.3954C66.9225 25.2139 67.1027 25.0323 67.2829 24.8507C67.4687 24.6647 67.6546 24.4788 67.8405 24.2929C68.2293 23.9038 68.6176 23.5141 69.0053 23.1239C69.5028 22.6233 70.0015 22.1239 70.5006 21.625C70.8841 21.2414 71.2672 20.8573 71.65 20.4731C71.8338 20.2888 72.0177 20.1045 72.2017 19.9204C72.4582 19.6635 72.7141 19.4058 72.97 19.1482C73.1158 19.0017 73.2617 18.8551 73.4119 18.7042C73.7557 18.3693 73.7557 18.3693 73.9277 17.9824C73.8043 17.9354 73.6809 17.8883 73.5538 17.8398C73.0525 17.6328 72.5683 17.4017 72.0816 17.1627C70.2826 16.287 68.489 15.7393 66.4805 15.6211C66.3568 15.6136 66.2332 15.6061 66.1058 15.5984C62.4396 15.4906 58.7944 16.8535 56.0815 19.3107C53.1297 22.0998 51.4615 25.5119 51.3192 29.582C51.2781 33.1322 52.3404 36.509 54.6738 39.2344C54.7598 39.3482 54.8457 39.462 54.9342 39.5792C56.9124 42.0753 60.1642 43.6743 63.2542 44.2416C67.1866 44.6948 71.0616 43.9902 74.291 41.5957C74.9259 41.0783 75.5234 40.5349 76.1074 39.961C76.2212 39.8495 76.335 39.738 76.4523 39.6232C78.7031 37.24 79.706 34.1154 80.0899 30.9256C80.2476 29.7043 80.2476 29.7043 80.8301 29.2442C81.4431 29.0739 81.4431 29.0739 82.1016 29.0625C82.6531 29.3742 82.9438 29.5736 83.1318 30.1878C83.5375 33.6553 81.8304 37.59 79.88 40.3533C79.4874 40.8474 79.0791 41.3143 78.6504 41.7774C78.5148 41.9296 78.3792 42.0817 78.2396 42.2386C77.3985 43.1366 76.499 43.8726 75.483 44.5587C75.3769 44.6307 75.2708 44.7028 75.1615 44.777C74.4883 45.2143 73.7975 45.562 73.0649 45.8907C72.7966 46.0114 72.7966 46.0114 72.5228 46.1345C72.387 46.1952 72.2512 46.2559 72.1113 46.3184C72.1109 46.6503 72.1109 46.6503 72.1105 46.9889C72.104 52.2449 72.0938 57.5009 72.079 62.7568C72.0772 63.4041 72.0754 64.0514 72.0736 64.6986C72.0731 64.8919 72.0731 64.8919 72.0726 65.0891C72.0669 67.1741 72.0638 69.259 72.0617 71.344C72.0594 73.4842 72.0544 75.6244 72.0469 77.7646C72.0428 78.9664 72.04 80.1681 72.0401 81.3699C72.0403 82.5013 72.037 83.6327 72.0312 84.7642C72.0296 85.1791 72.0293 85.594 72.0303 86.009C72.0316 86.5764 72.0283 87.1437 72.024 87.7111C72.0261 87.9562 72.0261 87.9562 72.0282 88.2064C72.0099 89.562 71.6525 90.6515 70.7717 91.6945C69.7673 92.5315 69.0095 93.0217 67.6927 93.0249C67.4908 93.0258 67.2889 93.0268 67.0809 93.0277C66.8581 93.0278 66.6354 93.0279 66.4059 93.028C66.1699 93.0288 65.934 93.0296 65.6909 93.0304C65.0347 93.0326 64.3784 93.0336 63.7222 93.0344C63.0149 93.0355 62.3076 93.0376 61.6003 93.0396C59.8915 93.044 58.1826 93.0467 56.4738 93.049C55.9912 93.0497 55.5085 93.0504 55.0259 93.0511C52.0291 93.0557 49.0323 93.0597 46.0355 93.062C45.3412 93.0625 44.647 93.0631 43.9528 93.0636C43.7802 93.0637 43.6077 93.0639 43.4299 93.064C40.6349 93.0663 37.84 93.0724 35.045 93.0799C32.1757 93.0876 29.3064 93.0919 26.4371 93.0929C24.826 93.0935 23.2149 93.0956 21.6039 93.1016C20.2317 93.1067 18.8596 93.1087 17.4874 93.1066C16.7875 93.1057 16.0876 93.1062 15.3877 93.1107C14.6283 93.1156 13.869 93.1134 13.1095 93.1105C12.8892 93.113 12.6688 93.1155 12.4418 93.1181C10.941 93.104 9.83929 92.824 8.74122 91.7623C7.83365 90.7822 7.57431 89.8922 7.58116 88.5629C7.58041 88.4281 7.57967 88.2933 7.5789 88.1544C7.57684 87.7012 7.57737 87.248 7.57789 86.7948C7.57695 86.4671 7.57585 86.1395 7.57462 85.8118C7.57168 84.9103 7.57103 84.0088 7.57077 83.1072C7.57009 82.1353 7.56735 81.1635 7.5649 80.1916C7.55997 78.066 7.55778 75.9403 7.55618 73.8147C7.55518 72.4876 7.55364 71.1605 7.552 69.8334C7.54757 66.1597 7.54383 62.4859 7.5426 58.8122C7.54252 58.577 7.54244 58.3419 7.54236 58.0996C7.54228 57.8639 7.5422 57.6281 7.54212 57.3853C7.54196 56.9076 7.5418 56.43 7.54163 55.9523C7.54155 55.7153 7.54147 55.4784 7.54139 55.2343C7.53996 51.3947 7.53362 47.5551 7.52516 43.7155C7.51654 39.7741 7.51201 35.8328 7.51159 31.8914C7.51126 29.6782 7.50917 27.465 7.50257 25.2517C7.49698 23.3672 7.49512 21.4827 7.49812 19.5981C7.49954 18.6366 7.4992 17.6752 7.4941 16.7137C7.48948 15.8331 7.48991 14.9526 7.49432 14.072C7.49503 13.7538 7.49391 13.4357 7.49074 13.1175C7.47442 11.3659 7.52095 9.93596 8.71875 8.53712C9.16363 8.12772 9.16363 8.12772 9.57019 7.89002C9.70576 7.80737 9.84133 7.72472 9.98101 7.63956C10.6596 7.2893 11.1963 7.24128 11.9492 7.23637C12.165 7.23462 12.3808 7.23288 12.6032 7.23108C12.8365 7.23031 13.0698 7.22953 13.3101 7.22874C13.5496 7.2277 13.789 7.22667 14.0356 7.2256C14.5424 7.2237 15.0492 7.22263 15.5559 7.222C16.2048 7.221 16.8536 7.21664 17.5025 7.21147C18.122 7.20727 18.7415 7.20691 19.361 7.20603C19.594 7.20379 19.8269 7.20155 20.0669 7.19924C20.3915 7.20006 20.3915 7.20006 20.7226 7.20089C20.9129 7.20023 21.1033 7.19957 21.2994 7.19888C21.87 7.27544 22.1153 7.41007 22.5234 7.81056C22.7348 8.45883 22.7612 8.77034 22.4894 9.39991C22.1379 9.83625 21.9475 9.96987 21.4336 10.1719C20.9718 10.2176 20.9718 10.2176 20.4456 10.2183C20.248 10.2195 20.0503 10.2208 19.8467 10.2221C19.528 10.2218 19.528 10.2218 19.2028 10.2216C18.7532 10.2252 18.3036 10.229 17.854 10.2329C17.1448 10.237 16.4357 10.24 15.7265 10.2411C15.0423 10.2428 14.3583 10.2489 13.6741 10.2556C13.3554 10.2542 13.3554 10.2542 13.0302 10.2528C12.7338 10.2564 12.7338 10.2564 12.4314 10.2601C12.1709 10.2609 12.1709 10.2609 11.9051 10.2617C11.286 10.3848 11.1021 10.5825 10.7168 11.0801C10.6075 11.6889 10.6075 11.6889 10.6254 12.3873C10.6243 12.5198 10.6233 12.6522 10.6222 12.7888C10.6195 13.2351 10.622 13.6814 10.6245 14.1278C10.6237 14.45 10.6225 14.7723 10.6211 15.0946C10.6181 15.9821 10.6196 16.8695 10.6218 17.757C10.6235 18.7134 10.6209 19.6698 10.6189 20.6262C10.6157 22.5005 10.6164 24.3747 10.6185 26.249C10.6201 27.7719 10.6204 29.2947 10.6196 30.8175C10.6195 31.034 10.6193 31.2505 10.6192 31.4735C10.619 31.9132 10.6188 32.3529 10.6185 32.7926C10.6165 36.9188 10.6188 41.045 10.6227 45.1713C10.626 48.7143 10.6254 52.2573 10.6221 55.8004C10.6182 59.9115 10.6167 64.0227 10.6189 68.1338C10.6191 68.5719 10.6193 69.01 10.6196 69.4481C10.6197 69.7715 10.6197 69.7715 10.6199 70.1014C10.6205 71.623 10.6195 73.1445 10.6178 74.6661C10.6157 76.5196 10.6163 78.373 10.6202 80.2265C10.6221 81.1728 10.6228 82.119 10.6204 83.0653C10.6183 83.9307 10.6194 84.796 10.6233 85.6614C10.6241 85.9753 10.6237 86.2892 10.6219 86.6031C10.6197 87.0283 10.622 87.4532 10.6254 87.8784C10.6255 88.115 10.6256 88.3516 10.6257 88.5953C10.671 89.1949 10.671 89.1949 11.0404 89.6192C11.72 90.1132 12.2954 90.1165 13.1192 90.1171C13.3124 90.1177 13.5056 90.1183 13.7047 90.1189C14.0229 90.1185 14.0229 90.1185 14.3475 90.1181C14.573 90.1185 14.7984 90.1189 15.0307 90.1193C15.6569 90.1203 16.2831 90.1204 16.9093 90.1202C17.5845 90.1201 18.2597 90.1211 18.9349 90.122C20.2578 90.1235 21.5806 90.124 22.9035 90.1241C23.9786 90.1242 25.0536 90.1246 26.1287 90.1251C29.1754 90.1267 32.2222 90.1276 35.269 90.1274C35.4333 90.1274 35.5976 90.1274 35.7668 90.1274C35.9313 90.1274 36.0958 90.1274 36.2653 90.1274C38.9321 90.1273 41.5989 90.1291 44.2657 90.1316C47.0029 90.1342 49.74 90.1355 52.4771 90.1353C54.0143 90.1353 55.5514 90.1358 57.0886 90.1377C58.3971 90.1394 59.7057 90.1398 61.0142 90.1385C61.682 90.138 62.3498 90.1379 63.0176 90.1395C63.7411 90.1412 64.4645 90.1401 65.188 90.1387C65.3997 90.1396 65.6114 90.1405 65.8296 90.1415C66.0233 90.1407 66.217 90.1398 66.4166 90.139C66.6671 90.139 66.6671 90.139 66.9226 90.1391C67.5928 90.0739 68.1115 89.8909 68.622 89.4491C68.9639 88.7566 68.9149 88.0926 68.9073 87.3305C68.9078 87.1593 68.9083 86.9881 68.9087 86.8117C68.9096 86.2366 68.9066 85.6615 68.9037 85.0864C68.9035 84.6747 68.9036 84.263 68.9039 83.8513C68.9041 82.7322 68.9008 81.6132 68.897 80.4942C68.8936 79.3252 68.8933 78.1563 68.8927 76.9873C68.8912 75.0248 68.8878 73.0624 68.8829 71.0999C68.8779 69.0786 68.874 67.0572 68.8717 65.0359C68.8716 64.9113 68.8714 64.7867 68.8713 64.6583C68.8706 64.0332 68.8699 63.4082 68.8692 62.7831C68.8636 57.5976 68.8539 52.4121 68.8418 47.2266C68.6711 47.2559 68.5005 47.2853 68.3246 47.3156C63.8637 48.0372 59.2518 46.8996 55.582 44.3203C53.4806 42.7796 51.784 40.9576 50.4961 38.6895C50.401 38.5239 50.306 38.3584 50.208 38.1878C48.1273 34.3169 47.6524 29.5162 48.8017 25.2814C49.6772 22.3932 51.1358 19.9806 53.2207 17.8008C53.3847 17.6164 53.3847 17.6164 53.5521 17.4283C56.499 14.2385 60.8893 12.7143 65.1373 12.5105C66.4596 12.48 67.7237 12.6651 69.0234 12.8965C69.0174 12.6428 69.0047 12.3892 68.9894 12.1359C68.9831 11.9947 68.9767 11.8535 68.9702 11.708C68.7807 11.0494 68.4636 10.7825 67.9336 10.3535C67.4183 10.263 67.0109 10.2277 66.4966 10.2337C66.2838 10.2309 66.2838 10.2309 66.0667 10.228C65.5998 10.2228 65.1331 10.2239 64.6662 10.2251C64.3417 10.2227 64.0172 10.2199 63.6927 10.2168C62.8401 10.2095 61.9877 10.2077 61.1351 10.207C60.2645 10.2053 59.394 10.1985 58.5234 10.1921C56.8164 10.1804 55.1094 10.1743 53.4023 10.1719C53.4087 10.369 53.415 10.5662 53.4215 10.7693C53.4266 11.0318 53.4316 11.2944 53.4364 11.5569C53.441 11.6864 53.4455 11.8159 53.4502 11.9493C53.4644 12.9756 53.2631 13.7282 52.5452 14.5064C52.4385 14.5933 52.3317 14.6802 52.2217 14.7697C52.1149 14.8589 52.0081 14.9481 51.8981 15.04C51.3197 15.4436 50.8057 15.4632 50.1233 15.4674C49.9336 15.469 49.7439 15.4705 49.5485 15.4722C49.2364 15.4733 49.2364 15.4733 48.918 15.4745C48.6988 15.476 48.4796 15.4775 48.2537 15.479C47.5265 15.4835 46.7993 15.4865 46.0721 15.4891C45.8215 15.4901 45.5708 15.4911 45.3201 15.4921C44.2769 15.496 43.2336 15.4994 42.1904 15.5014C40.6974 15.5044 39.2044 15.5104 37.7114 15.5208C36.6606 15.5278 35.6098 15.5313 34.5589 15.5323C33.9318 15.533 33.3049 15.5351 32.6778 15.541C31.9773 15.5475 31.277 15.5468 30.5765 15.5455C30.3703 15.5484 30.1641 15.5514 29.9516 15.5545C28.7058 15.5447 27.8329 15.3721 26.8828 14.5313C26.0561 13.4851 26.0493 12.5548 26.0598 11.2525C26.0587 10.9653 26.0587 10.9653 26.0576 10.6724C26.0572 10.2686 26.0585 9.86476 26.0615 9.46098C26.0654 8.84744 26.0616 8.23429 26.0569 7.62076C26.0574 7.22685 26.0583 6.83294 26.0598 6.43903C26.0583 6.25771 26.0568 6.07639 26.0553 5.88957C26.0784 4.13291 26.5781 2.70045 27.791 1.40914C28.808 0.515297 29.9382 -0.0188513 31.2954 -0.0267227ZM29.6074 3.81446C28.9933 4.77447 28.9901 5.57877 29.0093 6.67956C29.0101 6.84735 29.0108 7.01514 29.0116 7.18801C29.0147 7.72102 29.0215 8.2539 29.0284 8.78688C29.0312 9.14945 29.0337 9.51202 29.0359 9.87459C29.0419 10.7608 29.0513 11.647 29.0625 12.5332C31.8303 12.5375 34.598 12.5407 37.3658 12.5426C38.6509 12.5436 39.9359 12.5448 41.2209 12.5469C42.4599 12.5489 43.6989 12.55 44.9379 12.5504C45.4117 12.5508 45.8856 12.5514 46.3595 12.5524C47.0206 12.5537 47.6818 12.5539 48.343 12.5538C48.541 12.5545 48.7391 12.5551 48.9432 12.5558C49.2118 12.5554 49.2118 12.5554 49.4858 12.5551C49.6424 12.5552 49.7989 12.5554 49.9602 12.5556C50.3153 12.5723 50.3153 12.5723 50.4961 12.3516C50.519 11.8272 50.5304 11.3074 50.533 10.7828C50.534 10.6244 50.5351 10.4659 50.5361 10.3027C50.5378 9.96632 50.539 9.62992 50.5397 9.29353C50.5415 8.78082 50.5471 8.26825 50.5529 7.75557C50.554 7.42883 50.555 7.10209 50.5557 6.77535C50.5591 6.54625 50.5591 6.54625 50.5625 6.31252C50.558 5.11923 50.3187 4.36364 49.4517 3.49659C48.373 2.74981 47.3026 2.67091 46.0346 2.67761C45.8844 2.67698 45.7342 2.67634 45.5794 2.67568C45.0861 2.67409 44.5929 2.67514 44.0996 2.67637C43.7547 2.67613 43.4098 2.67577 43.0649 2.67532C42.3431 2.67478 41.6214 2.67556 40.8997 2.67726C39.9773 2.67933 39.0549 2.67814 38.1324 2.67596C37.4204 2.67464 36.7085 2.67507 35.9965 2.67601C35.6565 2.67625 35.3165 2.67595 34.9765 2.67511C34.5001 2.67418 34.0239 2.6756 33.5475 2.67761C33.4087 2.67688 33.2698 2.67614 33.1268 2.67538C31.8132 2.68561 30.5648 2.82977 29.6074 3.81446ZM79.9696 16.5409C79.8418 16.6568 79.7139 16.7728 79.5822 16.8922C78.983 17.4554 78.398 18.0308 77.8189 18.6145C77.6899 18.7438 77.561 18.873 77.4281 19.0061C77.1509 19.284 76.8739 19.5621 76.5971 19.8404C76.1594 20.2805 75.7211 20.72 75.2826 21.1593C74.3536 22.0903 73.4254 23.0221 72.4973 23.9539C71.4178 25.0377 70.3379 26.1213 69.2573 27.204C68.8249 27.6377 68.393 28.0718 67.9611 28.506C67.6977 28.77 67.4343 29.034 67.1709 29.298C67.0505 29.4193 66.9301 29.5407 66.8061 29.6657C66.6961 29.7757 66.5861 29.8856 66.4728 29.999C66.3295 30.1429 66.3295 30.1429 66.1833 30.2898C65.6975 30.7327 65.1905 30.8153 64.5394 30.8038C63.229 30.4718 62.1447 28.9104 61.2228 27.9493C61.131 27.8539 61.0392 27.7586 60.9446 27.6604C60.1761 26.8618 60.1761 26.8618 59.8157 26.4759C59.5388 26.1802 59.2575 25.8895 58.975 25.5993C58.8116 25.427 58.6481 25.2548 58.4797 25.0774C57.7422 24.5628 57.3756 24.594 56.4902 24.7031C55.9103 25.2106 55.6403 25.5694 55.4458 26.3152C55.904 28.2245 58.5618 30.1056 59.9062 31.4622C60.2335 31.7935 60.5597 32.1259 60.8848 32.4594C61.3567 32.9435 61.8321 33.4239 62.3084 33.9037C62.4528 34.0531 62.5972 34.2026 62.746 34.3566C63.3625 34.9708 63.7807 35.3693 64.6183 35.6396C65.5931 35.5769 66.1816 35.0377 66.8527 34.3661C66.9928 34.2267 67.1328 34.0874 67.2771 33.9439C67.4281 33.7919 67.5792 33.6399 67.7347 33.4832C67.9763 33.2421 67.9763 33.2421 68.2228 32.9962C68.6629 32.5567 69.1022 32.1163 69.541 31.6756C70.0007 31.2143 70.4613 30.754 70.9218 30.2936C71.6945 29.5208 72.4664 28.7474 73.2378 27.9734C74.1302 27.0781 75.0236 26.1838 75.9175 25.29C76.7775 24.4301 77.637 23.5697 78.4962 22.709C78.862 22.3426 79.2279 21.9764 79.5939 21.6103C80.1041 21.0998 80.6136 20.5886 81.1229 20.0773C81.2754 19.9249 81.4279 19.7725 81.585 19.6155C81.792 19.4073 81.792 19.4073 82.0032 19.1949C82.184 19.0136 82.184 19.0136 82.3685 18.8287C82.7448 18.4207 82.8229 18.2109 82.8849 17.6532C82.8151 16.9415 82.5933 16.6723 82.1016 16.166C81.2269 15.7287 80.66 15.9142 79.9696 16.5409Z" fill="#E48747" fill-opacity="0.87451"/>
<path d="M22.7036 50.7295C23.9018 51.6526 24.5962 53.0234 24.8848 54.4922C25.0509 56.074 24.7085 57.506 23.7836 58.8062C22.9671 59.788 21.9146 60.4471 20.707 60.8496C18.7858 61.0255 17.2453 60.9259 15.6211 59.7598C14.3996 58.6801 13.7275 57.4033 13.5939 55.7715C13.5263 54.0915 13.9789 52.7073 15.0577 51.4128C17.1664 49.359 20.2456 49.1439 22.7036 50.7295ZM17.0089 53.7231C16.5731 54.4812 16.4311 55.1048 16.6002 55.9659C16.8417 56.7136 17.2411 57.2252 17.8235 57.739C18.7142 58.0876 19.6466 58.1594 20.5431 57.7837C21.3458 57.2673 21.7255 56.6967 21.9785 55.7637C22.0023 54.8724 21.8285 54.0942 21.2519 53.4023C20.4685 52.8339 19.8635 52.5472 18.8878 52.6077C18.0875 52.7589 17.5087 53.0739 17.0089 53.7231Z" fill="#E48747" fill-opacity="0.87451"/>
<path d="M21.8991 33.5127C23.4609 34.4146 24.3315 35.5893 24.828 37.3045C25.0556 39.216 24.6925 40.722 23.5778 42.3081C22.6323 43.3969 21.3578 44.0539 19.9266 44.1997C18.0569 44.2209 16.5674 43.9394 15.1727 42.6302C14.0139 41.3473 13.528 39.9285 13.5784 38.2091C13.7292 36.7656 14.2297 35.5466 15.2578 34.5117C17.2104 32.9621 19.5741 32.4324 21.8991 33.5127ZM17.2559 36.6914C16.7452 37.393 16.4611 38.0287 16.5407 38.9052C16.7849 39.8986 17.0005 40.3206 17.8348 40.9259C18.5547 41.2972 19.1849 41.3828 19.9805 41.2324C20.7904 40.969 21.2818 40.5628 21.7061 39.8247C22.0431 39.0431 22.0577 38.4072 21.7969 37.5996C21.3811 36.8126 20.9994 36.2925 20.1621 35.9649C19.0074 35.8082 18.1332 35.8559 17.2559 36.6914Z" fill="#E48747" fill-opacity="0.87451"/>
<path d="M21.9785 66.8438C23.4645 67.9014 24.5202 69.2061 24.8848 71.0215C25.0389 72.545 24.7343 73.9821 23.8517 75.2446C22.6849 76.6568 21.44 77.3153 19.6172 77.5606C17.8361 77.623 16.3356 76.9549 15.0386 75.7562C13.9678 74.5221 13.5613 73.1023 13.5847 71.5026C13.6977 70.0841 14.3319 68.8204 15.2578 67.752C17.0818 66.1971 19.8027 65.6452 21.9785 66.8438ZM17.0174 70.329C16.5936 71.0355 16.4715 71.6532 16.5293 72.4746C16.7701 73.239 17.1646 73.6707 17.7781 74.1775C18.4862 74.5457 19.0031 74.749 19.8017 74.5741C20.8463 74.2356 21.3125 73.7346 21.8536 72.7811C22.029 72.0957 22.0153 71.5066 21.7969 70.8399C21.325 70.0964 20.8047 69.5392 19.9805 69.2051C18.6293 69.0743 18.0136 69.3867 17.0174 70.329Z" fill="#E48747" fill-opacity="0.87451"/>
<path d="M29.849 50.5602C30.0762 50.5586 30.3035 50.557 30.5376 50.5554C31.1595 50.5521 31.7812 50.5529 32.4031 50.5557C33.0545 50.558 33.706 50.5559 34.3574 50.5545C35.4513 50.5528 36.5452 50.555 37.6391 50.5593C38.903 50.5643 40.1667 50.5627 41.4306 50.5577C42.5166 50.5535 43.6026 50.553 44.6886 50.5553C45.3369 50.5568 45.9851 50.557 46.6333 50.554C47.356 50.5508 48.0786 50.5552 48.8014 50.5602C49.0158 50.5584 49.2302 50.5565 49.4511 50.5546C51.065 50.5756 51.065 50.5756 51.6287 51.1051C52.0249 51.6994 52.0806 51.975 51.9492 52.6758C51.7205 53.1568 51.7205 53.1568 51.2227 53.584C50.4732 53.7251 49.728 53.706 48.9674 53.6986C48.6209 53.7006 48.6209 53.7006 48.2673 53.7026C47.6342 53.7059 47.0012 53.7036 46.368 53.7C45.7053 53.697 45.0427 53.6986 44.38 53.6995C43.2671 53.7004 42.1543 53.6975 41.0415 53.6924C39.755 53.6866 38.4686 53.6866 37.1822 53.6897C35.9444 53.6926 34.7068 53.6914 33.469 53.6883C32.9424 53.687 32.4157 53.6872 31.8891 53.6886C31.1537 53.6902 30.4184 53.6859 29.683 53.6809C29.4642 53.6821 29.2455 53.6833 29.0201 53.6845C28.82 53.6822 28.6198 53.6799 28.4136 53.6775C28.2397 53.677 28.0659 53.6764 27.8867 53.6759C27.2882 53.556 27.0717 53.3343 26.7012 52.8574C26.578 52.1044 26.5999 51.7398 27.0217 51.0987C27.9217 50.454 28.7676 50.5509 29.849 50.5602Z" fill="#E48747" fill-opacity="0.87451"/>
<path d="M28.7262 73.5389C29.0165 73.5374 29.0165 73.5374 29.3127 73.5358C29.525 73.5356 29.7373 73.5354 29.9561 73.5352C30.1797 73.5343 30.4033 73.5334 30.6337 73.5324C31.2473 73.5302 31.8609 73.5289 32.4745 73.5281C32.858 73.5276 33.2414 73.5268 33.6248 73.526C34.8246 73.5235 36.0244 73.5218 37.2242 73.5211C38.6089 73.5202 39.9935 73.5171 41.3782 73.5118C42.4488 73.5079 43.5194 73.506 44.5899 73.5058C45.2293 73.5056 45.8685 73.5045 46.5079 73.5013C47.221 73.4977 47.9342 73.4985 48.6473 73.4997C48.9647 73.4972 48.9647 73.4972 49.2885 73.4946C49.4831 73.4956 49.6776 73.4967 49.8781 73.4977C50.0466 73.4974 50.2152 73.4972 50.3889 73.4969C50.9592 73.5788 51.3026 73.7746 51.7676 74.1094C52.0267 74.6276 52.0056 74.9875 51.9492 75.5625C51.7234 76.0456 51.7234 76.0456 51.2227 76.4707C50.4731 76.6115 49.7281 76.5927 48.9674 76.5853C48.6209 76.5873 48.6209 76.5873 48.2673 76.5893C47.6342 76.5926 47.0012 76.5903 46.368 76.5867C45.7054 76.5837 45.0427 76.5853 44.38 76.5863C43.2671 76.5871 42.1543 76.5842 41.0415 76.5791C39.755 76.5733 38.4687 76.5733 37.1822 76.5764C35.9445 76.5793 34.7068 76.5781 33.469 76.575C32.9424 76.5737 32.4157 76.5739 31.8891 76.5753C31.1537 76.5769 30.4184 76.5726 29.683 76.5676C29.4643 76.5688 29.2455 76.57 29.0201 76.5712C28.82 76.5689 28.6198 76.5666 28.4136 76.5642C28.2397 76.5637 28.0659 76.5632 27.8867 76.5626C27.2879 76.4427 27.0706 76.2226 26.7012 75.7441C26.616 75.0623 26.6047 74.6473 26.9396 74.0413C27.4785 73.5223 28.0153 73.5412 28.7262 73.5389Z" fill="#E48747" fill-opacity="0.87451"/>
<path d="M29.4019 67.1778C29.5688 67.1769 29.7357 67.176 29.9076 67.175C30.4615 67.1724 31.0154 67.1711 31.5693 67.1701C31.9535 67.1691 32.3377 67.168 32.7218 67.167C33.5282 67.1651 34.3346 67.164 35.141 67.1634C36.1745 67.1624 37.208 67.158 38.2414 67.1529C39.0354 67.1495 39.8293 67.1485 40.6232 67.1483C41.0042 67.1477 41.3852 67.1462 41.7662 67.1439C42.2994 67.1408 42.8324 67.1411 43.3655 67.1423C43.523 67.1406 43.6805 67.1389 43.8428 67.1372C44.7786 67.1437 45.4417 67.2386 46.1367 67.9336C46.2431 69.231 46.2431 69.231 45.8762 69.768C45.1755 70.2871 44.5396 70.2149 43.6885 70.2073C43.5141 70.2086 43.3398 70.2098 43.1602 70.2111C42.5838 70.2143 42.0075 70.2122 41.4311 70.2098C41.0307 70.2103 40.6303 70.211 40.2299 70.2119C39.3907 70.2129 38.5515 70.2114 37.7123 70.208C36.636 70.2039 35.5599 70.2062 34.4836 70.2106C33.6568 70.2132 32.83 70.2124 32.0032 70.2105C31.6063 70.21 31.2095 70.2106 30.8126 70.2123C30.2581 70.2141 29.7039 70.2113 29.1494 70.2073C28.9028 70.2095 28.9028 70.2095 28.6512 70.2117C27.5456 70.1968 27.5456 70.1968 26.9625 69.7839C26.5773 69.1985 26.6034 68.7996 26.7012 68.1152C27.483 67.1249 28.2134 67.1793 29.4019 67.1778Z" fill="#E48747" fill-opacity="0.87451"/>
<path d="M29.335 40.3912C29.5076 40.3899 29.6802 40.3886 29.858 40.3873C30.4276 40.3842 30.9969 40.3877 31.5664 40.3916C31.9625 40.3915 32.3586 40.391 32.7546 40.3903C33.5842 40.3898 34.4137 40.3924 35.2433 40.3974C36.3072 40.4036 37.3709 40.4025 38.4347 40.3991C39.2524 40.3972 40.0699 40.3988 40.8875 40.4015C41.2799 40.4025 41.6722 40.4024 42.0645 40.4013C42.6124 40.4003 43.1601 40.404 43.708 40.409C43.8704 40.4078 44.0329 40.4066 44.2002 40.4054C45.2986 40.4223 45.2986 40.4223 45.8734 40.8525C46.1565 41.261 46.2399 41.4664 46.2389 41.959C46.2429 42.0789 46.2469 42.1987 46.251 42.3223C46.0654 42.9125 45.7483 43.0866 45.2285 43.4121C44.6599 43.5192 44.0998 43.5133 43.5224 43.509C43.3519 43.5106 43.1814 43.5121 43.0057 43.5137C42.4429 43.5179 41.8803 43.5166 41.3176 43.515C40.926 43.5159 40.5345 43.5171 40.1429 43.5184C39.3226 43.5203 38.5024 43.5195 37.6822 43.5168C36.6309 43.5137 35.5799 43.5179 34.5287 43.5243C33.7202 43.5283 32.9118 43.5281 32.1034 43.5266C31.7158 43.5264 31.3282 43.5277 30.9406 43.5303C30.3988 43.5335 29.8573 43.5309 29.3154 43.5267C29.1554 43.5289 28.9953 43.531 28.8304 43.5332C28.0322 43.5208 27.7073 43.4877 27.0557 42.9849C26.7012 42.5039 26.7012 42.5039 26.5876 41.959C26.904 40.4407 28.0296 40.3741 29.335 40.3912Z" fill="#E48747" fill-opacity="0.87451"/>
<path d="M29.3154 34.0338C29.486 34.0325 29.6565 34.0312 29.8322 34.0299C30.395 34.0268 30.9575 34.0303 31.5203 34.0342C31.9119 34.034 32.3034 34.0336 32.695 34.0329C33.5153 34.0323 34.3354 34.035 35.1557 34.04C36.2069 34.0462 37.258 34.0451 38.3092 34.0417C39.1177 34.0398 39.9261 34.0414 40.7345 34.0441C41.1221 34.0451 41.5097 34.045 41.8973 34.0438C42.4391 34.0429 42.9807 34.0466 43.5224 34.0515C43.6825 34.0503 43.8426 34.0492 44.0075 34.0479C44.7539 34.0596 45.1354 34.0901 45.7821 34.4951C46.1649 34.9052 46.2572 35.0505 46.2389 35.6015C46.2391 35.7214 46.2394 35.8413 46.2396 35.9648C46.0827 36.5189 45.874 36.7076 45.4102 37.0547C44.8439 37.1655 44.2836 37.1558 43.708 37.1516C43.4496 37.1539 43.4496 37.1539 43.186 37.1563C42.6164 37.1604 42.0469 37.1592 41.4772 37.1576C41.0813 37.1585 40.6854 37.1596 40.2896 37.161C39.4597 37.1629 38.6298 37.162 37.7999 37.1594C36.7363 37.1563 35.6728 37.1605 34.6091 37.1669C33.7915 37.1709 32.9739 37.1706 32.1563 37.1691C31.7641 37.169 31.372 37.1702 30.9798 37.1729C30.4314 37.1761 29.8834 37.1734 29.335 37.1693C29.173 37.1714 29.0109 37.1736 28.844 37.1757C28.041 37.1634 27.71 37.1322 27.0545 36.6275C26.7012 36.1465 26.7012 36.1465 26.5876 35.6015C26.902 34.0926 28.0159 34.0165 29.3154 34.0338Z" fill="#E48747" fill-opacity="0.87451"/>
<path d="M28.8348 56.9205C28.9542 56.9192 29.0737 56.9179 29.1967 56.9166C29.5894 56.9135 29.9817 56.917 30.3744 56.9209C30.6483 56.9208 30.9222 56.9203 31.1961 56.9196C31.7692 56.9191 32.3421 56.9217 32.9151 56.9267C33.6492 56.9329 34.383 56.9318 35.117 56.9284C35.6822 56.9265 36.2473 56.9281 36.8125 56.9308C37.0832 56.9318 37.3538 56.9317 37.6244 56.9306C38.0027 56.9296 38.3807 56.9333 38.759 56.9382C39.0816 56.9399 39.0816 56.9399 39.4108 56.9417C40.0696 57.0536 40.2835 57.24 40.6875 57.7617C40.784 58.125 40.784 58.125 40.7783 58.4883C40.7811 58.6681 40.7811 58.6681 40.784 58.8515C40.6413 59.3887 40.3923 59.5955 39.9609 59.9414C39.4108 60.0349 39.4108 60.0349 38.759 60.0383C38.5804 60.0406 38.5804 60.0406 38.3981 60.043C38.0053 60.0471 37.6128 60.0459 37.22 60.0443C36.9463 60.0452 36.6726 60.0464 36.3989 60.0477C35.8255 60.0496 35.2522 60.0487 34.6789 60.0461C33.945 60.043 33.2115 60.0472 32.4777 60.0536C31.9124 60.0576 31.3473 60.0574 30.7821 60.0558C30.5116 60.0557 30.2411 60.0569 29.9707 60.0596C29.5919 60.0628 29.2135 60.0601 28.8348 60.056C28.512 60.0558 28.512 60.0558 28.1826 60.0555C27.4398 59.9076 27.1681 59.6172 26.7012 59.0332C26.5876 58.4883 26.5876 58.4883 26.7012 57.9433C27.3655 57.1126 27.7801 56.9214 28.8348 56.9205Z" fill="#E48747" fill-opacity="0.87451"/>
<path d="M16.6581 20.0916C16.9772 20.089 16.9772 20.089 17.3028 20.0864C17.6476 20.088 17.6476 20.088 17.9994 20.0897C18.2352 20.0892 18.4711 20.0887 18.714 20.0882C19.213 20.0874 19.712 20.0885 20.211 20.0911C20.8505 20.0942 21.4899 20.0924 22.1295 20.0891C22.7395 20.0867 23.3495 20.0884 23.9595 20.0897C24.1894 20.0886 24.4193 20.0875 24.6562 20.0864C24.8689 20.0881 25.0817 20.0898 25.3009 20.0916C25.5822 20.0923 25.5822 20.0923 25.8692 20.0929C26.3379 20.1621 26.3379 20.1621 26.6652 20.4063C26.9981 20.8664 27.0419 21.2338 27.0644 21.7969C26.8281 22.3747 26.6665 22.633 26.1026 22.9093C25.5958 23.0734 25.206 23.1144 24.6751 23.1154C24.4023 23.1171 24.4023 23.1171 24.124 23.1188C23.9295 23.1181 23.7349 23.1174 23.5345 23.1166C23.3328 23.117 23.131 23.1173 22.9232 23.1177C22.497 23.1179 22.0709 23.1172 21.6448 23.1157C20.9938 23.1138 20.343 23.1157 19.692 23.118C19.2775 23.1178 18.8631 23.1173 18.4486 23.1166C18.2544 23.1173 18.0603 23.1181 17.8602 23.1188C16.929 23.113 16.1205 23.1019 15.2578 22.7051C14.8514 22.228 14.8953 21.9643 14.9286 21.3314C15.1838 20.2518 15.5827 20.0941 16.6581 20.0916Z" fill="#E48747" fill-opacity="0.87451"/>
</g>
<defs>
<clipPath id="clip0_8_18">
<rect width="93" height="93" fill="white"/>
</clipPath>
</defs>
</svg>
