<?xml version="1.0" encoding="UTF-8"?> <svg xmlns="http://www.w3.org/2000/svg" id="Layer_3" data-name="Layer 3" viewBox="0 0 90 90"><defs><style> .cls-1 { fill: #3c2cda; } .cls-1, .cls-2 { stroke-width: 0px; } .cls-2 { fill: #ea9d00; } </style></defs><path class="cls-1" d="m78.36,39.92h-4.74v-6.87c0-.68-.58-1.26-1.26-1.26-3.87,0-7.74,1.06-11.42,2.23-.19,1.06-.48,2.03-.87,3,3.77-1.26,7.45-2.32,11.13-2.61v33.48c-4.35.19-8.61,1.65-12.87,3-4.16,1.35-8.13,2.71-12,2.9v-14.71c-.48.1-.87.1-1.26.1s-.87,0-1.26-.1v14.71c-3.97-.29-7.84-1.55-12-2.9s-8.52-2.81-12.87-3v-33.48c3.68.19,7.26,1.35,11.03,2.61-.39-.97-.68-1.94-.87-3-3.77-1.16-7.55-2.23-11.42-2.23-.68,0-1.26.58-1.26,1.26v6.87h-4.74c-.68,0-1.26.58-1.26,1.26v33.87c0,.68.58,1.26,1.26,1.26h66.77c.68,0,1.26-.58,1.26-1.26v-33.87c-.1-.68-.68-1.26-1.35-1.26h0ZM12.85,73.79v-31.26h3.39v26.61c0,.68.58,1.26,1.26,1.26,4.35,0,8.71,1.45,13.35,2.9.58.19,1.06.39,1.65.48H12.85Zm64.26,0h-19.64c.58-.19,1.06-.39,1.65-.48,4.64-1.55,8.9-2.9,13.35-2.9.68,0,1.26-.58,1.26-1.26v-26.61h3.39v31.26Z"></path><path class="cls-1" d="m23.69,49.5c2.32.58,4.84,1.45,7.16,2.32s4.74,1.74,7.06,2.32c-.87-.68-1.35-1.74-1.35-2.9v-.1c-1.65-.48-3.19-1.06-4.84-1.65-2.42-.87-4.94-1.84-7.45-2.42-.68-.19-1.35.29-1.55.97s.29,1.35.97,1.45h0Z"></path><path class="cls-1" d="m23.69,42.63c2.32.58,4.84,1.45,7.16,2.32,1.84.68,3.68,1.35,5.61,1.94-.19-1.16-.68-2.23-1.45-3.1-1.06-.39-2.23-.77-3.29-1.16-2.42-.87-4.94-1.84-7.45-2.42-.68-.19-1.35.29-1.55.97-.19.58.29,1.35.97,1.45Z"></path><path class="cls-1" d="m38.88,58.69c-2.32-.58-4.84-1.45-7.16-2.32-2.42-.87-4.94-1.84-7.45-2.42-.68-.19-1.35.29-1.55.97s.29,1.35.97,1.55c2.32.58,4.84,1.45,7.16,2.32,2.42.87,4.94,1.84,7.45,2.42h.29c.58,0,1.06-.39,1.26-.97.19-.77-.29-1.45-.97-1.55h0Z"></path><path class="cls-1" d="m38.88,65.56c-2.32-.58-4.84-1.45-7.16-2.32-2.42-.87-4.94-1.84-7.45-2.42-.68-.19-1.35.29-1.55.97s.29,1.35.97,1.55c2.32.58,4.84,1.45,7.16,2.32,2.42.87,4.94,1.84,7.45,2.42h.29c.58,0,1.06-.39,1.26-.97.19-.77-.29-1.45-.97-1.55h0Z"></path><path class="cls-1" d="m67.23,48.05c-.19-.68-.87-1.06-1.55-.97-2.52.58-5.03,1.55-7.45,2.42-1.55.58-3.19,1.16-4.84,1.65v.1c0,1.16-.58,2.23-1.35,2.9,2.42-.58,4.74-1.45,7.06-2.32,2.32-.87,4.84-1.74,7.16-2.32.77-.1,1.16-.77.97-1.45h0Z"></path><path class="cls-1" d="m67.23,41.08c-.19-.68-.87-1.16-1.55-.97-2.52.58-5.03,1.55-7.45,2.42-1.06.39-2.13.77-3.19,1.16-.77.97-1.35,2.03-1.55,3.19,1.84-.58,3.77-1.26,5.61-1.94,2.32-.87,4.84-1.74,7.16-2.32.77-.1,1.16-.87.97-1.55h0Z"></path><path class="cls-1" d="m67.23,54.92c-.19-.68-.87-1.06-1.55-.97-2.52.58-5.03,1.55-7.45,2.42-2.32.87-4.84,1.74-7.16,2.32-.68.19-1.06.87-.97,1.55.1.58.68.97,1.26.97h.29c2.52-.58,5.03-1.55,7.45-2.42,2.32-.87,4.84-1.74,7.16-2.32.68-.19,1.16-.87.97-1.55Z"></path><path class="cls-1" d="m65.69,60.82c-2.52.58-5.03,1.55-7.45,2.42-2.32.87-4.84,1.74-7.16,2.32-.68.19-1.06.87-.97,1.55.1.58.68.97,1.26.97h.29c2.52-.58,5.03-1.55,7.45-2.42,2.32-.87,4.84-1.74,7.16-2.32.68-.19,1.06-.87.97-1.55-.19-.68-.87-1.16-1.55-.97Z"></path><path class="cls-2" d="m44.98,25.11c3.1,0,5.61,2.52,5.61,5.61,0,.68.58,1.26,1.26,1.26s1.26-.58,1.26-1.26c0-4.45-3.68-8.13-8.13-8.13-.68,0-1.26.58-1.26,1.26s.58,1.26,1.26,1.26Z"></path><path class="cls-2" d="m44.98,56.66c3.77,0,4.64-2.42,4.84-4.26.58-.1,1.06-.58,1.06-1.26v-3.29c0-2.52,1.16-5.03,3.19-6.87,2.9-2.61,4.64-6.39,4.64-10.26s-1.55-7.45-4.35-10.06-6.48-3.97-10.26-3.68c-6.87.48-12.39,6-12.87,12.87-.29,4.35,1.45,8.52,4.74,11.32,1.94,1.65,3,4.16,3,6.77v3.29c0,.58.48,1.16,1.06,1.26.29,1.74,1.16,4.16,4.94,4.16h0Zm3.39-8.81v2.03h-6.77v-2.23h6.77v.19Zm-3.39,6.19c-1.45,0-2.03-.39-2.32-1.65h4.55c-.19,1.35-.77,1.65-2.23,1.65Zm-7.26-14.81c-2.71-2.32-4.16-5.71-3.87-9.19.39-5.61,4.84-10.16,10.45-10.45,3.1-.19,6.1.87,8.42,3s3.58,5.03,3.58,8.13-1.35,6.29-3.77,8.42c-1.84,1.65-3.1,3.77-3.68,6.1h-7.45c-.68-2.32-1.94-4.45-3.68-6Z"></path><path class="cls-2" d="m24.46,27.15l2.52.58h.29c.58,0,1.06-.39,1.26-.97.19-.68-.29-1.35-.97-1.55l-2.52-.58c-.68-.19-1.35.29-1.55.97-.19.77.29,1.45.97,1.55h0Z"></path><path class="cls-2" d="m29.98,20.18c.19.19.48.29.77.29.39,0,.77-.19.97-.48.48-.58.39-1.35-.19-1.74l-2.03-1.65c-.58-.48-1.35-.39-1.74.19-.48.58-.39,1.35.19,1.74l2.03,1.65Z"></path><path class="cls-2" d="m35.88,14.66c.19.48.68.68,1.16.68.19,0,.39,0,.58-.1.68-.29.87-1.06.58-1.74l-1.16-2.32c-.29-.68-1.06-.87-1.74-.58s-.87,1.06-.58,1.74l1.16,2.32Z"></path><path class="cls-2" d="m44.98,13.6c.68,0,1.26-.58,1.26-1.26v-2.61c0-.68-.58-1.26-1.26-1.26s-1.26.58-1.26,1.26v2.61c0,.68.58,1.26,1.26,1.26Z"></path><path class="cls-2" d="m52.33,15.34c.19.1.39.1.58.1.48,0,.97-.29,1.16-.68l1.16-2.32c.29-.68,0-1.35-.58-1.74-.68-.29-1.35,0-1.74.58l-1.16,2.32c-.29.68-.1,1.35.58,1.74Z"></path><path class="cls-2" d="m59.2,20.47c.29,0,.58-.1.77-.29l2.03-1.65c.58-.48.68-1.26.19-1.74-.48-.58-1.26-.68-1.74-.19l-2.03,1.65c-.58.48-.68,1.26-.19,1.74.19.29.58.48.97.48Z"></path><path class="cls-2" d="m61.52,26.76c.1.58.68.97,1.26.97h.29l2.52-.58c.68-.19,1.16-.87.97-1.55s-.87-1.16-1.55-.97l-2.52.58c-.68.19-1.16.87-.97,1.55h0Z"></path></svg> 