<svg width="90" height="90" viewBox="0 0 90 90" fill="none" xmlns="http://www.w3.org/2000/svg">
<path d="M78.36 39.92H73.62V33.05C73.62 32.37 73.04 31.79 72.36 31.79C68.49 31.79 64.62 32.85 60.94 34.02C60.75 35.08 60.46 36.05 60.07 37.02C63.84 35.76 67.52 34.7 71.2 34.41V67.89C66.85 68.08 62.59 69.54 58.33 70.89C54.17 72.24 50.2 73.6 46.33 73.79V59.08C45.85 59.18 45.46 59.18 45.07 59.18C44.68 59.18 44.2 59.18 43.81 59.08V73.79C39.84 73.5 35.97 72.24 31.81 70.89C27.65 69.54 23.29 68.08 18.94 67.89V34.41C22.62 34.6 26.2 35.76 29.97 37.02C29.58 36.05 29.29 35.08 29.1 34.02C25.33 32.86 21.55 31.79 17.68 31.79C17 31.79 16.42 32.37 16.42 33.05V39.92H11.68C11 39.92 10.42 40.5 10.42 41.18V75.05C10.42 75.73 11 76.31 11.68 76.31H78.45C79.13 76.31 79.71 75.73 79.71 75.05V41.18C79.61 40.5 79.03 39.92 78.36 39.92ZM12.85 73.79V42.53H16.24V69.14C16.24 69.82 16.82 70.4 17.5 70.4C21.85 70.4 26.21 71.85 30.85 73.3C31.43 73.49 31.91 73.69 32.5 73.78H12.85V73.79ZM77.11 73.79H57.47C58.05 73.6 58.53 73.4 59.12 73.31C63.76 71.76 68.02 70.41 72.47 70.41C73.15 70.41 73.73 69.83 73.73 69.15V42.54H77.12V73.8L77.11 73.79Z" fill="#E48747" fill-opacity="0.87451"/>
<path d="M23.69 49.5C26.01 50.08 28.53 50.95 30.85 51.82C33.17 52.69 35.59 53.56 37.91 54.14C37.04 53.46 36.56 52.4 36.56 51.24V51.14C34.91 50.66 33.37 50.08 31.72 49.49C29.3 48.62 26.78 47.65 24.27 47.07C23.59 46.88 22.92 47.36 22.72 48.04C22.52 48.72 23.01 49.39 23.69 49.49V49.5Z" fill="#E48747" fill-opacity="0.87451"/>
<path d="M23.69 42.63C26.01 43.21 28.53 44.08 30.85 44.95C32.69 45.63 34.53 46.3 36.46 46.89C36.27 45.73 35.78 44.66 35.01 43.79C33.95 43.4 32.78 43.02 31.72 42.63C29.3 41.76 26.78 40.79 24.27 40.21C23.59 40.02 22.92 40.5 22.72 41.18C22.53 41.76 23.01 42.53 23.69 42.63Z" fill="#E48747" fill-opacity="0.87451"/>
<path d="M38.88 58.69C36.56 58.11 34.04 57.24 31.72 56.37C29.3 55.5 26.78 54.53 24.27 53.95C23.59 53.76 22.92 54.24 22.72 54.92C22.52 55.6 23.01 56.27 23.69 56.47C26.01 57.05 28.53 57.92 30.85 58.79C33.27 59.66 35.79 60.63 38.3 61.21H38.59C39.17 61.21 39.65 60.82 39.85 60.24C40.04 59.47 39.56 58.79 38.88 58.69Z" fill="#E48747" fill-opacity="0.87451"/>
<path d="M38.88 65.56C36.56 64.98 34.04 64.11 31.72 63.24C29.3 62.37 26.78 61.4 24.27 60.82C23.59 60.63 22.92 61.11 22.72 61.79C22.52 62.47 23.01 63.14 23.69 63.34C26.01 63.92 28.53 64.79 30.85 65.66C33.27 66.53 35.79 67.5 38.3 68.08H38.59C39.17 68.08 39.65 67.69 39.85 67.11C40.04 66.34 39.56 65.66 38.88 65.56Z" fill="#E48747" fill-opacity="0.87451"/>
<path d="M67.23 48.05C67.04 47.37 66.36 46.99 65.68 47.08C63.16 47.66 60.65 48.63 58.23 49.5C56.68 50.08 55.04 50.66 53.39 51.15V51.25C53.39 52.41 52.81 53.48 52.04 54.15C54.46 53.57 56.78 52.7 59.1 51.83C61.42 50.96 63.94 50.09 66.26 49.51C67.03 49.41 67.42 48.74 67.23 48.06V48.05Z" fill="#E48747" fill-opacity="0.87451"/>
<path d="M67.23 41.08C67.04 40.4 66.36 39.92 65.68 40.11C63.16 40.69 60.65 41.66 58.23 42.53C57.17 42.92 56.1 43.3 55.04 43.69C54.27 44.66 53.69 45.72 53.49 46.88C55.33 46.3 57.26 45.62 59.1 44.94C61.42 44.07 63.94 43.2 66.26 42.62C67.03 42.52 67.42 41.75 67.23 41.07V41.08Z" fill="#E48747" fill-opacity="0.87451"/>
<path d="M67.23 54.92C67.04 54.24 66.36 53.86 65.68 53.95C63.16 54.53 60.65 55.5 58.23 56.37C55.91 57.24 53.39 58.11 51.07 58.69C50.39 58.88 50.01 59.56 50.1 60.24C50.2 60.82 50.78 61.21 51.36 61.21H51.65C54.17 60.63 56.68 59.66 59.1 58.79C61.42 57.92 63.94 57.05 66.26 56.47C66.94 56.28 67.42 55.6 67.23 54.92Z" fill="#E48747" fill-opacity="0.87451"/>
<path d="M65.69 60.82C63.17 61.4 60.66 62.37 58.24 63.24C55.92 64.11 53.4 64.98 51.08 65.56C50.4 65.75 50.02 66.43 50.11 67.11C50.21 67.69 50.79 68.08 51.37 68.08H51.66C54.18 67.5 56.69 66.53 59.11 65.66C61.43 64.79 63.95 63.92 66.27 63.34C66.95 63.15 67.33 62.47 67.24 61.79C67.05 61.11 66.37 60.63 65.69 60.82Z" fill="#E48747" fill-opacity="0.87451"/>
<path d="M44.98 25.11C48.08 25.11 50.59 27.63 50.59 30.72C50.59 31.4 51.17 31.98 51.85 31.98C52.53 31.98 53.11 31.4 53.11 30.72C53.11 26.27 49.43 22.59 44.98 22.59C44.3 22.59 43.72 23.17 43.72 23.85C43.72 24.53 44.3 25.11 44.98 25.11Z" fill="#E48747"/>
<path d="M44.98 56.66C48.75 56.66 49.62 54.24 49.82 52.4C50.4 52.3 50.88 51.82 50.88 51.14V47.85C50.88 45.33 52.04 42.82 54.07 40.98C56.97 38.37 58.71 34.59 58.71 30.72C58.71 26.85 57.16 23.27 54.36 20.66C51.56 18.05 47.88 16.69 44.1 16.98C37.23 17.46 31.71 22.98 31.23 29.85C30.94 34.2 32.68 38.37 35.97 41.17C37.91 42.82 38.97 45.33 38.97 47.94V51.23C38.97 51.81 39.45 52.39 40.03 52.49C40.32 54.23 41.19 56.65 44.97 56.65L44.98 56.66ZM48.37 47.85V49.88H41.6V47.65H48.37V47.84V47.85ZM44.98 54.04C43.53 54.04 42.95 53.65 42.66 52.39H47.21C47.02 53.74 46.44 54.04 44.98 54.04ZM37.72 39.23C35.01 36.91 33.56 33.52 33.85 30.04C34.24 24.43 38.69 19.88 44.3 19.59C47.4 19.4 50.4 20.46 52.72 22.59C55.04 24.72 56.3 27.62 56.3 30.72C56.3 33.82 54.95 37.01 52.53 39.14C50.69 40.79 49.43 42.91 48.85 45.24H41.4C40.72 42.92 39.46 40.79 37.72 39.24V39.23Z" fill="#E48747"/>
<path d="M24.46 27.15L26.98 27.73H27.27C27.85 27.73 28.33 27.34 28.53 26.76C28.72 26.08 28.24 25.41 27.56 25.21L25.04 24.63C24.36 24.44 23.69 24.92 23.49 25.6C23.3 26.37 23.78 27.05 24.46 27.15Z" fill="#E48747"/>
<path d="M29.98 20.18C30.17 20.37 30.46 20.47 30.75 20.47C31.14 20.47 31.52 20.28 31.72 19.99C32.2 19.41 32.11 18.64 31.53 18.25L29.5 16.6C28.92 16.12 28.15 16.21 27.76 16.79C27.28 17.37 27.37 18.14 27.95 18.53L29.98 20.18Z" fill="#E48747"/>
<path d="M35.88 14.66C36.07 15.14 36.56 15.34 37.04 15.34C37.23 15.34 37.43 15.34 37.62 15.24C38.3 14.95 38.49 14.18 38.2 13.5L37.04 11.18C36.75 10.5 35.98 10.31 35.3 10.6C34.62 10.89 34.43 11.66 34.72 12.34L35.88 14.66Z" fill="#E48747"/>
<path d="M44.98 13.6C45.66 13.6 46.24 13.02 46.24 12.34V9.73C46.24 9.05 45.66 8.47 44.98 8.47C44.3 8.47 43.72 9.05 43.72 9.73V12.34C43.72 13.02 44.3 13.6 44.98 13.6Z" fill="#E48747"/>
<path d="M52.33 15.34C52.52 15.44 52.72 15.44 52.91 15.44C53.39 15.44 53.88 15.15 54.07 14.76L55.23 12.44C55.52 11.76 55.23 11.09 54.65 10.7C53.97 10.41 53.3 10.7 52.91 11.28L51.75 13.6C51.46 14.28 51.65 14.95 52.33 15.34Z" fill="#E48747"/>
<path d="M59.2 20.47C59.49 20.47 59.78 20.37 59.97 20.18L62 18.53C62.58 18.05 62.68 17.27 62.19 16.79C61.71 16.21 60.93 16.11 60.45 16.6L58.42 18.25C57.84 18.73 57.74 19.51 58.23 19.99C58.42 20.28 58.81 20.47 59.2 20.47Z" fill="#E48747"/>
<path d="M61.52 26.76C61.62 27.34 62.2 27.73 62.78 27.73H63.07L65.59 27.15C66.27 26.96 66.75 26.28 66.56 25.6C66.37 24.92 65.69 24.44 65.01 24.63L62.49 25.21C61.81 25.4 61.33 26.08 61.52 26.76Z" fill="#E48747"/>
</svg>
