<?xml version="1.0" encoding="UTF-8"?> <svg xmlns="http://www.w3.org/2000/svg" id="Layer_3" data-name="Layer 3" viewBox="0 0 90 90"><defs><style> .cls-1 { fill: #3c2cda; } .cls-1, .cls-2 { stroke-width: 0px; } .cls-2 { fill: #ea9d00; } </style></defs><path class="cls-2" d="m55.31,32.49l-6.17-.9-2.76-5.59c-.15-.3-.39-.55-.7-.7-.76-.37-1.68-.06-2.05.7l-2.76,5.59-6.17.9c-.33.05-.64.21-.88.45-.59.61-.58,1.58.03,2.17l4.47,4.35-1.05,6.15c-.01.09-.02.17-.02.26,0,.85.69,1.53,1.53,1.53.25,0,.49-.06.71-.18l5.52-2.9,5.52,2.9c.3.16.64.21.97.16.83-.14,1.4-.93,1.26-1.77l-1.05-6.15,4.47-4.35c.24-.24.4-.54.45-.88.12-.84-.46-1.62-1.3-1.74Zm-6.33,5.32c-.36.35-.53.86-.44,1.36l.66,3.88-3.48-1.83c-.22-.11-.47-.17-.71-.17-.25,0-.49.06-.71.18l-3.48,1.83.67-3.88c.09-.5-.08-1.01-.44-1.36l-2.82-2.75,3.89-.57c.5-.07.93-.39,1.16-.84l1.74-3.53,1.74,3.53c.22.45.66.77,1.16.84l3.9.56-2.82,2.75Z"></path><path class="cls-2" d="m45,16.66c-11.02,0-19.95,8.93-19.95,19.95s8.93,19.95,19.95,19.95c11.01-.01,19.94-8.94,19.95-19.95,0-11.02-8.93-19.95-19.95-19.95Zm0,36.84c-9.33,0-16.89-7.56-16.89-16.89s7.56-16.89,16.89-16.89c9.32.01,16.88,7.56,16.89,16.89,0,9.33-7.56,16.89-16.89,16.89Z"></path><path class="cls-1" d="m73.08,40.75l-2.87,1.09c.45,1.18,1,2.65.81,3.24-.21.66-1.51,1.51-2.66,2.26-1.36.89-2.91,1.9-3.98,3.36-1.06,1.47-1.57,3.28-2,4.86-.34,1.25-.76,2.8-1.3,3.19s-2.12.31-3.41.25c-1.65-.08-3.51-.17-5.27.41-1.7.55-3.12,1.7-4.37,2.71-1.07.87-2.29,1.85-3.03,1.85s-1.95-.98-3.03-1.86c-1.25-1.01-2.67-2.16-4.37-2.71-.97-.32-2.06-.46-3.43-.46-.63,0-1.25.03-1.85.06-1.28.06-2.87.14-3.4-.25-.53-.38-.96-1.95-1.3-3.19-.43-1.59-.92-3.38-2-4.86-1.08-1.48-2.61-2.47-3.98-3.36-1.15-.75-2.45-1.59-2.66-2.26-.19-.58.37-2.05.81-3.24.59-1.56,1.26-3.33,1.26-5.22s-.67-3.65-1.26-5.22c-.45-1.18-1-2.65-.81-3.24.21-.66,1.51-1.51,2.66-2.26,1.36-.89,2.91-1.9,3.98-3.36,1.07-1.46,1.57-3.28,2-4.86.34-1.25.76-2.8,1.3-3.19s2.12-.31,3.4-.25c1.65.08,3.52.17,5.28-.41,1.7-.55,3.12-1.7,4.37-2.71,1.07-.87,2.29-1.86,3.02-1.86s1.95.98,3.03,1.86c1.25,1.01,2.67,2.16,4.37,2.71,1.76.57,3.63.48,5.28.41,1.28-.06,2.87-.13,3.4.25s.96,1.94,1.3,3.19c.43,1.59.92,3.38,2,4.86s2.61,2.47,3.98,3.36c1.15.75,2.45,1.59,2.66,2.26.19.59-.37,2.06-.81,3.24-.59,1.56-1.26,3.33-1.26,5.22s.67,3.65,1.26,5.22l1.43-.54,1.43-.54c-.55-1.44-1.06-2.81-1.06-4.13s.51-2.69,1.06-4.13c.71-1.87,1.38-3.66.86-5.27-.55-1.69-2.26-2.8-3.9-3.88-1.19-.78-2.44-1.59-3.17-2.6-.73-1.01-1.14-2.47-1.52-3.86-.54-1.97-1.04-3.84-2.46-4.87-1.42-1.03-3.32-.93-5.35-.83-1.45.07-2.96.14-4.18-.26-1.16-.38-2.29-1.29-3.39-2.18-1.55-1.25-3.14-2.54-4.96-2.54s-3.41,1.29-4.96,2.54c-1.1.89-2.23,1.8-3.39,2.18-1.22.4-2.66.33-4.18.26-2.03-.1-3.95-.19-5.35.83s-1.92,2.9-2.46,4.87c-.38,1.4-.77,2.84-1.52,3.86s-1.97,1.82-3.17,2.6c-1.65,1.07-3.35,2.19-3.9,3.88-.52,1.61.15,3.39.86,5.27.55,1.44,1.06,2.81,1.06,4.13s-.51,2.69-1.06,4.13c-.71,1.87-1.38,3.66-.86,5.27.55,1.69,2.26,2.8,3.9,3.88,1.19.78,2.44,1.59,3.17,2.6.73,1.01,1.14,2.47,1.52,3.86.33,1.21.65,2.37,1.17,3.33l-6.21,15.88c-.31.79.08,1.68.87,1.99.23.09.49.12.74.09l8.69-1.04,5.67,6.65c.55.64,1.52.72,2.16.17.19-.17.34-.38.43-.61l6.19-15.84c.41.07.83.07,1.25,0l6.19,15.84c.31.79,1.2,1.18,1.99.87.24-.09.44-.24.61-.43l5.67-6.65,8.69,1.04c.84.1,1.6-.5,1.7-1.34.03-.25,0-.5-.09-.73l-6.21-15.89c.52-.96.84-2.12,1.17-3.33.38-1.4.77-2.84,1.52-3.86.75-1.03,1.97-1.82,3.17-2.6,1.65-1.07,3.36-2.19,3.9-3.88.52-1.61-.15-3.39-.85-5.27Zm-36.83,38.58l-4.54-5.33c-.33-.39-.84-.59-1.35-.53l-6.96.83,4.89-12.5c1.22.39,2.66.32,4.17.25.56-.03,1.14-.05,1.7-.05,1.04,0,1.82.1,2.48.31,1.16.38,2.29,1.29,3.39,2.18.51.41,1.02.82,1.55,1.19l-5.33,13.64Zm30.34-5.02l-6.96-.83c-.51-.06-1.02.14-1.35.53l-4.55,5.33-5.34-13.64c.52-.37,1.04-.79,1.55-1.19,1.1-.89,2.23-1.8,3.39-2.18,1.22-.4,2.66-.33,4.18-.26,1.52.07,2.96.14,4.17-.25l4.89,12.5Z"></path></svg> 