<svg width="90" height="90" viewBox="0 0 90 90" fill="none" xmlns="http://www.w3.org/2000/svg">
<path d="M55.31 32.49L49.14 31.59L46.38 26C46.23 25.7 45.99 25.45 45.68 25.3C44.92 24.93 44 25.24 43.63 26L40.87 31.59L34.7 32.49C34.37 32.54 34.06 32.7 33.82 32.94C33.23 33.55 33.24 34.52 33.85 35.11L38.32 39.46L37.27 45.61C37.26 45.7 37.25 45.78 37.25 45.87C37.25 46.72 37.94 47.4 38.78 47.4C39.03 47.4 39.27 47.34 39.49 47.22L45.01 44.32L50.53 47.22C50.83 47.38 51.17 47.43 51.5 47.38C52.33 47.24 52.9 46.45 52.76 45.61L51.71 39.46L56.18 35.11C56.42 34.87 56.58 34.57 56.63 34.23C56.75 33.39 56.17 32.61 55.33 32.49H55.31ZM48.98 37.81C48.62 38.16 48.45 38.67 48.54 39.17L49.2 43.05L45.72 41.22C45.5 41.11 45.25 41.05 45.01 41.05C44.76 41.05 44.52 41.11 44.3 41.23L40.82 43.06L41.49 39.18C41.58 38.68 41.41 38.17 41.05 37.82L38.23 35.07L42.12 34.5C42.62 34.43 43.05 34.11 43.28 33.66L45.02 30.13L46.76 33.66C46.98 34.11 47.42 34.43 47.92 34.5L51.82 35.06L49 37.81H48.98Z" fill="#E48747"/>
<path d="M45 16.66C33.98 16.66 25.05 25.59 25.05 36.61C25.05 47.63 33.98 56.56 45 56.56C56.01 56.55 64.94 47.62 64.95 36.61C64.95 25.59 56.02 16.66 45 16.66ZM45 53.5C35.67 53.5 28.11 45.94 28.11 36.61C28.11 27.28 35.67 19.72 45 19.72C54.32 19.73 61.88 27.28 61.89 36.61C61.89 45.94 54.33 53.5 45 53.5Z" fill="#E48747"/>
<path d="M73.08 40.75L70.21 41.84C70.66 43.02 71.21 44.49 71.02 45.08C70.81 45.74 69.51 46.59 68.36 47.34C67 48.23 65.45 49.24 64.38 50.7C63.32 52.17 62.81 53.98 62.38 55.56C62.04 56.81 61.62 58.36 61.08 58.75C60.54 59.14 58.96 59.06 57.67 59C56.02 58.92 54.16 58.83 52.4 59.41C50.7 59.96 49.28 61.11 48.03 62.12C46.96 62.99 45.74 63.97 45 63.97C44.26 63.97 43.05 62.99 41.97 62.11C40.72 61.1 39.3 59.95 37.6 59.4C36.63 59.08 35.54 58.94 34.17 58.94C33.54 58.94 32.92 58.97 32.32 59C31.04 59.06 29.45 59.14 28.92 58.75C28.39 58.37 27.96 56.8 27.62 55.56C27.19 53.97 26.7 52.18 25.62 50.7C24.54 49.22 23.01 48.23 21.64 47.34C20.49 46.59 19.19 45.75 18.98 45.08C18.79 44.5 19.35 43.03 19.79 41.84C20.38 40.28 21.05 38.51 21.05 36.62C21.05 34.73 20.38 32.97 19.79 31.4C19.34 30.22 18.79 28.75 18.98 28.16C19.19 27.5 20.49 26.65 21.64 25.9C23 25.01 24.55 24 25.62 22.54C26.69 21.08 27.19 19.26 27.62 17.68C27.96 16.43 28.38 14.88 28.92 14.49C29.46 14.1 31.04 14.18 32.32 14.24C33.97 14.32 35.84 14.41 37.6 13.83C39.3 13.28 40.72 12.13 41.97 11.12C43.04 10.25 44.26 9.25999 44.99 9.25999C45.72 9.25999 46.94 10.24 48.02 11.12C49.27 12.13 50.69 13.28 52.39 13.83C54.15 14.4 56.02 14.31 57.67 14.24C58.95 14.18 60.54 14.11 61.07 14.49C61.6 14.87 62.03 16.43 62.37 17.68C62.8 19.27 63.29 21.06 64.37 22.54C65.45 24.02 66.98 25.01 68.35 25.9C69.5 26.65 70.8 27.49 71.01 28.16C71.2 28.75 70.64 30.22 70.2 31.4C69.61 32.96 68.94 34.73 68.94 36.62C68.94 38.51 69.61 40.27 70.2 41.84L71.63 41.3L73.06 40.76C72.51 39.32 72 37.95 72 36.63C72 35.31 72.51 33.94 73.06 32.5C73.77 30.63 74.44 28.84 73.92 27.23C73.37 25.54 71.66 24.43 70.02 23.35C68.83 22.57 67.58 21.76 66.85 20.75C66.12 19.74 65.71 18.28 65.33 16.89C64.79 14.92 64.29 13.05 62.87 12.02C61.45 10.99 59.55 11.09 57.52 11.19C56.07 11.26 54.56 11.33 53.34 10.93C52.18 10.55 51.05 9.63999 49.95 8.74999C48.4 7.49999 46.81 6.20999 44.99 6.20999C43.17 6.20999 41.58 7.49999 40.03 8.74999C38.93 9.63999 37.8 10.55 36.64 10.93C35.42 11.33 33.98 11.26 32.46 11.19C30.43 11.09 28.51 11 27.11 12.02C25.71 13.04 25.19 14.92 24.65 16.89C24.27 18.29 23.88 19.73 23.13 20.75C22.38 21.77 21.16 22.57 19.96 23.35C18.31 24.42 16.61 25.54 16.06 27.23C15.54 28.84 16.21 30.62 16.92 32.5C17.47 33.94 17.98 35.31 17.98 36.63C17.98 37.95 17.47 39.32 16.92 40.76C16.21 42.63 15.54 44.42 16.06 46.03C16.61 47.72 18.32 48.83 19.96 49.91C21.15 50.69 22.4 51.5 23.13 52.51C23.86 53.52 24.27 54.98 24.65 56.37C24.98 57.58 25.3 58.74 25.82 59.7L19.61 75.58C19.3 76.37 19.69 77.26 20.48 77.57C20.71 77.66 20.97 77.69 21.22 77.66L29.91 76.62L35.58 83.27C36.13 83.91 37.1 83.99 37.74 83.44C37.93 83.27 38.08 83.06 38.17 82.83L44.36 66.99C44.77 67.06 45.19 67.06 45.61 66.99L51.8 82.83C52.11 83.62 53 84.01 53.79 83.7C54.03 83.61 54.23 83.46 54.4 83.27L60.07 76.62L68.76 77.66C69.6 77.76 70.36 77.16 70.46 76.32C70.49 76.07 70.46 75.82 70.37 75.59L64.16 59.7C64.68 58.74 65 57.58 65.33 56.37C65.71 54.97 66.1 53.53 66.85 52.51C67.6 51.48 68.82 50.69 70.02 49.91C71.67 48.84 73.38 47.72 73.92 46.03C74.44 44.42 73.77 42.64 73.07 40.76L73.08 40.75ZM36.25 79.33L31.71 74C31.38 73.61 30.87 73.41 30.36 73.47L23.4 74.3L28.29 61.8C29.51 62.19 30.95 62.12 32.46 62.05C33.02 62.02 33.6 62 34.16 62C35.2 62 35.98 62.1 36.64 62.31C37.8 62.69 38.93 63.6 40.03 64.49C40.54 64.9 41.05 65.31 41.58 65.68L36.25 79.32V79.33ZM66.59 74.31L59.63 73.48C59.12 73.42 58.61 73.62 58.28 74.01L53.73 79.34L48.39 65.7C48.91 65.33 49.43 64.91 49.94 64.51C51.04 63.62 52.17 62.71 53.33 62.33C54.55 61.93 55.99 62 57.51 62.07C59.03 62.14 60.47 62.21 61.68 61.82L66.57 74.32L66.59 74.31Z" fill="#E48747"/>
</svg>
