<svg width="61" height="63" viewBox="0 0 61 63" fill="none" xmlns="http://www.w3.org/2000/svg">
<path d="M16.2282 38.5468C16.2282 34.1045 12.6106 30.4904 8.16391 30.4904C3.71933 30.4904 0.103329 34.1045 0.103329 38.5468C0.103329 41.507 1.70758 44.0979 4.09101 45.5002C1.5233 46.9975 0 50.0543 0 54.1051V60.7819C0 61.4961 0.57898 62.0751 1.29323 62.0751H14.8772C15.5915 62.0751 16.1704 61.4961 16.1704 60.7819V54.1051C16.1704 50.0959 14.6788 47.0598 12.1588 45.5461C14.5873 44.1553 16.2282 41.5399 16.2282 38.5468ZM13.584 54.3129V59.4887H2.58646V54.3129H13.584ZM13.3332 51.7264H2.83722C3.29942 49.6002 4.58489 47.0637 8.08516 47.0637C11.5854 47.0637 12.8709 49.6002 13.3332 51.7264ZM8.16391 44.0229C5.14551 44.0229 2.68979 41.5664 2.68979 38.5468C2.68979 35.5306 5.14551 33.0769 8.16391 33.0769C11.1844 33.0769 13.6418 35.5306 13.6418 38.5468C13.6418 41.5664 11.1844 44.0229 8.16391 44.0229Z" fill="#E48747" fill-opacity="0.87451"/>
<path d="M56.7793 45.859C59.0487 44.4309 60.561 41.9054 60.561 39.0319C60.561 34.5897 56.9437 30.9756 52.4974 30.9756C48.0517 30.9756 44.4349 34.5897 44.4349 39.0319C44.4349 41.7897 45.8275 44.2275 47.9454 45.6819C45.5558 47.2366 44.1478 50.2111 44.1478 54.1049V60.7819C44.1478 61.4961 44.7269 62.0751 45.4411 62.0751H59.025C59.7392 62.0751 60.3183 61.4961 60.3183 60.7819V54.1051C60.3183 50.354 59.0113 47.4566 56.7793 45.859ZM47.0215 39.0319C47.0215 36.0159 49.478 33.5621 52.4976 33.5621C55.5177 33.5621 57.9747 36.0159 57.9747 39.0319C57.9747 41.9436 55.6898 44.3308 52.8189 44.4978C52.6263 44.4855 52.4318 44.4771 52.2332 44.4771C52.1496 44.4771 52.0676 44.481 51.9847 44.483C49.2049 44.2236 47.0215 41.8785 47.0215 39.0319ZM51.9199 47.0716C52.1108 47.0851 52.3031 47.0945 52.4976 47.0945C52.5956 47.0945 52.6926 47.0906 52.7897 47.0871C55.8715 47.3422 57.0443 49.7171 57.4812 51.7264H46.985C47.4333 49.6651 48.6559 47.2189 51.9199 47.0716ZM57.7318 59.4887H46.7343V54.3129H57.7318V59.4887Z" fill="#E48747" fill-opacity="0.87451"/>
<path d="M40.3067 43.7269L32.4064 40.4774V32.79C32.4064 32.4905 32.3036 32.2157 32.1328 31.9964H38.1642C38.8783 31.9964 39.4574 31.4174 39.4574 30.7031V23.1294C39.4574 19.2911 38.0905 16.3444 35.7624 14.7722C37.9318 13.3257 39.3644 10.8573 39.3644 8.05981C39.3644 3.61562 35.7475 0 31.3019 0C26.8567 0 23.2404 3.61562 23.2404 8.05968C23.2404 10.8886 24.7059 13.3803 26.9162 14.8197C24.6287 16.403 23.2868 19.3284 23.2868 23.1293V30.703C23.2868 31.4173 23.8658 31.9962 24.5801 31.9962H30.0936C29.9228 32.2154 29.82 32.4904 29.82 32.7899V40.4493L22.357 43.3477C21.6912 43.6063 21.3611 44.3557 21.6196 45.0214C21.8185 45.5333 22.3073 45.8469 22.8254 45.8469C22.9811 45.8469 23.1394 45.8186 23.2933 45.7588L31.0879 42.7316L39.3228 46.1187C39.4837 46.1849 39.6502 46.2162 39.8142 46.2162C40.323 46.2162 40.8052 45.9141 41.0107 45.4147C41.2824 44.7542 40.9673 43.9986 40.3067 43.7269ZM25.8269 8.05968C25.8269 5.04179 28.283 2.58646 31.3019 2.58646C34.3215 2.58646 36.778 5.04179 36.778 8.05968C36.778 10.9128 34.5846 13.2621 31.7959 13.5127C31.6564 13.5064 31.5155 13.5025 31.3729 13.5025C31.2021 13.5025 31.0338 13.5082 30.8671 13.5172C28.051 13.2947 25.8269 10.933 25.8269 8.05968ZM30.8517 16.1094C31.0008 16.1175 31.1509 16.1226 31.3019 16.1226C31.4775 16.1226 31.6513 16.115 31.8242 16.1038C34.4534 16.2776 35.7215 17.9723 36.3278 19.707H26.4165C27.0176 17.9878 28.2693 16.3084 30.8517 16.1094ZM25.8732 29.4099V23.1294H25.8733C25.8733 22.9099 25.8805 22.6238 25.9046 22.2935H36.8395C36.8637 22.6238 36.8708 22.9099 36.8708 23.1294V29.4099H25.8732Z" fill="#E48747" fill-opacity="0.87451"/>
</svg>
