<svg width="52" height="52" viewBox="0 0 52 52" fill="none" xmlns="http://www.w3.org/2000/svg">
<path d="M36.4 26.821H40.779C42.1372 26.821 43.2422 25.7161 43.2422 24.3578C43.2422 22.9997 42.1373 21.8947 40.779 21.8947H36.4C35.0418 21.8947 33.9368 22.9996 33.9368 24.3578C33.9368 25.7161 35.0418 26.821 36.4 26.821ZM36.4 23.5368H40.779C41.2317 23.5368 41.6 23.9051 41.6 24.3578C41.6 24.8106 41.2317 25.1789 40.779 25.1789H36.4C35.9472 25.1789 35.579 24.8106 35.579 24.3578C35.579 23.9051 35.9472 23.5368 36.4 23.5368Z" fill="#E48747" fill-opacity="0.87451"/>
<path d="M47.5209 5.5248C47.1797 4.23658 46.0045 3.28423 44.6105 3.28423H39.9578V2.4632C39.9579 1.1049 38.8529 0 37.4947 0C36.1365 0 35.0315 1.1049 35.0315 2.4632V3.28423H28.4631V2.4632C28.4632 1.1049 27.3582 0 26 0C24.6418 0 23.5368 1.1049 23.5368 2.4632V3.28423H16.9684V2.4632C16.9685 1.1049 15.8636 0 14.5053 0C13.1471 0 12.0421 1.1049 12.0421 2.4632V3.28423H7.38948C5.99554 3.28423 4.82026 4.23668 4.47911 5.5248C1.95203 5.87702 0 8.05116 0 10.6737V46.8C0 49.6672 2.33279 52 5.2 52H46.8C49.6672 52 52 49.6672 52 46.8V10.6737C52 8.05116 50.048 5.87702 47.5209 5.5248ZM36.6737 2.4632C36.6737 2.01043 37.042 1.64216 37.4947 1.64216C37.9475 1.64216 38.3158 2.01043 38.3158 2.4632V5.74742C38.3158 6.20019 37.9475 6.56845 37.4947 6.56845C37.042 6.56845 36.6737 6.20019 36.6737 5.74742V2.4632ZM25.179 2.4632C25.179 2.01043 25.5472 1.64216 26 1.64216C26.4528 1.64216 26.821 2.01043 26.821 2.4632V5.74742C26.821 6.20019 26.4528 6.56845 26 6.56845C25.5472 6.56845 25.179 6.20019 25.179 5.74742V2.4632ZM13.6842 2.4632C13.6842 2.01043 14.0525 1.64216 14.5053 1.64216C14.958 1.64216 15.3263 2.01043 15.3263 2.4632V5.74742C15.3263 6.20019 14.958 6.56845 14.5053 6.56845C14.0525 6.56845 13.6842 6.20019 13.6842 5.74742V2.4632ZM50.3579 46.8C50.3579 48.7618 48.7618 50.3579 46.8 50.3579H5.2C3.23822 50.3579 1.64206 48.7618 1.64206 46.8V10.6737C1.64206 8.99448 2.81176 7.58428 4.37887 7.21246V44.6105C4.37887 46.2706 5.72934 47.621 7.38938 47.621H37.9326C38.3861 47.621 38.7536 47.2534 38.7536 46.8C38.7536 46.3466 38.386 45.979 37.9326 45.979H7.38948C6.63488 45.979 6.02103 45.3651 6.02103 44.6105V12.5895H43.5158C43.9693 12.5895 44.3368 12.2218 44.3368 11.7685C44.3368 11.315 43.9691 10.9474 43.5158 10.9474H6.02103V6.29474C6.02103 5.54013 6.63488 4.92629 7.38948 4.92629H12.0421V5.74732C12.0421 7.10552 13.147 8.21052 14.5053 8.21052C15.8635 8.21052 16.9685 7.10562 16.9685 5.74732V4.92629H23.5369V5.74732C23.5369 7.10552 24.6418 8.21052 26.0001 8.21052C27.3583 8.21052 28.4633 7.10562 28.4633 5.74732V4.92629H35.0318V5.74732C35.0318 7.10552 36.1366 8.21052 37.4949 8.21052C38.8532 8.21052 39.9581 7.10562 39.9581 5.74732V4.92629H44.6108C45.3654 4.92629 45.9793 5.54013 45.9793 6.29474V44.6105C45.9793 45.3651 45.3654 45.979 44.6108 45.979H41.3266C40.8731 45.979 40.5056 46.3466 40.5056 46.8C40.5056 47.2534 40.8732 47.621 41.3266 47.621H44.6108C46.2709 47.621 47.6213 46.2706 47.6213 44.6105V7.21246C49.1884 7.58428 50.3581 8.99448 50.3581 10.6737V46.8H50.3579Z" fill="#E48747" fill-opacity="0.87451"/>
<path d="M43.2421 39.6842C43.2421 38.326 42.1372 37.221 40.7789 37.221H36.4C35.0418 37.221 33.9368 38.3259 33.9368 39.6842C33.9368 41.0424 35.0417 42.1474 36.4 42.1474H40.779C42.1372 42.1473 43.2421 41.0424 43.2421 39.6842ZM35.579 39.6842C35.579 39.2315 35.9472 38.8632 36.4 38.8632H40.779C41.2317 38.8632 41.6 39.2315 41.6 39.6842C41.6 40.137 41.2317 40.5053 40.779 40.5053H36.4C35.9472 40.5053 35.579 40.137 35.579 39.6842Z" fill="#E48747" fill-opacity="0.87451"/>
<path d="M36.4 34.4842H40.779C42.1372 34.4842 43.2422 33.3793 43.2422 32.021C43.2422 30.6628 42.1373 29.5578 40.779 29.5578H36.4C35.0418 29.5578 33.9368 30.6627 33.9368 32.021C33.9368 33.3793 35.0418 34.4842 36.4 34.4842ZM36.4 31.2H40.779C41.2317 31.2 41.6 31.5683 41.6 32.021C41.6 32.4738 41.2317 32.8421 40.779 32.8421H36.4C35.9472 32.8421 35.579 32.4738 35.579 32.021C35.579 31.5683 35.9472 31.2 36.4 31.2Z" fill="#E48747" fill-opacity="0.87451"/>
<path d="M15.6 37.221H11.221C9.86284 37.221 8.75784 38.3259 8.75784 39.6842C8.75784 41.0424 9.86273 42.1474 11.221 42.1474H15.6C16.9582 42.1474 18.0632 41.0425 18.0632 39.6842C18.0632 38.3259 16.9582 37.221 15.6 37.221ZM15.6 40.5053H11.221C10.7683 40.5053 10.4 40.137 10.4 39.6842C10.4 39.2315 10.7683 38.8632 11.221 38.8632H15.6C16.0528 38.8632 16.421 39.2315 16.421 39.6842C16.421 40.137 16.0528 40.5053 15.6 40.5053Z" fill="#E48747" fill-opacity="0.87451"/>
<path d="M15.6 21.8947H11.221C9.86284 21.8947 8.75784 22.9996 8.75784 24.3579C8.75784 25.7161 9.86273 26.8211 11.221 26.8211H15.6C16.9582 26.8211 18.0632 25.7162 18.0632 24.3579C18.0632 22.9996 16.9582 21.8947 15.6 21.8947ZM15.6 25.1789H11.221C10.7683 25.1789 10.4 24.8107 10.4 24.3579C10.4 23.9051 10.7683 23.5369 11.221 23.5369H15.6C16.0528 23.5369 16.421 23.9051 16.421 24.3579C16.421 24.8107 16.0528 25.1789 15.6 25.1789Z" fill="#E48747" fill-opacity="0.87451"/>
<path d="M28.1895 29.558H23.8105C22.4523 29.558 21.3473 30.6629 21.3473 32.0211C21.3473 33.3793 22.4522 34.4843 23.8105 34.4843H28.1895C29.5477 34.4843 30.6527 33.3794 30.6527 32.0211C30.6527 30.6629 29.5477 29.558 28.1895 29.558ZM28.1895 32.8421H23.8105C23.3578 32.8421 22.9895 32.4738 22.9895 32.021C22.9895 31.5683 23.3578 31.2 23.8105 31.2H28.1895C28.6423 31.2 29.0105 31.5683 29.0105 32.021C29.0105 32.4738 28.6423 32.8421 28.1895 32.8421Z" fill="#E48747" fill-opacity="0.87451"/>
<path d="M15.6 29.558H11.221C9.86284 29.558 8.75784 30.6629 8.75784 32.0211C8.75784 33.3793 9.86273 34.4843 11.221 34.4843H15.6C16.9582 34.4843 18.0632 33.3794 18.0632 32.0211C18.0632 30.6629 16.9582 29.558 15.6 29.558ZM15.6 32.8421H11.221C10.7683 32.8421 10.4 32.4738 10.4 32.021C10.4 31.5683 10.7683 31.2 11.221 31.2H15.6C16.0528 31.2 16.421 31.5683 16.421 32.021C16.421 32.4738 16.0528 32.8421 15.6 32.8421Z" fill="#E48747" fill-opacity="0.87451"/>
<path d="M28.1895 37.221H23.8105C22.4523 37.221 21.3473 38.3259 21.3473 39.6842C21.3473 41.0424 22.4522 42.1474 23.8105 42.1474H28.1895C29.5477 42.1474 30.6527 41.0425 30.6527 39.6842C30.6527 38.3259 29.5477 37.221 28.1895 37.221ZM28.1895 40.5053H23.8105C23.3578 40.5053 22.9895 40.137 22.9895 39.6842C22.9895 39.2315 23.3578 38.8632 23.8105 38.8632H28.1895C28.6423 38.8632 29.0105 39.2315 29.0105 39.6842C29.0105 40.137 28.6423 40.5053 28.1895 40.5053Z" fill="#E48747" fill-opacity="0.87451"/>
<path d="M32.5685 16.421H19.4316C18.9781 16.421 18.6105 16.7887 18.6105 17.2421C18.6105 17.6954 18.9782 18.0631 19.4316 18.0631H32.5684C33.0218 18.0631 33.3894 17.6954 33.3894 17.2421C33.3894 16.7887 33.0218 16.421 32.5685 16.421Z" fill="#E48747" fill-opacity="0.87451"/>
<path d="M28.1895 21.8947H23.8105C22.4523 21.8947 21.3473 22.9996 21.3473 24.3579C21.3473 25.7161 22.4522 26.8211 23.8105 26.8211H28.1895C29.5477 26.8211 30.6527 25.7162 30.6527 24.3579C30.6527 22.9996 29.5477 21.8947 28.1895 21.8947ZM28.1895 25.1789H23.8105C23.3578 25.1789 22.9895 24.8107 22.9895 24.3579C22.9895 23.9051 23.3578 23.5369 23.8105 23.5369H28.1895C28.6423 23.5369 29.0105 23.9051 29.0105 24.3579C29.0105 24.8107 28.6423 25.1789 28.1895 25.1789Z" fill="#E48747" fill-opacity="0.87451"/>
</svg>
