<?xml version="1.0" encoding="UTF-8"?> <svg xmlns="http://www.w3.org/2000/svg" id="Layer_3" data-name="Layer 3" viewBox="0 0 90 90"><defs><style> .cls-1 { fill: #3c2cda; } .cls-1, .cls-2 { stroke-width: 0px; } .cls-2 { fill: #ea9d00; } </style></defs><path class="cls-2" d="m40.35,22.08c-.14-.92-.64-1.72-1.38-2.26l-13.05-9.48c-1.23-.92-2.87-.93-4.11-.03l-13.1,9.51c-.75.54-1.24,1.34-1.39,2.26-.14.91.08,1.82.62,2.57.67.94,1.73,1.43,2.8,1.43.5,0,.99-.11,1.46-.32v10.03c0,2.44,1.98,4.42,4.42,4.42h14.43c2.44,0,4.43-1.98,4.43-4.42v-10.03c1.47.68,3.27.25,4.26-1.11.54-.75.76-1.66.61-2.57Zm-14.41,15.7h-4.2v-9.69h4.2v9.69Zm7.1-1.99c0,1.1-.89,1.99-1.99,1.99h-2.68v-10.91c0-.67-.54-1.22-1.21-1.22h-6.64c-.67,0-1.22.55-1.22,1.22v10.91h-2.68c-1.1,0-1.99-.89-1.99-1.99v-11.72l9.21-6.69,9.2,6.69v11.72Zm4.73-12.57c-.34.46-.98.57-1.44.23l-11.78-8.56c-.21-.15-.46-.23-.71-.23s-.51.08-.72.23l-11.78,8.56c-.46.34-1.1.23-1.43-.23-.16-.22-.23-.49-.18-.76.04-.27.19-.51.41-.67l13.09-9.51c.37-.27.87-.26,1.23.01,0,0,0,.01.02.01l13.06,9.49c.22.16.36.4.41.67.04.27-.02.54-.18.76Z"></path><path class="cls-2" d="m80.31,15.37h-7.32v-1.29c0-2.05-1.67-3.71-3.72-3.71h-7.46c-2.05,0-3.72,1.66-3.72,3.71v1.29h-7.31c-1.33,0-2.42,1.08-2.42,2.41v5.7c0,1.21.48,2.29,1.43,3.22v9.96c0,1.96,1.59,3.55,3.55,3.55h24.41c1.95,0,3.55-1.59,3.55-3.55v-9.96c.94-.93,1.42-2.01,1.42-3.22v-5.7c0-1.33-1.08-2.41-2.41-2.41Zm-19.78-1.29c0-.7.57-1.28,1.28-1.28h7.46c.71,0,1.29.58,1.29,1.28v1.29h-10.03v-1.29Zm-2.11,3.72h14.24v2.68c0,.15-.13.28-.28.28h-13.67c-.16,0-.29-.13-.29-.28v-2.68Zm20.44,18.86c.01.62-.5,1.12-1.11,1.12h-24.41c-.62,0-1.12-.5-1.12-1.12v-8.36c2.6,1.13,6.48,1.58,9.23,1.76.33,1.96,2.04,3.45,4.09,3.45s3.76-1.49,4.1-3.45c2.75-.18,6.62-.63,9.22-1.76v8.36Zm-15.04-7.3c0-.96.77-1.73,1.72-1.73s1.73.77,1.73,1.73-.78,1.72-1.73,1.72-1.72-.77-1.72-1.72Zm16.47-5.88c0,.4-.1,1.02-.98,1.74-.18.14-.38.29-.61.43-1.55.99-5.02,1.72-9.37,1.99-.65-1.44-2.1-2.44-3.79-2.44s-3.13,1-3.79,2.44c-4.34-.27-7.81-1-9.37-1.99-.22-.14-.43-.29-.6-.43-.88-.72-.98-1.34-.98-1.74v-5.68h5.19v2.68c0,1.5,1.22,2.71,2.72,2.71h13.67c1.5,0,2.71-1.21,2.71-2.71v-2.68h5.2v5.68Z"></path><path class="cls-1" d="m81.5,45.48H8.5c-.68,0-1.22.54-1.22,1.21v6.99c0,.68.54,1.22,1.22,1.22h34.39l-13.64,23.63c-.22.38-.22.84,0,1.22s.62.61,1.05.61h29.4c.43,0,.83-.23,1.05-.61s.22-.84,0-1.22l-13.64-23.63h34.39c.68,0,1.22-.54,1.22-1.22v-6.99c0-.67-.54-1.21-1.22-1.21Zm-23.91,32.44h-25.18l12.59-21.8,12.59,21.8Zm22.7-25.45H9.71v-4.56h70.58v4.56Z"></path></svg> 