<svg width="989" height="989" viewBox="0 0 989 989" fill="none" xmlns="http://www.w3.org/2000/svg">
<path d="M922.1 527.9C904 527.9 889.2 513.1 889.2 495C889.2 476.9 904 462.1 922.1 462.1C940.2 462.1 955 476.9 955 495C955 513.1 940.3 527.9 922.1 527.9ZM748 499.6L494 757.8L240 499.6C183.5 442 183.5 348.4 240 291.1C267.4 263.4 303.4 248.2 341.7 248.2C342 248.2 342.1 248.2 342.3 248.2C380.1 248.1 416.9 263.3 444.3 291.1L482.2 329.7C488.4 336 499.6 336 505.7 329.7L543.6 291.1C571 263.3 607.3 248 645.9 248H646C684.6 248.1 720.8 263.3 748.1 291.1C775.2 318.5 790.6 356.5 790.4 395.2C790.4 395.3 790.4 395.3 790.4 395.4C790.5 434.6 775.5 471.7 748 499.6ZM526.9 923.1C526.9 941.2 512.1 956 494 956C475.9 956 461.1 941.2 461.1 923.1C461.1 905 475.9 890.2 494 890.2C512.1 890.2 526.9 905 526.9 923.1ZM461.1 66.9C461.1 48.8 475.9 34 494 34C512.1 34 526.9 48.8 526.9 66.9C526.9 85 512.1 99.8 494 99.8C475.9 99.8 461.1 85 461.1 66.9ZM856.3 824.3C874.4 824.3 889.2 839.1 889.2 857.2C889.2 875.3 874.4 890.1 856.3 890.1C838.2 890.1 823.4 875.3 823.4 857.2C823.3 839.1 838.1 824.3 856.3 824.3ZM115.3 873.7C97.2 873.7 82.4 858.9 82.4 840.8C82.4 822.7 97.2 807.9 115.3 807.9C133.4 807.9 148.2 822.7 148.2 840.8C148.2 858.9 133.4 873.7 115.3 873.7ZM65.9 527.9C47.8 527.9 33 513.1 33 495C33 476.9 47.8 462.1 65.9 462.1C84 462.1 98.8 476.9 98.8 495C98.8 513.1 84 527.9 65.9 527.9ZM131.7 165.7C113.6 165.7 98.8 150.9 98.8 132.8C98.8 114.7 113.6 99.9 131.7 99.9C149.8 99.9 164.6 114.7 164.6 132.8C164.7 150.9 149.9 165.7 131.7 165.7ZM872.7 116.3C890.8 116.3 905.6 131.1 905.6 149.2C905.6 167.3 890.8 182.1 872.7 182.1C854.6 182.1 839.8 167.3 839.8 149.2C839.8 131.1 854.6 116.3 872.7 116.3ZM922.1 429.1C891.5 429.1 865.9 450.2 858.5 478.5H803.3C816.4 453 823.3 424.7 823.2 395.2C823.4 347.9 804.5 301.4 771.4 268C744.9 241 711.4 223.7 675 217.6V198.6C675 180.5 689.8 165.7 707.9 165.7H809C816.4 194 841.9 215.1 872.5 215.1C908.8 215.1 938.4 185.6 938.4 149.2C938.4 112.8 908.9 83.3 872.5 83.3C841.9 83.3 816.3 104.4 809 132.7H708.1C671.8 132.7 642.2 162.2 642.2 198.6V215.3C596.1 216.3 552.9 234.8 520.2 268L510.5 277.9V130.4C538.8 123 559.9 97.5 559.9 66.8C559.9 30.5 530.4 0.900024 494 0.900024C457.6 0.900024 428.1 30.4 428.1 66.8C428.1 97.4 449.2 123 477.5 130.4V277.9L467.8 268C438.9 238.6 401.9 220.7 362.3 216.3V182.1C362.3 145.8 332.8 116.2 296.4 116.2H195.3C187.9 87.9 162.4 66.8 131.7 66.8C95.4 66.8 65.8 96.3 65.8 132.7C65.8 169.1 95.3 198.6 131.7 198.6C162.3 198.6 187.9 177.5 195.3 149.2H296.4C314.5 149.2 329.3 164 329.3 182.1V215.8C286.9 218.8 247.2 236.9 216.5 268C160.6 324.8 150.1 410.6 184.7 478.5H129.4C122 450.2 96.5 429.1 65.8 429.1C29.5 429.1 0 458.7 0 495C0 531.3 29.5 560.9 65.9 560.9C96.5 560.9 122.1 539.8 129.5 511.5H206.6C209.8 515.3 213 519.1 216.6 522.7L313 620.7V791.5C313 809.6 298.2 824.4 280.1 824.4H178.8C171.4 796.1 145.9 775 115.3 775C79 775 49.4 804.5 49.4 840.9C49.4 877.2 78.9 906.8 115.3 906.8C145.9 906.8 171.5 885.7 178.8 857.4H279.9C316.2 857.4 345.8 827.9 345.8 791.5V654.1L471.6 782C473.4 783.8 475.4 785.3 477.5 786.6V859.5C449.2 866.9 428.1 892.4 428.1 923.1C428.1 959.4 457.6 989 494 989C530.4 989 559.9 959.5 559.9 923.1C559.9 892.5 538.8 866.9 510.5 859.5V786.6C512.6 785.2 514.6 783.8 516.4 782L625.7 670.8V807.8C625.7 844.1 655.2 873.7 691.6 873.7H792.7C800.1 902 825.6 923.1 856.3 923.1C892.6 923.1 922.2 893.6 922.2 857.2C922.2 820.8 892.7 791.3 856.3 791.3C825.7 791.3 800.1 812.4 792.7 840.7H691.6C673.5 840.7 658.7 825.9 658.7 807.8V637.3L771.5 522.6C775 519 778.3 515.2 781.5 511.4H858.6C866 539.7 891.5 560.8 922.2 560.8C958.5 560.8 988.1 531.3 988.1 494.9C988.1 458.5 958.5 429.1 922.1 429.1Z" fill="#E48747"/>
<path d="M576.3 527.9H526.9C517.8 527.9 510.4 535.3 510.4 544.4V593.8H477.5V544.4C477.5 535.3 470.1 527.9 461 527.9H411.6V495H461C470.1 495 477.5 487.6 477.5 478.5V429.1H510.4V478.5C510.4 487.6 517.8 495 526.9 495L576.3 494.9V527.9ZM576.3 462.1H543.4V429.2C543.4 411.1 528.6 396.3 510.5 396.3H477.6C459.5 396.3 444.7 411.1 444.7 429.2V462.1H411.8C393.7 462.1 378.9 476.9 378.9 495V527.9C378.9 546 393.7 560.8 411.8 560.8H444.7V593.7C444.7 611.8 459.5 626.6 477.6 626.6H510.5C528.6 626.6 543.4 611.8 543.4 593.7V560.8H576.3C594.4 560.8 609.2 546 609.2 527.9V495C609.3 476.9 594.5 462.1 576.3 462.1Z" fill="#E48747"/>
</svg>
