<svg width="449" height="513" viewBox="0 0 449 513" fill="none" xmlns="http://www.w3.org/2000/svg">
<g clip-path="url(#clip0_16_95)">
<path fill-rule="evenodd" clip-rule="evenodd" d="M341.96 70.82H380.18C387.69 70.82 394.53 73.9 399.5 78.84C404.44 83.77 407.51 90.65 408.47 98.16V224.99L408.08 224.87L407.31 224.61L406.93 224.49L406.55 224.36L406.16 224.23L405.78 224.1L404.24 223.58L403.85 223.45L403.47 223.32L403.08 223.18L402.71 223.05L401.17 222.51L400.79 222.37L400.4 222.24L400.03 222.1L399.64 221.96L399.38 221.87L399.26 221.83L398.88 221.69L398.49 221.55L398.11 221.41L397.73 221.27L397.35 221.13L396.97 220.98L396.21 220.7L395.82 220.56L395.45 220.41L395.06 220.27L394.68 220.13L394.3 219.98L393.93 219.84H393.91L393.55 219.69L393.16 219.54L392.78 219.4L392.41 219.25L392.03 219.1L391.65 218.95L390.89 218.66L390.51 218.51L390.13 218.36L389.76 218.21L389.38 218.06L389 217.9L388.49 217.7L388.25 217.6L387.87 217.45L387.49 217.29L387.12 217.14L386.74 216.99L386.36 216.83L385.99 216.68L385.78 216.6L385.61 216.52L385.23 216.36L384.86 216.21L384.48 216.05L384.11 215.9V98.16C384.11 97.1 383.69 96.09 382.92 95.42C382.21 94.69 381.23 94.23 380.18 94.23H341.96V195.12L341.65 194.95L341.58 194.91L341.21 194.69L340.83 194.48L340.46 194.27L340.08 194.05L339.7 193.84L339.33 193.63L339.18 193.55L338.95 193.41L338.57 193.2L338.2 192.98L337.82 192.77L337.45 192.55L337.07 192.33L336.73 192.13L336.7 192.12L336.33 191.9L335.95 191.68L335.58 191.47L335.21 191.25L334.84 191.03L334.47 190.82L334.29 190.72L334.1 190.6L333.73 190.39L333.36 190.17L332.99 189.95L332.62 189.73L332.25 189.51L331.89 189.3L331.87 189.29L331.51 189.08L331.15 188.86L330.78 188.64L330.41 188.42L330.05 188.2L329.68 187.98L329.47 187.86L329.32 187.77L328.95 187.54L328.59 187.33L328.23 187.1L327.86 186.89L327.5 186.67L327.13 186.44L327.08 186.41L326.77 186.23L326.41 186.01L326.05 185.78L325.69 185.57L325.33 185.34L324.97 185.12L324.72 184.97L324.61 184.91L324.25 184.68L323.89 184.46L323.53 184.24L323.17 184.02L322.81 183.79L322.46 183.58L322.37 183.52L322.1 183.35L321.74 183.13L321.39 182.91L321.03 182.69L320.68 182.47L320.32 182.24L320.04 182.06L319.97 182.02L319.61 181.8L319.26 181.58L318.91 181.35L318.56 181.13V27.33C318.56 25.21 316.74 23.41 314.63 23.41H27.34C25.21 23.41 23.41 25.22 23.41 27.33V351.88C23.41 353.99 25.23 355.8 27.34 355.8H156.32C157.93 363.84 159.74 371.62 161.74 379.17H88.92V422.7C88.92 423.76 89.34 424.76 90.1 425.44C90.82 426.16 91.79 426.62 92.84 426.62H178.22C181.82 434.79 185.72 442.59 189.92 450.03H92.84C85.33 450.03 78.5 446.95 73.52 442.02C68.59 437.08 65.51 430.25 65.51 422.7V379.21H27.34C12.29 379.21 0 366.92 0 351.88V27.33C0 12.27 12.27 0 27.34 0H314.63C329.68 0 341.96 12.28 341.96 27.33V70.82ZM86.56 297.75C80.26 297.75 75.16 292.64 75.16 286.35C75.16 280.06 80.26 274.95 86.56 274.95H147.36L147.38 275.31L147.39 275.68L147.63 281.46L147.65 281.82L147.66 282.18L147.68 282.54L147.69 282.82L147.7 282.9L147.71 283.26L147.73 283.62L147.75 283.97L147.77 284.33L148.04 289.32L148.06 289.67L148.09 290.02L148.1 290.38L148.12 290.68L148.13 290.73L148.15 291.09L148.17 291.44L148.19 291.79L148.22 292.15L148.24 292.49L148.56 297.05L148.58 297.4L148.6 297.75H86.56ZM86.66 102.17C80.37 102.17 75.26 97.06 75.26 90.77C75.26 84.48 80.37 79.37 86.66 79.37H255.29C261.58 79.37 266.68 84.48 266.68 90.77C266.68 97.06 261.58 102.17 255.29 102.17H86.66ZM86.56 165.24C80.26 165.24 75.16 160.13 75.16 153.84C75.16 147.55 80.26 142.44 86.56 142.44H255.18C261.48 142.44 266.58 147.55 266.58 153.84C266.58 160.13 261.48 165.24 255.18 165.24H86.56ZM86.56 231.5C80.26 231.5 75.16 226.39 75.16 220.1C75.16 213.81 80.26 208.7 86.56 208.7H255.18C258.79 208.7 262 210.38 264.1 212.99L263.06 213.45L262.75 213.59L262.02 213.91L260.97 214.35L258.89 215.23L257.85 215.66L256.8 216.08L255.76 216.5L255.42 216.63L253.67 217.32L252.63 217.72L252.17 217.9L251.58 218.12L250.54 218.51L248.45 219.27L247.4 219.64L246.36 220.01L245.31 220.38L243.21 221.09L242.17 221.43L241.54 221.64L241.12 221.77L240.07 222.11L239.02 222.44L238.88 222.49L237.97 222.76L236.93 223.08L234.82 223.71L233.78 224.01L232.73 224.31L231.68 224.6L230.88 224.83L230.62 224.89L229.57 225.17L227.47 225.73L226.42 225.99L225.37 226.25L224.31 226.51L223.26 226.77L222.87 226.86L222.2 227.01L221.15 227.25L220.19 227.47L220.09 227.49L219.04 227.73L217.99 227.96L217.51 228.06L216.93 228.18L215.88 228.39L213.76 228.82L212.71 229.02L212.14 229.13L211.65 229.22L210.59 229.41L209.54 229.6L209.46 229.61L208.48 229.78L207.42 229.96L206.78 230.07L206.36 230.14L205.31 230.31L204.25 230.47L204.09 230.5L203.19 230.64L202.13 230.79L201.4 230.89L201.07 230.94L200.01 231.09L198.95 231.23L198.71 231.27L197.89 231.37L196.83 231.5H86.56Z" fill="#E48747" fill-opacity="0.87451"/>
<path fill-rule="evenodd" clip-rule="evenodd" d="M448.41 267.32C455.02 400.78 405.72 479.64 318.35 512.52C233.98 481.71 184.11 406.3 187.8 265.29C232.16 267.6 275.7 258.03 317.87 225.27C355.3 249.01 403 271.46 448.41 267.32ZM317.94 248.15C358.91 274.09 395.91 286.41 427.67 283.49C433.21 395.67 391.79 461.93 318.37 489.61C247.46 463.74 205.53 400.33 208.61 281.79C245.96 283.75 282.53 275.71 317.94 248.15Z" fill="#E48747" fill-opacity="0.87451"/>
<path fill-rule="evenodd" clip-rule="evenodd" d="M306.94 310.83H329.68C333.93 310.83 337.39 314.32 337.39 318.55V347.19H366.04C370.29 347.19 373.75 350.67 373.75 354.91V377.63C373.75 381.88 370.27 385.36 366.04 385.36H337.39V413.34C337.39 417.59 333.91 421.06 329.68 421.06H306.94C302.69 421.06 299.22 417.58 299.22 413.34V385.36H270.58C266.33 385.36 262.86 381.88 262.86 377.63V354.89C262.86 350.64 266.35 347.18 270.58 347.18H299.22V318.55C299.22 314.3 302.69 310.83 306.94 310.83Z" fill="#E48747" fill-opacity="0.87451"/>
</g>
<defs>
<clipPath id="clip0_16_95">
<rect width="449" height="512.52" fill="white"/>
</clipPath>
</defs>
</svg>
