<svg width="338" height="366" viewBox="0 0 338 366" fill="none" xmlns="http://www.w3.org/2000/svg">
<g clip-path="url(#clip0_18_145)">
<path opacity="0.3" d="M256.2 286.75C259.499 286.92 262.66 288.126 265.235 290.196C267.809 292.266 269.666 295.095 270.54 298.28C271.709 302.327 271.234 306.671 269.22 310.371C267.206 314.07 263.814 316.826 259.78 318.04C257.787 318.609 255.701 318.777 253.643 318.534C251.585 318.291 249.595 317.642 247.79 316.625C245.984 315.607 244.399 314.241 243.125 312.606C241.852 310.971 240.915 309.1 240.37 307.1C239.201 303.053 239.676 298.709 241.69 295.009C243.705 291.31 247.097 288.554 251.13 287.34C252.776 286.864 254.489 286.665 256.2 286.75Z" fill="#E48747" fill-opacity="0.87451"/>
<path d="M7 374.52C10.3 336.3 18.35 287.2 22.82 273.52C24.1872 269.318 26.4185 265.449 29.3704 262.162C32.3223 258.874 35.9294 256.24 39.96 254.43L128.85 218.14L158.18 264.34C159.339 266.191 160.95 267.718 162.861 268.776C164.772 269.834 166.921 270.389 169.105 270.389C171.289 270.389 173.438 269.834 175.349 268.776C177.26 267.718 178.871 266.191 180.03 264.34L209.36 218.14L298.12 254.44C302.186 256.238 305.828 258.874 308.805 262.175C311.783 265.477 314.03 269.37 315.4 273.6C319.87 287.3 327.92 336.39 331.21 374.53" stroke="#E48747" stroke-opacity="0.87451" stroke-width="12.09"/>
<path d="M243.05 232.13C251.78 247.13 255.86 269.92 256.2 286.75C256.2 287 256.2 287.23 256.2 287.46" stroke="#E48747" stroke-opacity="0.87451" stroke-width="12.09"/>
<path d="M240.37 307.1C240.915 309.1 241.852 310.971 243.125 312.606C244.399 314.241 245.984 315.607 247.79 316.625C249.595 317.642 251.585 318.291 253.643 318.534C255.701 318.777 257.787 318.609 259.78 318.04C263.814 316.826 267.206 314.07 269.22 310.371C271.234 306.671 271.709 302.327 270.54 298.28C269.666 295.095 267.809 292.266 265.235 290.196C262.66 288.126 259.499 286.92 256.2 286.75C254.489 286.665 252.776 286.864 251.13 287.34C247.097 288.554 243.705 291.31 241.69 295.009C239.676 298.709 239.201 303.053 240.37 307.1Z" stroke="#E48747" stroke-opacity="0.87451" stroke-width="12.09"/>
<path d="M82.5901 277.58C84.0001 264.13 88.0401 244.41 95.1601 232.13" stroke="#E48747" stroke-opacity="0.87451" stroke-width="12.09"/>
<path d="M97.07 339L107.76 339.08L108.03 301.62C108.094 298.416 107.493 295.234 106.266 292.273C105.039 289.313 103.212 286.639 100.9 284.42C96.1762 279.985 89.9296 277.533 83.45 277.57H82.59C69.3 277.87 58.59 287.57 58.52 301.23L58.28 338.72L68.94 338.8" stroke="#E48747" stroke-opacity="0.87451" stroke-width="12.09" stroke-linecap="round"/>
<path d="M94.99 107.28C94.81 99.73 94.41 82.28 93.99 76.35C93.99 55.9 99.15 14.35 136.54 14.26C148.44 14.21 145.13 6 168.08 6C238.36 6 244.18 53.69 244.18 76.35C243.49 81.9 243.33 99.14 243.3 107.35" stroke="#E48747" stroke-opacity="0.87451" stroke-width="10.3"/>
<path d="M206.28 188.91C214.65 180.91 222.28 171.39 226.46 163.3L232.13 147.55C232.682 146.019 233.598 144.646 234.8 143.55C244.59 134.55 251.3 114.95 243.25 107.42C242.487 106.675 241.605 106.064 240.64 105.61C240.64 105.61 235.74 108.26 231.92 102.75C229.087 98.7134 227.1 94.145 226.08 89.32C225.965 88.7098 225.619 88.1674 225.115 87.806C224.61 87.4446 223.985 87.292 223.37 87.38C178.2 94.26 143.37 70.64 132.15 61.68C131.68 61.315 131.134 61.0615 130.552 60.9385C129.97 60.8156 129.367 60.8263 128.79 60.97C128.185 61.0659 127.619 61.3294 127.156 61.7306C126.693 62.1318 126.351 62.6547 126.17 63.24C125.25 68.521 123.913 73.7206 122.17 78.79C118.17 90.41 113.32 98.38 106.32 105.93C102.48 110.05 97.5001 105.61 97.5001 105.61C96.5783 106.049 95.7286 106.626 94.9801 107.32C86.8101 114.81 93.5201 134.47 103.36 143.55C104.548 144.657 105.459 146.027 106.02 147.55L111.68 163.3C115.88 171.39 123.5 180.89 131.88 188.91C134.703 191.627 137.664 194.197 140.75 196.61C146.28 200.93 151.88 201.85 158.58 202.85C158.58 202.85 159.14 202.95 159.96 203.07C162.982 203.56 166.039 203.791 169.1 203.76" stroke="#E48747" stroke-opacity="0.87451" stroke-width="12.3"/>
<path d="M169.1 203.72C172.154 203.752 175.206 203.521 178.22 203.03C179.07 202.91 179.61 202.81 179.61 202.81C186.32 201.81 191.86 200.93 197.43 196.61C200.521 194.209 203.481 191.645 206.3 188.93" stroke="#E48747" stroke-opacity="0.87451" stroke-width="12.3"/>
<path d="M206.28 188.91C206.87 200.11 207.28 209.56 209.34 218.11" stroke="#E48747" stroke-opacity="0.87451" stroke-width="10.3"/>
<path d="M131.89 188.91C131.32 200.12 130.89 209.58 128.89 218.13" stroke="#E48747" stroke-opacity="0.87451" stroke-width="10.3"/>
</g>
<defs>
<clipPath id="clip0_18_145">
<rect width="338" height="366" fill="white"/>
</clipPath>
</defs>
</svg>
