<svg width="1130" height="1273" viewBox="0 0 1130 1273" fill="none" xmlns="http://www.w3.org/2000/svg">
<path d="M534.667 1.8001C473.467 8.73344 415.733 36.7334 372.4 80.6001C348.4 104.733 333.733 125.533 319.467 155.133C269.067 259.8 290.4 384.467 372.933 466.6C415.067 508.6 470.667 536.067 528.933 543.667C546.533 545.933 581.067 546.333 597.333 544.333C648.266 537.933 697.2 517.4 736.4 485.8C785.333 446.2 820.266 388.867 832.666 327.667C848.666 248.467 828.8 165.933 778.666 103.133C733.2 46.2001 666.666 9.66677 594.4 1.8001C579.467 0.0667684 549.333 0.200102 534.667 1.8001Z" fill="#E48747" fill-opacity="0.87451"/>
<path d="M379.333 549.267C376.4 550.467 367.733 553.8 360.267 556.733L346.4 561.933L328.8 579.533C284 623.933 256.8 676.867 243.333 745.533C240 763.133 236 796.733 236 808.2V814.733L246.4 817C268.267 821.8 287.333 833 305.067 851.533C339.467 887.4 358.933 938.467 363.333 1005.13L364.133 1017.13L351.733 1027.67C344.933 1033.4 338.8 1038.6 338.267 1039.13C337.6 1039.67 337.867 1041.4 338.667 1043C341.333 1048.07 340.667 1058.2 337.333 1063.67C331.467 1073.27 316.8 1076.73 307.867 1070.6C301.067 1066.07 297.333 1059.67 297.333 1052.73C297.333 1044.73 300.667 1038.07 306.533 1034.33C313.2 1030.07 318.533 1029.13 325.067 1031.4L330.667 1033.4L342 1025.4C354.933 1016.33 354.267 1018.73 352 994.333C345.333 922.2 312.667 862.733 267.067 839.8C250.133 831.4 225.067 828.467 207.333 833C154 846.733 112.8 908.733 104.133 988.6C103.333 995.8 102.667 1005.4 102.667 1009.93L102.8 1018.33L112.933 1025.13C122.267 1031.4 123.467 1031.93 127.467 1030.73C137.067 1028.2 148.533 1034.47 152.667 1044.6C158.267 1058.73 147.467 1073.67 131.6 1073.67C116.133 1073.67 105.333 1055.13 113.2 1042.2L115.733 1037.93L103.867 1027.8L91.9999 1017.53V1010.47C91.9999 966.067 108.267 910.067 131.333 875.133C149.333 847.8 175.733 826.333 199.2 819.533L207.733 817.133L208.533 803.667C214.4 715 242.8 640.867 291.467 587L299.333 578.467L286.267 585.4C217.333 622.2 155.467 676.333 107.6 741.933C52.2666 817.8 15.3332 912.2 2.93324 1009.8L0.399902 1029L9.06657 1041.67C92.9332 1164.2 238.8 1241.27 431.333 1264.87C485.2 1271.53 572.933 1274.33 628 1271.13C797.067 1261.27 927.067 1219 1028 1140.87C1057.87 1117.8 1099.87 1073.27 1122.67 1040.33L1129.6 1030.33L1128.8 1019.8C1126.53 991.667 1116.4 945.8 1104.4 909.267C1087.6 857.667 1067.2 816.067 1036.67 770.333C992.133 703.8 936.533 649.667 868 605.933C851.467 595.4 821.333 578.6 821.333 579.933C821.333 580.333 825.6 585.133 830.8 590.733C858.133 620.067 883.467 661.267 899.333 702.067C904.267 715 913.6 746.2 914.933 754.2C915.2 756.2 917.333 757.133 924.667 758.6C935.867 760.733 952.933 768.867 961.733 776.2C975.2 787.4 985.6 803.933 990 821C992.533 831.133 992.533 850.867 990 861C982.667 890.067 958.133 914.867 929.333 922.333C918.133 925.267 899.2 925.4 888.133 922.467C860.267 915.267 837.333 893.8 828.533 866.6C823.467 850.867 823.467 831 828.533 815.4C836.4 791.133 855.333 771.4 879.2 762.333C888.8 758.733 888.533 760.467 881.867 737C866 681.8 836.8 632.2 796 590.867C774.8 569.4 743.467 544.467 740.8 547C740.533 547.4 700.8 617.533 652.667 703C604.533 788.467 563.867 860.333 562.4 862.733L559.733 867.133L482.4 722.733C439.867 643.267 401.333 571.267 396.933 562.733C391.733 553 387.867 547.133 386.667 547.133C385.6 547.267 382.267 548.2 379.333 549.267ZM740 965.667V993.667H768H796V1017.67V1041.67H768H740V1069.67V1097.67H716H692V1069.67V1041.67H663.333H634.667V1017.67V993.667H663.333H692V965.667V937.667H716H740V965.667Z" fill="#E48747" fill-opacity="0.87451"/>
<path d="M893.333 788.2C874.4 794.333 862.133 806.067 856.133 824.067C844.933 857 868.8 893 903.733 895.933C920.4 897.267 935.333 891.8 947.467 879.8C976.933 850.2 964.4 800.733 924.4 788.333C913.867 785.133 903.067 785 893.333 788.2Z" fill="#E48747" fill-opacity="0.87451"/>
</svg>
